<svg width="140" height="140" viewBox="0 0 140 140" fill="none" xmlns="http://www.w3.org/2000/svg">
<rect width="140" height="140" rx="70" fill="white"/>
<path d="M37.572 71.0035L24.3203 73.1309L26.0209 83.7246L39.2726 81.5972L37.572 71.0035Z" fill="#F5F5F5"/>
<path d="M37.5721 71L37.5081 71.012L37.3228 71.044L36.6041 71.1627L33.8921 71.608L24.3268 73.164L24.3561 73.124C24.8628 76.2773 25.4454 79.892 26.0601 83.716L26.0161 83.684L39.2681 81.5627L39.2414 81.6C38.7361 78.4093 38.3174 75.764 38.0241 73.9133C37.8801 72.988 37.7654 72.2627 37.6881 71.7653C37.6499 71.5173 37.6205 71.328 37.6001 71.1973C37.5814 71.064 37.5721 71.0013 37.5721 71.0013C37.5721 71.0013 37.5854 71.064 37.6068 71.1893C37.6281 71.3147 37.6601 71.5053 37.7001 71.7493C37.7814 72.2453 37.9001 72.968 38.0521 73.8893C38.3534 75.7427 38.7854 78.392 39.3054 81.5893V81.6213H39.2734L26.0228 83.7547H25.9854V83.7173C25.3721 79.892 24.7934 76.2773 24.2881 73.124V73.0893H24.3228L33.9161 71.5667L36.6228 71.1413L37.3361 71.0307L37.5188 71.0027L37.5721 71Z" fill="#E0E0E0"/>
<path d="M37.2042 71.7467L24.8833 73.7246L26.3698 82.9847L38.6908 81.0068L37.2042 71.7467Z" fill="#EBEBEB"/>
<path d="M26.3721 82.9851L29.7507 76.5371L32.9947 79.7104L34.4934 77.4958L38.6921 81.0064L26.3721 82.9851Z" fill="#E0E0E0"/>
<path d="M33.4346 75.2222C33.4657 75.4141 33.4391 75.6109 33.3583 75.7877C33.2774 75.9646 33.146 76.1134 32.9805 76.2155C32.815 76.3176 32.623 76.3683 32.4287 76.3612C32.2344 76.3541 32.0466 76.2895 31.889 76.1756C31.7314 76.0617 31.6112 75.9036 31.5434 75.7214C31.4757 75.5391 31.4636 75.3409 31.5086 75.1517C31.5536 74.9626 31.6537 74.791 31.7962 74.6588C31.9388 74.5265 32.1173 74.4396 32.3093 74.4088C32.5664 74.3677 32.8292 74.4302 33.0402 74.5827C33.2512 74.7352 33.3931 74.9652 33.4346 75.2222Z" fill="#E0E0E0"/>
<path d="M99.8027 86.0556C99.2 85.6775 98.5185 85.443 97.8107 85.3703C97.4854 85.3369 97.1307 85.3463 96.8694 85.5436C96.8391 85.5608 96.814 85.5858 96.7969 85.6161C96.7797 85.6464 96.7711 85.6808 96.772 85.7156C96.7877 85.7645 96.8203 85.8061 96.864 85.8329C97.6747 86.4516 98.9 86.5289 99.7974 86.0556" fill="#E0E0E0"/>
<path d="M99.752 85.9996C99.2906 85.6609 98.8601 85.2821 98.4653 84.8676C98.072 84.4494 97.796 83.9347 97.6653 83.3756C97.6393 83.2928 97.6315 83.2054 97.6426 83.1193C97.6536 83.0332 97.6832 82.9505 97.7293 82.877C98.7547 83.677 99.56 84.713 99.7587 85.9996" fill="#E0E0E0"/>
<path d="M99.7921 86.0475C99.6966 85.4877 99.7048 84.9151 99.8161 84.3582C99.9314 83.7976 100.252 83.3005 100.716 82.9648C100.893 83.3795 100.817 83.8568 100.692 84.2888C100.498 84.9592 100.197 85.5936 99.8001 86.1675" fill="#E0E0E0"/>
<path d="M100.8 87.8496C100.189 87.9243 99.6586 88.2496 99.2 88.6576C98.7417 89.0746 98.4228 89.6225 98.2866 90.2269C98.8853 90.1896 99.3933 89.7669 99.7613 89.2936C100.129 88.8203 100.384 88.3016 100.789 87.8589" fill="#E0E0E0"/>
<path d="M101.016 88.1368C100.775 87.5272 100.691 86.8671 100.769 86.2164C100.848 85.5656 101.088 84.9448 101.467 84.4102C101.815 85.6475 101.687 87.0435 101.012 88.1368" fill="#E0E0E0"/>
<path d="M102.344 89.7182C101.786 89.684 101.231 89.8144 100.747 90.0931C100.262 90.3719 99.8706 90.7868 99.6201 91.2862C99.5868 91.3542 99.5561 91.4396 99.6014 91.4996C99.6251 91.5225 99.6539 91.5394 99.6855 91.5487C99.7171 91.558 99.7505 91.5594 99.7828 91.5529C100.316 91.5182 100.795 91.1956 101.188 90.8276C101.581 90.4596 101.923 90.0356 102.356 89.7169" fill="#E0E0E0"/>
<path d="M102.301 89.6335C102.016 88.7125 101.999 87.7294 102.251 86.7988C102.351 86.4348 102.517 86.0508 102.856 85.8788C102.868 85.8686 102.883 85.8618 102.899 85.8589C102.915 85.8561 102.931 85.8573 102.946 85.8625C102.961 85.8678 102.975 85.8768 102.985 85.8887C102.996 85.9007 103.003 85.9152 103.007 85.9308C103.12 86.1863 103.169 86.4655 103.149 86.7442C103.128 87.0216 103.083 87.2967 103.016 87.5668C102.911 88.0695 102.853 88.6108 102.577 89.0442C102.513 89.1485 102.454 89.2567 102.403 89.3682C102.351 89.4788 102.349 89.5175 102.303 89.6055" fill="#E0E0E0"/>
<path d="M105.818 90.1572C105.551 89.1652 105.834 87.9652 106.458 87.1518C106.504 87.0918 106.564 87.0278 106.64 87.0358C106.755 87.0465 106.784 87.1998 106.78 87.3145C106.732 88.3336 106.399 89.3186 105.818 90.1572Z" fill="#E0E0E0"/>
<path d="M106.133 90.3744C107.333 90.6877 108.717 90.3837 109.719 89.6451C109.12 89.3417 108.434 89.2555 107.779 89.4011C107.131 89.5504 106.537 89.8397 106.135 90.3691" fill="#E0E0E0"/>
<path d="M106.4 89.7134C107.075 88.6147 108.367 87.8974 109.655 87.832C109.507 88.356 109.076 88.7654 108.588 89.008C108.1 89.2507 107.56 89.3614 107.025 89.4654C106.817 89.5054 106.532 89.5507 106.397 89.7134" fill="#E0E0E0"/>
<path d="M105.884 86.5114C106.089 85.8924 106.228 85.2539 106.3 84.606C106.351 83.9567 106.259 83.2727 105.922 82.7207C105.291 83.9394 105.228 85.3634 105.866 86.5767" fill="#E0E0E0"/>
<path d="M108 85.4421C108.737 84.1088 110.24 83.0341 111.76 82.8848C111.173 84.3448 109.573 85.4728 108 85.4421Z" fill="#E0E0E0"/>
<path d="M107.542 85.7023C108.64 85.8703 109.575 86.5716 110.608 86.997C110.823 87.1007 111.062 87.1466 111.3 87.1303C111.411 87.1295 111.519 87.0945 111.61 87.0301C111.7 86.9657 111.768 86.875 111.805 86.7704C111.842 86.6658 111.846 86.5523 111.816 86.4454C111.787 86.3385 111.725 86.2434 111.639 86.1729C111.494 86.0386 111.323 85.9348 111.138 85.8676C110.019 85.4023 108.82 85.3903 107.643 85.6729" fill="#E0E0E0"/>
<path d="M106.905 86.4744C107.155 86.5451 107.239 86.6744 107.439 86.8424C108.11 87.4132 108.905 87.8212 109.76 88.0344C109.848 88.0557 109.964 88.0651 110.008 87.9851C110.052 87.9051 109.999 87.8304 109.948 87.7677C109.575 87.33 109.091 87.0014 108.547 86.8171C108.013 86.6171 107.548 86.3771 106.908 86.4291" fill="#E0E0E0"/>
<path d="M106.188 81.8223C106.639 82.2371 107.171 82.5533 107.751 82.7505C108.331 82.9477 108.946 83.0217 109.556 82.9676C109.612 82.968 109.666 82.9487 109.709 82.913C109.793 82.821 109.692 82.6783 109.593 82.601C108.603 81.829 107.404 81.509 106.188 81.8223Z" fill="#E0E0E0"/>
<path d="M107.039 81.509C107.635 81.0703 108.326 80.7788 109.056 80.6583C109.786 80.5378 110.535 80.5917 111.24 80.8157C110.691 81.3254 109.987 81.6354 109.24 81.6957C108.501 81.7625 107.757 81.6993 107.04 81.509" fill="#E0E0E0"/>
<path d="M106.702 79.372C106.604 78.384 106.667 77.604 106.599 76.6106C106.599 76.532 106.576 76.436 106.502 76.408C106.399 76.368 106.312 76.4946 106.279 76.6C106.135 77.0602 106.098 77.5474 106.171 78.0241C106.244 78.5009 106.425 78.9547 106.7 79.3506" fill="#E0E0E0"/>
<path d="M106.629 79.4817C107.275 79.0645 107.831 78.5239 108.267 77.891C108.589 77.4483 108.863 76.9177 108.789 76.375C108.562 76.381 108.338 76.4366 108.134 76.538C107.93 76.6393 107.75 76.7839 107.608 76.9617C107.326 77.3194 107.121 77.7316 107.007 78.1723C106.873 78.607 106.784 79.0537 106.629 79.4817Z" fill="#E0E0E0"/>
<path d="M108.238 79.0359C109.711 78.4901 111.076 77.6855 112.267 76.6599C111.786 76.4666 111.235 76.5826 110.754 76.7759C109.654 77.2199 108.754 77.9692 108.22 79.0252" fill="#E0E0E0"/>
<path d="M107.082 80.0224C107.826 80.1037 108.582 80.1557 109.319 80.0331C110.056 79.9104 110.73 79.6251 111.407 79.3397C111.466 79.3225 111.517 79.2841 111.55 79.2317C111.56 79.2002 111.561 79.1662 111.551 79.1343C111.542 79.1024 111.523 79.0741 111.498 79.0531C111.446 79.0119 111.385 78.9836 111.32 78.9704C110.583 78.7637 109.788 78.8597 109.063 79.1037C108.372 79.3399 107.708 79.6473 107.082 80.0211" fill="#E0E0E0"/>
<path d="M102.836 81.8547C102.328 80.8307 102.361 79.6361 102.8 78.5801C103.108 79.0507 103.145 79.6467 103.089 80.2081C103.033 80.7694 102.863 81.3441 102.852 81.9054" fill="#E0E0E0"/>
<path d="M100.809 80.8324C100.174 80.8242 99.5438 80.9486 98.9593 81.1977C98.3748 81.4468 97.8487 81.8151 97.4146 82.2791C98.0548 82.3556 98.7032 82.2351 99.2732 81.9337C99.8414 81.6335 100.378 81.2761 100.873 80.8671" fill="#E0E0E0"/>
<path d="M99.4467 80.3769C98.8267 80.3263 98.2307 80.2436 97.6347 80.4316C97.3339 80.516 97.0548 80.6643 96.8164 80.8663C96.5781 81.0683 96.386 81.3193 96.2534 81.6023C96.8381 81.6495 97.4247 81.5389 97.9521 81.2823C98.4761 81.0253 98.9763 80.7223 99.4467 80.3769Z" fill="#E0E0E0"/>
<path d="M101.467 80.3978C100.909 80.0325 100.337 79.6605 99.6882 79.5098C99.0388 79.3592 98.2868 79.4698 97.8335 79.9592C98.3588 80.2672 98.9962 80.3045 99.6055 80.3032C100.215 80.3018 100.961 80.3032 101.536 80.4992" fill="#E0E0E0"/>
<path d="M101.467 80.4272C100.515 79.4939 100.153 77.8112 100.533 76.5312C101.287 77.6823 101.617 79.0596 101.467 80.4272Z" fill="#E0E0E0"/>
<path d="M104.088 77.7772C104.268 77.3585 104.393 76.9198 104.555 76.4945C104.702 76.0629 104.928 75.6624 105.221 75.3132C105.519 74.9628 105.943 74.7431 106.401 74.7012C106.255 75.3461 105.976 75.9534 105.581 76.4842C105.187 77.015 104.686 77.4577 104.111 77.7838" fill="#E0E0E0"/>
<path d="M103.613 78.3339C103.316 77.9245 102.972 77.3685 102.569 77.0632C102.167 76.7579 101.636 76.5725 101.148 76.6899C101.403 77.1364 101.759 77.5175 102.187 77.8028C102.614 78.0882 103.103 78.27 103.613 78.3339Z" fill="#E0E0E0"/>
<path d="M103.708 77.8104C103.495 77.3222 103.337 76.8113 103.239 76.2877C103.14 75.758 103.224 75.2105 103.476 74.7344C104 75.7237 104.168 76.785 103.735 77.817" fill="#E0E0E0"/>
<path d="M104.092 74.7335C104.39 73.7535 105.292 73.0322 106.256 72.7002C106.376 72.6512 106.506 72.632 106.635 72.6442C106.699 72.651 106.76 72.6766 106.81 72.7179C106.86 72.7591 106.896 72.8142 106.915 72.8762C106.95 73.0442 106.812 73.1935 106.683 73.3042C105.925 73.9513 105.044 74.4376 104.092 74.7335Z" fill="#E0E0E0"/>
<path d="M104.104 73.9339C104.141 73.3019 104.18 72.6605 104.387 72.0672C104.593 71.4739 104.988 70.9059 105.564 70.6445C105.663 71.2819 105.38 71.9179 105.041 72.4672C104.703 73.0165 104.292 73.5339 104.088 74.1472" fill="#E0E0E0"/>
<path d="M104.088 74.3715C103.843 73.6569 103.821 72.7502 103.389 72.1275C103.091 71.6929 102.612 71.3955 102.355 70.9355C102.199 71.3774 102.22 71.8625 102.415 72.2889C102.609 72.7103 102.877 73.094 103.205 73.4222C103.523 73.7595 103.793 74.0142 104.088 74.3715Z" fill="#E0E0E0"/>
<path d="M104.092 95.4124C104.074 95.4124 104.058 90.6457 104.056 84.7684C104.055 78.891 104.07 74.123 104.088 74.123C104.107 74.123 104.124 78.8884 104.126 84.7684C104.127 90.6484 104.112 95.4124 104.092 95.4124Z" fill="#E0E0E0"/>
<path d="M108.257 81.1328C108.2 81.1602 108.14 81.1825 108.079 81.1995L107.585 81.3661C107.169 81.5075 106.599 81.7128 105.985 81.9661C105.372 82.2195 104.785 82.4435 104.463 82.7301C104.331 82.8382 104.226 82.9751 104.156 83.1301C104.109 83.2421 104.101 83.3101 104.095 83.3088C104.088 83.3075 104.095 83.2915 104.095 83.2595C104.103 83.214 104.115 83.1694 104.131 83.1261C104.193 82.9596 104.296 82.8112 104.429 82.6941C104.63 82.5255 104.855 82.3876 105.096 82.2848C105.363 82.1608 105.653 82.0328 105.964 81.9048C106.585 81.6501 107.164 81.4515 107.583 81.3208C107.792 81.2555 107.964 81.2075 108.083 81.1755C108.139 81.1551 108.198 81.1408 108.257 81.1328Z" fill="#E0E0E0"/>
<path d="M109.623 77.7832C109.608 77.8028 109.591 77.8207 109.572 77.8365L109.42 77.9805C109.278 78.1139 109.084 78.2845 108.848 78.4992L106.948 80.1912C106.207 80.8512 105.566 81.4819 105.122 81.9565C104.899 82.1939 104.722 82.3912 104.604 82.5272L104.471 82.6859C104.456 82.7053 104.438 82.7228 104.419 82.7379C104.429 82.7156 104.443 82.695 104.459 82.6765C104.488 82.6379 104.531 82.5819 104.592 82.5112C104.706 82.3672 104.875 82.1659 105.094 81.9245C105.667 81.2973 106.274 80.7014 106.911 80.1392C107.655 79.4805 108.332 78.8885 108.824 78.4619C109.067 78.2552 109.264 78.0845 109.41 77.9592L109.571 77.8259C109.587 77.8098 109.604 77.7955 109.623 77.7832Z" fill="#E0E0E0"/>
<path d="M106.148 80.8662C106.128 80.8582 106.282 80.4995 106.438 80.0475C106.594 79.5955 106.667 79.2128 106.687 79.2168C106.67 79.5086 106.608 79.796 106.503 80.0688C106.437 80.2642 106.36 80.4557 106.272 80.6422C106.241 80.7222 106.2 80.7975 106.148 80.8662Z" fill="#E0E0E0"/>
<path d="M104.098 83.7476C104.055 83.7073 104.016 83.6626 103.983 83.6142L103.69 83.2396C103.444 82.9209 103.104 82.4822 102.723 82.0022C102.342 81.5222 101.991 81.0902 101.738 80.7796C101.618 80.6302 101.518 80.5129 101.438 80.4089C101.399 80.3654 101.364 80.3181 101.335 80.2676C101.381 80.304 101.423 80.3456 101.459 80.3916C101.535 80.4742 101.643 80.5956 101.775 80.7476C102.042 81.0516 102.395 81.4782 102.776 81.9596C103.158 82.4409 103.492 82.8836 103.73 83.2102C103.847 83.3729 103.942 83.5049 104.004 83.5982C104.041 83.6446 104.072 83.6946 104.098 83.7476Z" fill="#E0E0E0"/>
<path d="M103.184 82.5741C102.999 82.3707 102.868 82.1247 102.801 81.8581C102.729 81.6249 102.7 81.3805 102.715 81.1368H102.745C102.731 81.1928 102.721 81.2221 102.716 81.2208C102.711 81.2195 102.716 81.1888 102.716 81.1328H102.747C102.762 81.3703 102.802 81.6054 102.868 81.8341C102.954 82.0885 103.06 82.3359 103.184 82.5741Z" fill="#E0E0E0"/>
<path d="M102 81.0917C101.918 81.0293 101.828 80.9773 101.733 80.937C101.493 80.8656 101.241 80.8452 100.992 80.877C100.74 80.8971 100.491 80.9377 100.245 80.9984C100.145 81.0301 100.042 81.0546 99.9375 81.0717C100.029 81.0172 100.128 80.9768 100.232 80.9517C100.478 80.8758 100.731 80.8279 100.987 80.809C101.245 80.7748 101.507 80.8031 101.752 80.8917C101.855 80.9285 101.942 80.999 102 81.0917Z" fill="#E0E0E0"/>
<path d="M101.725 80.7332C101.725 80.7439 101.569 80.6706 101.316 80.5839C100.653 80.3563 99.943 80.3022 99.2533 80.4266C98.9867 80.4732 98.8307 80.5226 98.8267 80.5119C98.8595 80.4911 98.8955 80.4757 98.9333 80.4666C99.0347 80.4317 99.1379 80.4027 99.2427 80.3799C99.9399 80.227 100.667 80.2812 101.333 80.5359C101.433 80.5746 101.531 80.6192 101.625 80.6692C101.692 80.7052 101.733 80.7332 101.725 80.7332Z" fill="#E0E0E0"/>
<path d="M104.088 79.2118C103.967 78.8726 103.867 78.5262 103.79 78.1744C103.69 77.8286 103.612 77.4768 103.558 77.1211C103.679 77.4596 103.779 77.8057 103.856 78.1571C103.956 78.5033 104.034 78.8556 104.088 79.2118Z" fill="#E0E0E0"/>
<path d="M104.107 79.2119C104.012 78.9972 103.901 78.7896 103.776 78.5906C103.636 78.403 103.472 78.2341 103.29 78.0879C103.359 78.1055 103.423 78.1388 103.478 78.1852C103.616 78.2859 103.736 78.4095 103.832 78.5506C103.981 78.7427 104.076 78.971 104.107 79.2119Z" fill="#E0E0E0"/>
<path d="M104.092 92.8662C104.085 92.8662 104.071 92.7528 104.017 92.5502C103.938 92.2653 103.831 91.9889 103.699 91.7248C103.369 91.0515 102.765 90.1982 102.009 89.3435C101.632 88.9128 101.265 88.5062 100.955 88.1168C100.676 87.7745 100.424 87.4112 100.201 87.0302C100.052 86.7726 99.9247 86.5027 99.8212 86.2235C99.7866 86.1235 99.7599 86.0462 99.7466 85.9928C99.737 85.9661 99.7303 85.9383 99.7266 85.9102C99.7266 85.9102 99.7679 86.0195 99.8466 86.2142C99.9594 86.488 100.093 86.7528 100.247 87.0062C100.474 87.3797 100.729 87.7362 101.008 88.0728C101.319 88.4582 101.685 88.8635 102.064 89.2942C102.827 90.1515 103.425 91.0155 103.745 91.6942C103.876 91.9624 103.977 92.244 104.047 92.5342C104.068 92.6368 104.083 92.7182 104.088 92.7728C104.093 92.8036 104.095 92.835 104.092 92.8662Z" fill="#E0E0E0"/>
<path d="M107.856 88.6211C107.793 88.6625 107.727 88.6995 107.659 88.7318C107.481 88.8328 107.31 88.9459 107.148 89.0704C106.91 89.2569 106.687 89.462 106.481 89.6838C106.245 89.9318 106.003 90.2171 105.755 90.5318C105.259 91.1531 104.795 91.7038 104.517 92.1438C104.376 92.3611 104.273 92.5438 104.207 92.6771C104.175 92.7455 104.138 92.8114 104.097 92.8744C104.102 92.8557 104.108 92.8374 104.116 92.8198C104.131 92.7838 104.151 92.7304 104.183 92.6651C104.269 92.4773 104.367 92.2951 104.476 92.1198C104.743 91.6704 105.205 91.1118 105.7 90.4918C105.949 90.1811 106.195 89.8904 106.435 89.6424C106.646 89.4203 106.877 89.2169 107.124 89.0344C107.292 88.911 107.47 88.803 107.657 88.7118C107.723 88.6784 107.776 88.6584 107.811 88.6424C107.825 88.6341 107.84 88.627 107.856 88.6211Z" fill="#E0E0E0"/>
<path d="M107.93 90.0008C107.793 90.0307 107.653 90.0508 107.514 90.0608C107.179 90.0953 106.847 90.1605 106.524 90.2555C106.205 90.3594 105.906 90.5162 105.639 90.7195C105.435 90.8782 105.339 91.0088 105.33 91.0008C105.32 90.9928 105.346 90.9622 105.391 90.9048C105.456 90.8238 105.529 90.7492 105.608 90.6822C105.872 90.4623 106.176 90.2953 106.503 90.1902C106.83 90.0924 107.167 90.0329 107.508 90.0128C107.648 89.9957 107.789 89.9917 107.93 90.0008Z" fill="#E0E0E0"/>
<path d="M105.451 90.8476C105.43 90.8356 105.618 90.5489 105.763 90.1622C105.908 89.7756 105.932 89.4316 105.956 89.4356C105.969 89.5097 105.969 89.5855 105.956 89.6596C105.936 89.8391 105.895 90.0158 105.835 90.1862C105.771 90.3553 105.69 90.517 105.592 90.6689C105.511 90.7862 105.459 90.8529 105.451 90.8476Z" fill="#E0E0E0"/>
<path d="M109.075 84.9199C109.054 84.9337 109.031 84.9453 109.008 84.9546L108.812 85.0439C108.727 85.0813 108.623 85.1266 108.505 85.1893C108.388 85.2519 108.249 85.3119 108.105 85.3986L107.877 85.5319C107.799 85.5773 107.721 85.6306 107.639 85.6826C107.471 85.7853 107.303 85.9093 107.123 86.0373C106.355 86.6093 105.685 87.3023 105.14 88.0893C105.019 88.2733 104.899 88.4453 104.803 88.6226C104.753 88.7066 104.703 88.7866 104.66 88.8666L104.539 89.0986C104.457 89.2453 104.405 89.3839 104.343 89.4986C104.28 89.6133 104.243 89.7239 104.209 89.8106L104.128 90.0093C104.119 90.033 104.108 90.0557 104.095 90.0773C104.098 90.0524 104.105 90.0281 104.115 90.0053L104.184 89.8013C104.215 89.7119 104.255 89.6053 104.309 89.4826C104.364 89.3599 104.417 89.2159 104.496 89.0719L104.615 88.8359C104.656 88.7546 104.707 88.6733 104.748 88.5879C104.843 88.4146 104.961 88.2399 105.083 88.0546C105.628 87.2577 106.304 86.5589 107.083 85.9879C107.264 85.8613 107.435 85.7359 107.605 85.6359C107.689 85.5853 107.768 85.5319 107.848 85.4879L108.08 85.3613C108.225 85.2773 108.364 85.2173 108.48 85.1599C108.596 85.1026 108.707 85.0573 108.793 85.0266C108.88 84.9959 108.943 84.9706 108.995 84.9493C109.02 84.9358 109.047 84.9259 109.075 84.9199Z" fill="#E0E0E0"/>
<path d="M106.096 86.9134C106.125 86.8175 106.182 86.7325 106.26 86.6694C106.444 86.5107 106.677 86.4211 106.92 86.416C107.158 86.4146 107.394 86.4599 107.615 86.5494C107.71 86.5806 107.8 86.6255 107.882 86.6827C107.785 86.6638 107.691 86.6361 107.6 86.6C107.383 86.5257 107.154 86.4875 106.924 86.4867C106.696 86.491 106.475 86.5686 106.294 86.708C106.223 86.772 106.157 86.8406 106.096 86.9134Z" fill="#E0E0E0"/>
<path d="M105.651 87.3736C105.739 87.1794 105.803 86.9746 105.839 86.7643C105.853 86.5509 105.838 86.3366 105.796 86.127C105.837 86.1787 105.864 86.2396 105.875 86.3043C105.954 86.6118 105.916 86.938 105.768 87.219C105.71 87.3243 105.658 87.3776 105.651 87.3736Z" fill="#E0E0E0"/>
<path d="M100.8 93.5547C100.903 95.376 101.451 97.228 102.296 99.1014H105.967C106.767 97.2467 107.283 95.3974 107.374 93.5547H100.8Z" fill="#E0E0E0"/>
<path d="M106.78 96.5015C106.78 96.5201 105.571 96.5361 104.08 96.5361C102.589 96.5361 101.38 96.5201 101.38 96.5015C101.38 96.4828 102.589 96.4668 104.08 96.4668C105.571 96.4668 106.78 96.4828 106.78 96.5015Z" fill="#FAFAFA"/>
<path d="M106.698 97.1616C106.698 97.1803 105.564 97.1963 104.164 97.1963C102.764 97.1963 101.631 97.1803 101.631 97.1616C101.631 97.143 102.764 97.127 104.164 97.127C105.564 97.127 106.698 97.143 106.698 97.1616Z" fill="#FAFAFA"/>
<path d="M102.356 94.752C102.402 95.3146 102.402 95.88 102.356 96.4426C102.31 95.88 102.31 95.3146 102.356 94.752Z" fill="#FAFAFA"/>
<path d="M104.323 94.752C104.369 95.3346 104.369 95.92 104.323 96.5026C104.277 95.92 104.277 95.3346 104.323 94.752Z" fill="#FAFAFA"/>
<path d="M106.169 94.7344C106.216 95.329 106.216 95.9264 106.169 96.521C106.123 95.9264 106.123 95.329 106.169 94.7344Z" fill="#FAFAFA"/>
<path d="M107.259 94.7515C107.259 94.7701 105.84 94.7848 104.092 94.7848C102.344 94.7848 100.925 94.7701 100.925 94.7515C100.925 94.7328 102.343 94.7168 104.092 94.7168C105.841 94.7168 107.259 94.7341 107.259 94.7515Z" fill="#FAFAFA"/>
<path d="M115.716 62.13C115.778 62.1439 115.836 62.1698 115.888 62.2062C115.94 62.2427 115.984 62.289 116.017 62.3425C116.051 62.396 116.074 62.4557 116.085 62.518C116.096 62.5804 116.094 62.6443 116.08 62.706L115.991 63.106L115.167 66.706C115.148 66.7883 115.098 66.86 115.027 66.9052C114.955 66.9505 114.869 66.9656 114.787 66.9473L106.552 65.0607C106.473 65.0424 106.404 64.9947 106.359 64.9273C106.314 64.8599 106.297 64.7778 106.311 64.698L107.087 60.0127C107.093 59.9691 107.108 59.9273 107.131 59.8898C107.153 59.8523 107.184 59.82 107.22 59.795C107.256 59.7699 107.297 59.7526 107.34 59.7442C107.383 59.7357 107.428 59.7364 107.471 59.746L109.337 60.1727C109.514 60.2127 109.67 60.3144 109.777 60.4593L110.087 60.874L115.716 62.13Z" fill="#E0E0E0"/>
<path d="M116.22 62.7541L107.223 60.6934L105.979 66.1234L114.977 68.1842L116.22 62.7541Z" fill="#F5F5F5"/>
<path d="M106.4 61.017L105.79 66.837C105.785 66.8867 105.798 66.9365 105.827 66.9771C105.856 67.0178 105.898 67.0467 105.947 67.0583L114.715 69.0663C114.765 69.0776 114.818 69.0695 114.862 69.0435C114.907 69.0175 114.94 68.9757 114.955 68.9263L116.688 63.365C116.698 63.3378 116.701 63.3089 116.699 63.2802C116.697 63.2515 116.688 63.2236 116.674 63.1984C116.66 63.1732 116.641 63.1513 116.618 63.134C116.595 63.1168 116.568 63.1046 116.54 63.0983L106.643 60.8317C106.615 60.8263 106.586 60.827 106.558 60.8337C106.529 60.8403 106.503 60.8528 106.48 60.8703C106.457 60.8878 106.438 60.9098 106.425 60.9351C106.411 60.9604 106.403 60.9883 106.4 61.017Z" fill="#EBEBEB"/>
<path d="M32.6123 56.1323C32.7122 56.1475 32.8021 56.2015 32.8623 56.2827C32.9225 56.3639 32.9481 56.4656 32.9336 56.5657C32.915 56.699 32.8963 56.8323 32.887 56.887L32.459 59.7843C32.4544 59.8171 32.4434 59.8487 32.4265 59.8772C32.4097 59.9058 32.3873 59.9307 32.3608 59.9505C32.3342 59.9703 32.304 59.9847 32.2719 59.9928C32.2398 60.0009 32.2064 60.0026 32.1736 59.9977L25.547 59.0177C25.4844 59.0081 25.4278 58.9754 25.3882 58.926C25.3487 58.8766 25.3292 58.8141 25.3336 58.751L25.6563 54.9977C25.659 54.9632 25.6688 54.9298 25.685 54.8993C25.7012 54.8688 25.7235 54.842 25.7505 54.8205C25.7775 54.799 25.8087 54.7833 25.842 54.7743C25.8753 54.7653 25.9101 54.7633 25.9443 54.7683L27.443 54.9897C27.5849 55.011 27.7148 55.0819 27.8096 55.1897L28.0763 55.4977L32.6123 56.1323Z" fill="#E0E0E0"/>
<path d="M33.0492 56.5962L25.8066 55.5254L25.1604 59.8965L32.403 60.9673L33.0492 56.5962Z" fill="#F5F5F5"/>
<path d="M25.1707 55.8302L25.0494 60.4662C25.0481 60.5052 25.0609 60.5433 25.0854 60.5737C25.1098 60.604 25.1444 60.6246 25.1827 60.6316L32.2414 61.6756C32.2819 61.6816 32.3231 61.672 32.3568 61.6487C32.3905 61.6254 32.414 61.5902 32.4227 61.5502L33.4521 57.0449C33.4573 57.0231 33.458 57.0005 33.454 56.9784C33.45 56.9564 33.4414 56.9354 33.4289 56.9168C33.4163 56.8983 33.4001 56.8825 33.3811 56.8706C33.3621 56.8587 33.3409 56.8508 33.3187 56.8476L25.3507 55.6689C25.3281 55.6665 25.3052 55.6688 25.2835 55.6758C25.2618 55.6828 25.2418 55.6943 25.2248 55.7095C25.2079 55.7247 25.1943 55.7433 25.185 55.7641C25.1756 55.7849 25.1708 55.8074 25.1707 55.8302Z" fill="#EBEBEB"/>
<path d="M112.816 51.0337L107.78 52.6003C107.698 52.6261 107.611 52.6354 107.525 52.6276C107.438 52.6198 107.354 52.595 107.278 52.5548C107.201 52.5145 107.133 52.4596 107.078 52.393C107.022 52.3265 106.981 52.2497 106.955 52.167L104.782 45.1963C104.731 45.0291 104.749 44.8488 104.83 44.6942C104.911 44.5396 105.05 44.4231 105.216 44.3697L108.416 43.375L111.682 45.1523L113.256 50.2043C113.307 50.3727 113.289 50.5543 113.207 50.7096C113.125 50.8649 112.984 50.9814 112.816 51.0337Z" fill="#EBEBEB"/>
<path d="M108.41 43.377L109.02 45.3383C109.07 45.4929 109.179 45.6217 109.323 45.6966C109.467 45.7715 109.635 45.7865 109.79 45.7383L111.675 45.1503L108.41 43.377Z" fill="#E0E0E0"/>
<path d="M108.574 45.3916C108.582 45.4169 108.066 45.5996 107.423 45.7996C106.78 45.9996 106.251 46.1423 106.244 46.1169C106.238 46.0916 106.751 45.9089 107.395 45.7089C108.039 45.5089 108.566 45.3663 108.574 45.3916Z" fill="#FAFAFA"/>
<path d="M110.424 46.0311C110.431 46.0564 109.579 46.3444 108.52 46.6737C107.461 47.0031 106.597 47.2511 106.589 47.2257C106.581 47.2004 107.433 46.9124 108.492 46.5831C109.551 46.2537 110.416 46.0057 110.424 46.0311Z" fill="#FAFAFA"/>
<path d="M111.057 46.8493C111.065 46.8746 110.136 47.1866 108.981 47.5453C107.827 47.904 106.885 48.1773 106.877 48.152C106.869 48.1266 107.799 47.8146 108.953 47.4546C110.108 47.0946 111.049 46.824 111.057 46.8493Z" fill="#FAFAFA"/>
<path d="M111.334 47.7223C111.342 47.7477 110.412 48.0597 109.259 48.4197C108.106 48.7797 107.163 49.0503 107.155 49.025C107.147 48.9997 108.076 48.6877 109.23 48.3277C110.383 47.9677 111.322 47.697 111.334 47.7223Z" fill="#FAFAFA"/>
<path d="M111.6 48.5998C111.607 48.6251 110.677 48.9371 109.524 49.2971C108.371 49.6571 107.428 49.9278 107.42 49.9025C107.412 49.8771 108.341 49.5651 109.496 49.2065C110.651 48.8478 111.6 48.5705 111.6 48.5998Z" fill="#FAFAFA"/>
<path d="M111.875 49.4704C111.883 49.4957 110.954 49.8077 109.799 50.1664C108.644 50.5251 107.703 50.7984 107.695 50.7731C107.687 50.7477 108.616 50.4357 109.771 50.0757C110.926 49.7157 111.867 49.4451 111.875 49.4704Z" fill="#FAFAFA"/>
<path d="M100.242 43.4219H37.2837C36.7625 43.4219 36.2626 43.6289 35.894 43.9975C35.5254 44.3661 35.3184 44.866 35.3184 45.3872V89.8565C35.3184 90.3778 35.5254 90.8777 35.894 91.2462C36.2626 91.6148 36.7625 91.8219 37.2837 91.8219H61.4477C61.4477 91.8219 62.9837 96.5752 58.2197 99.0352H80.813C80.813 99.0352 75.4344 97.1899 76.813 91.8219H100.24C100.761 91.8215 101.26 91.6143 101.629 91.2458C101.997 90.8772 102.204 90.3776 102.204 89.8565V45.3872C102.204 44.8667 101.997 44.3674 101.629 43.9989C101.262 43.6305 100.763 43.4229 100.242 43.4219Z" fill="#455A64"/>
<path d="M69.5996 87.145C70.4556 88.369 69.1156 89.709 67.8916 88.853C67.8508 88.8242 67.8151 88.7886 67.7863 88.7477C66.9316 87.5237 68.2703 86.185 69.4943 87.0397C69.5355 87.0682 69.5711 87.1039 69.5996 87.145Z" fill="#263238"/>
<path d="M37.6959 44.2363H99.8292C100.172 44.2363 100.501 44.3726 100.744 44.6151C100.986 44.8577 101.123 45.1867 101.123 45.5297V83.687H36.3999V45.535C36.3992 45.3645 36.4322 45.1955 36.4971 45.0378C36.5619 44.8801 36.6573 44.7368 36.7778 44.6161C36.8982 44.4954 37.0413 44.3997 37.1989 44.3345C37.3565 44.2693 37.5254 44.236 37.6959 44.2363Z" fill="white"/>
<path d="M37.6226 44.2363H100.123C100.388 44.2363 100.644 44.342 100.832 44.53C101.02 44.718 101.125 44.9731 101.125 45.239V47.515H36.3999V45.4563C36.3999 45.2959 36.4315 45.137 36.493 44.9888C36.5545 44.8406 36.6446 44.706 36.7582 44.5927C36.8717 44.4794 37.0066 44.3896 37.1549 44.3284C37.3032 44.2673 37.4621 44.236 37.6226 44.2363Z" fill="#EBEBEB"/>
<path d="M38.9186 45.9449C38.9186 46.0348 38.8919 46.1227 38.842 46.1975C38.792 46.2723 38.721 46.3305 38.6379 46.365C38.5549 46.3994 38.4634 46.4084 38.3752 46.3908C38.287 46.3733 38.206 46.33 38.1424 46.2664C38.0789 46.2028 38.0356 46.1218 38.018 46.0336C38.0005 45.9454 38.0095 45.854 38.0439 45.7709C38.0783 45.6878 38.1366 45.6168 38.2113 45.5669C38.2861 45.5169 38.374 45.4902 38.4639 45.4902C38.5845 45.4902 38.7002 45.5381 38.7854 45.6234C38.8707 45.7087 38.9186 45.8243 38.9186 45.9449Z" fill="#263238"/>
<path d="M40.2731 45.9449C40.2731 46.0348 40.2464 46.1227 40.1965 46.1975C40.1465 46.2723 40.0755 46.3305 39.9924 46.365C39.9094 46.3994 39.8179 46.4084 39.7297 46.3908C39.6415 46.3733 39.5605 46.33 39.4969 46.2664C39.4334 46.2028 39.39 46.1218 39.3725 46.0336C39.355 45.9454 39.364 45.854 39.3984 45.7709C39.4328 45.6878 39.4911 45.6168 39.5658 45.5669C39.6406 45.5169 39.7285 45.4902 39.8184 45.4902C39.939 45.4902 40.0547 45.5381 40.1399 45.6234C40.2252 45.7087 40.2731 45.8243 40.2731 45.9449Z" fill="#263238"/>
<path d="M41.5622 45.9449C41.5622 46.0348 41.5355 46.1227 41.4855 46.1975C41.4356 46.2723 41.3646 46.3305 41.2815 46.365C41.1984 46.3994 41.107 46.4084 41.0188 46.3908C40.9306 46.3733 40.8496 46.33 40.786 46.2664C40.7224 46.2028 40.6791 46.1218 40.6616 46.0336C40.644 45.9454 40.653 45.854 40.6874 45.7709C40.7219 45.6878 40.7801 45.6168 40.8549 45.5669C40.9297 45.5169 41.0176 45.4902 41.1075 45.4902C41.2281 45.4902 41.3437 45.5381 41.429 45.6234C41.5143 45.7087 41.5622 45.8243 41.5622 45.9449Z" fill="#263238"/>
<path d="M88.9864 91.8283C88.9864 91.8497 80.0278 91.8657 68.9784 91.8657C57.9291 91.8657 48.9678 91.8497 48.9678 91.8283C48.9678 91.807 57.9251 91.791 68.9784 91.791C80.0318 91.791 88.9864 91.8017 88.9864 91.8283Z" fill="#263238"/>
<path d="M96.9053 60.4521C96.9053 60.4521 96.9053 60.3868 96.9053 60.2614C96.9053 60.1361 96.9053 59.9494 96.9053 59.7068C96.9053 59.2201 96.9053 58.5068 96.8973 57.5908C96.8973 55.7601 96.8893 53.1241 96.8839 49.8921L96.9106 49.9188L79.3293 49.9268L79.3639 49.8921C79.3639 53.6321 79.3639 57.2028 79.3639 60.4521L79.3319 60.4201L91.9826 60.4361L95.6119 60.4441H96.5786H96.8279H96.9146H96.8319H96.5866H95.6253L91.9999 60.4681L79.3333 60.4841H79.3013V60.4521C79.3013 57.2028 79.3013 53.6321 79.3013 49.8921V49.8574H79.3373L96.9186 49.8654H96.9453V49.8921C96.9453 53.1308 96.9346 55.7734 96.9319 57.6081C96.9319 58.5214 96.9319 59.2321 96.9239 59.7174C96.9239 59.9574 96.9239 60.1414 96.9239 60.2668C96.9239 60.3921 96.9053 60.4521 96.9053 60.4521Z" fill="#263238"/>
<path d="M54.4277 83.597C54.4091 83.597 54.3931 75.5196 54.3931 65.557C54.3931 55.5943 54.4091 47.5156 54.4277 47.5156C54.4464 47.5156 54.4637 55.5916 54.4637 65.557C54.4637 75.5223 54.4477 83.597 54.4277 83.597Z" fill="#263238"/>
<path d="M51.8035 53.6309H40.8262V55.4829H51.8035V53.6309Z" fill="#E0E0E0"/>
<path d="M89.725 59.3254L84.245 59.3174C84.1172 59.317 83.9948 59.266 83.9046 59.1755C83.8143 59.0851 83.7637 58.9625 83.7637 58.8347L83.7743 51.452C83.7747 51.3243 83.8257 51.2018 83.9162 51.1116C84.0067 51.0214 84.1292 50.9707 84.257 50.9707H88.089L90.2157 53.0467L90.2077 58.8387C90.2084 58.9025 90.1964 58.9657 90.1724 59.0248C90.1485 59.084 90.113 59.1377 90.0681 59.183C90.0232 59.2283 89.9698 59.2642 89.9109 59.2886C89.8519 59.3131 89.7888 59.3256 89.725 59.3254Z" fill="#536DFE"/>
<g opacity="0.3">
<path d="M88.0889 50.957V52.4237C88.0885 52.5099 88.1052 52.5953 88.1379 52.675C88.1707 52.7548 88.2188 52.8273 88.2797 52.8883C88.3405 52.9494 88.4128 52.9979 88.4924 53.0309C88.572 53.064 88.6573 53.081 88.7435 53.081L90.2102 53.0504L88.0889 50.957Z" fill="white"/>
</g>
<path d="M88.905 57.8643C88.9031 57.8412 88.9031 57.818 88.905 57.7949C88.905 57.7469 88.905 57.6816 88.905 57.6003C88.905 57.4256 88.905 57.1789 88.905 56.8669C88.905 56.2349 88.8984 55.3403 88.893 54.2683L88.9237 54.2989H85.1904L85.225 54.2656V54.7536C85.225 54.9149 85.225 55.0749 85.225 55.2336C85.225 55.5496 85.225 55.8603 85.225 56.1669C85.225 56.7709 85.225 57.3416 85.225 57.8656L85.1944 57.8363L87.8944 57.8549L88.657 57.8643H88.861H88.933C88.9113 57.8662 88.8894 57.8662 88.8677 57.8643H88.6704H87.913L85.1944 57.8763H85.165V57.8456C85.165 57.3216 85.165 56.7509 85.165 56.1469V55.2136C85.165 55.0563 85.165 54.8963 85.165 54.7336V54.2469L85.1997 54.2109L88.933 54.2216H88.9624V54.2509C88.9544 55.3309 88.9477 56.2323 88.9437 56.8683C88.9437 57.1776 88.9437 57.4229 88.9344 57.5949C88.9344 57.6749 88.9344 57.7376 88.9344 57.7843C88.928 57.8121 88.9181 57.8389 88.905 57.8643Z" fill="white"/>
<path d="M86.9999 57.9046C86.9812 57.9046 86.9665 57.1046 86.9679 56.1073C86.9692 55.1099 86.9865 54.3086 87.0052 54.3086C87.0239 54.3086 87.0399 55.1086 87.0372 56.1073C87.0345 57.1059 87.0199 57.9046 86.9999 57.9046Z" fill="white"/>
<path d="M88.8917 56.9827C88.8917 57.0027 88.0516 57.0161 87.0156 57.0147C85.9796 57.0134 85.1396 56.9974 85.1396 56.9774C85.1396 56.9574 85.9796 56.9441 87.0156 56.9454C88.0516 56.9467 88.8917 56.9641 88.8917 56.9827Z" fill="white"/>
<path d="M88.9332 56.0689C88.9332 56.0875 88.0932 56.1022 87.0572 56.1009C86.0212 56.0995 85.1812 56.0822 85.1812 56.0635C85.1812 56.0449 86.0212 56.0289 87.0572 56.0315C88.0932 56.0342 88.9332 56.0475 88.9332 56.0689Z" fill="white"/>
<path d="M88.9091 55.1507C88.9091 55.1694 88.0758 55.184 87.0424 55.1827C86.0091 55.1814 85.1758 55.164 85.1758 55.1454C85.1758 55.1267 86.0091 55.112 87.0424 55.1134C88.0758 55.1147 88.9091 55.136 88.9091 55.1507Z" fill="white"/>
<path d="M97.7437 59.32H92.4691C92.2946 59.3183 92.1277 59.2482 92.0043 59.1248C91.8809 59.0014 91.8108 58.8345 91.8091 58.66V51.36C91.8091 51.1844 91.8784 51.0158 92.002 50.891C92.1256 50.7661 92.2934 50.6951 92.4691 50.6934H95.8144L98.4038 53.36V58.6507C98.4045 58.8268 98.3355 58.9961 98.2118 59.1215C98.0881 59.2469 97.9199 59.3183 97.7437 59.32Z" fill="#455A64"/>
<path d="M95.8145 50.7012V52.7558C95.8145 52.9185 95.8791 53.0745 95.9941 53.1895C96.1091 53.3046 96.2651 53.3692 96.4278 53.3692H98.3998L95.8145 50.7012Z" fill="#455A64"/>
<g opacity="0.2">
<path d="M95.8408 52.9355C95.8413 53.0918 95.8953 53.2431 95.9938 53.3644C96.0923 53.4857 96.2294 53.5696 96.3822 53.6022L96.4475 53.6169C96.7048 53.6622 98.4035 53.9649 98.4035 53.9262V53.3742H96.4275C96.4275 53.3742 95.9342 53.3529 95.8408 52.9355Z" fill="black"/>
</g>
<g opacity="0.3">
<path d="M95.8145 50.7012V52.7558C95.8145 52.9185 95.8791 53.0745 95.9941 53.1895C96.1091 53.3046 96.2651 53.3692 96.4278 53.3692H98.3998L95.8145 50.7012Z" fill="white"/>
</g>
<path d="M95.3716 52.671C95.3716 52.6977 94.8263 52.719 94.1516 52.719C93.477 52.719 92.9316 52.6977 92.9316 52.671C92.9316 52.6444 93.4783 52.623 94.1516 52.623C94.825 52.623 95.3716 52.6444 95.3716 52.671Z" fill="#FAFAFA"/>
<path d="M96.9476 53.8318C96.9476 53.8585 96.049 53.8798 94.9396 53.8798C93.8303 53.8798 92.9316 53.8585 92.9316 53.8318C92.9316 53.8052 93.8303 53.7852 94.9396 53.7852C96.049 53.7852 96.9476 53.8012 96.9476 53.8318Z" fill="#FAFAFA"/>
<path d="M97.3103 54.8039C97.3103 54.8305 96.329 54.8519 95.121 54.8519C93.913 54.8519 92.9316 54.8305 92.9316 54.8039C92.9316 54.7772 93.9116 54.7559 95.121 54.7559C96.3303 54.7559 97.3103 54.7772 97.3103 54.8039Z" fill="#FAFAFA"/>
<path d="M97.3103 55.7185C97.3103 55.7452 96.329 55.7665 95.121 55.7665C93.913 55.7665 92.9316 55.7452 92.9316 55.7185C92.9316 55.6919 93.9116 55.6719 95.121 55.6719C96.3303 55.6719 97.3103 55.6932 97.3103 55.7185Z" fill="#FAFAFA"/>
<path d="M97.3103 56.6339C97.3103 56.6606 96.329 56.6819 95.121 56.6819C93.913 56.6819 92.9316 56.6606 92.9316 56.6339C92.9316 56.6073 93.9116 56.5859 95.121 56.5859C96.3303 56.5859 97.3103 56.6019 97.3103 56.6339Z" fill="#FAFAFA"/>
<path d="M97.3104 57.548C97.3104 57.5747 96.3291 57.596 95.1211 57.596C93.9131 57.596 92.9331 57.5747 92.9331 57.548C92.9331 57.5213 93.9131 57.5 95.1224 57.5C96.3318 57.5 97.3104 57.5213 97.3104 57.548Z" fill="#FAFAFA"/>
<path d="M74.0422 49.7734H61.1982V60.8321H74.0422V49.7734Z" fill="#F5F5F5"/>
<path d="M74.0436 60.8314C74.0436 60.8314 74.0436 60.7608 74.0436 60.6261C74.0436 60.4914 74.0436 60.2928 74.0436 60.0341C74.0436 59.5154 74.0436 58.7581 74.0356 57.7914C74.0356 55.8594 74.0263 53.0994 74.0209 49.7741L74.0503 49.8034H61.2063L61.2409 49.7688C61.2409 53.7821 61.2409 57.5634 61.2409 60.8261L61.2103 60.7954L70.4956 60.8114L73.1196 60.8194H73.8143H74.0556H73.9969H73.8209H73.1316L70.5156 60.8274L61.1996 60.8688H61.1689V60.8381C61.1689 57.5754 61.1689 53.7941 61.1689 49.7808V49.7461H61.1996H74.0436H74.0729V49.7754C74.0663 53.1088 74.0609 55.8754 74.0569 57.8114C74.0569 58.7741 74.0569 59.5301 74.0503 60.0474C74.0503 60.3034 74.0503 60.4994 74.0503 60.6341C74.0503 60.7688 74.0436 60.8314 74.0436 60.8314Z" fill="#263238"/>
<path d="M61.6465 60.8202C61.6332 60.8055 64.3985 58.3215 67.8212 55.2708C71.2439 52.2202 74.0305 49.7588 74.0439 49.7735C74.0572 49.7882 71.2919 52.2722 67.8665 55.3228C64.4412 58.3735 61.6585 60.8335 61.6465 60.8202Z" fill="#263238"/>
<path d="M74.1518 60.8308C74.1384 60.8455 71.2291 58.3815 67.6531 55.3295C64.0771 52.2775 61.1864 49.7882 61.1998 49.7735C61.2131 49.7588 64.1211 52.2215 67.6998 55.2762C71.2784 58.3308 74.1638 60.8162 74.1518 60.8308Z" fill="#263238"/>
<path d="M96.3718 62.9805H85.4092V72.4191H96.3718V62.9805Z" fill="#EBEBEB"/>
<path d="M96.3717 72.4191C96.3717 72.4191 96.3717 72.3578 96.3717 72.2431C96.3717 72.1284 96.3717 71.9578 96.3717 71.7378C96.3717 71.2938 96.3717 70.6471 96.3637 69.8218C96.3637 68.1738 96.3558 65.8218 96.3491 62.9804L96.3784 63.0098H85.4171L85.4518 62.9751C85.4518 66.4004 85.4518 69.6284 85.4518 72.4138L85.4211 72.3831L93.3451 72.3978L95.5838 72.4058H96.1771H96.3304H96.3838H96.1731H95.5851L93.3531 72.4138L85.4091 72.4298H85.3784V72.3991C85.3784 69.6138 85.3784 66.3858 85.3784 62.9604V62.9258H85.4144H96.3758H96.3998V62.9551C96.3998 65.8004 96.3878 68.1551 96.3851 69.8151C96.3851 70.6364 96.3851 71.2818 96.3771 71.7245C96.3771 71.9418 96.3771 72.1084 96.3771 72.2245C96.3771 72.3405 96.3717 72.4191 96.3717 72.4191Z" fill="#263238"/>
<path d="M85.7906 72.4085C85.7786 72.3952 88.1372 70.2752 91.0586 67.6685C93.9799 65.0619 96.3599 62.9659 96.3719 62.9805C96.3839 62.9952 94.0266 65.1139 91.1039 67.7205C88.1812 70.3272 85.8039 72.4232 85.7906 72.4085Z" fill="#263238"/>
<path d="M96.4639 72.4193C96.4519 72.434 93.9666 70.3326 90.9146 67.726C87.8626 65.1193 85.3972 63.002 85.4092 62.9806C85.4212 62.9593 87.9066 65.0673 90.9599 67.6686C94.0132 70.27 96.4772 72.4046 96.4639 72.4193Z" fill="#263238"/>
<path d="M39.4665 54.5559C39.4668 54.6762 39.4313 54.7939 39.3647 54.894C39.298 54.9942 39.2032 55.0723 39.0921 55.1186C38.981 55.1648 38.8587 55.177 38.7407 55.1537C38.6227 55.1304 38.5142 55.0726 38.429 54.9876C38.3439 54.9026 38.2858 54.7943 38.2623 54.6763C38.2387 54.5583 38.2507 54.436 38.2966 54.3249C38.3426 54.2137 38.4205 54.1186 38.5206 54.0518C38.6206 53.9849 38.7382 53.9492 38.8585 53.9492C39.0195 53.9492 39.174 54.0131 39.2879 54.1268C39.4019 54.2406 39.4661 54.3949 39.4665 54.5559Z" fill="#536DFE"/>
<path d="M51.8035 58.0117H40.8262V59.8637H51.8035V58.0117Z" fill="#E0E0E0"/>
<path d="M39.4665 58.9381C39.4665 59.0583 39.4308 59.1759 39.364 59.2759C39.2972 59.3758 39.2023 59.4538 39.0912 59.4998C38.9801 59.5458 38.8578 59.5579 38.7399 59.5344C38.6219 59.5109 38.5136 59.453 38.4286 59.368C38.3435 59.283 38.2856 59.1746 38.2622 59.0567C38.2387 58.9388 38.2508 58.8165 38.2968 58.7054C38.3428 58.5943 38.4207 58.4994 38.5207 58.4325C38.6207 58.3657 38.7382 58.3301 38.8585 58.3301C39.0197 58.3301 39.1744 58.3941 39.2884 58.5082C39.4024 58.6222 39.4665 58.7768 39.4665 58.9381Z" fill="#E0E0E0"/>
<path d="M51.8035 62.3926H40.8262V64.2446H51.8035V62.3926Z" fill="#E0E0E0"/>
<path d="M39.4665 63.3189C39.4665 63.4392 39.4308 63.5567 39.364 63.6567C39.2972 63.7567 39.2023 63.8346 39.0912 63.8807C38.9801 63.9267 38.8578 63.9387 38.7399 63.9153C38.6219 63.8918 38.5136 63.8339 38.4286 63.7489C38.3435 63.6638 38.2856 63.5555 38.2622 63.4376C38.2387 63.3196 38.2508 63.1974 38.2968 63.0863C38.3428 62.9752 38.4207 62.8802 38.5207 62.8134C38.6207 62.7466 38.7382 62.7109 38.8585 62.7109C39.0197 62.7109 39.1744 62.775 39.2884 62.889C39.4024 63.003 39.4665 63.1577 39.4665 63.3189Z" fill="#536DFE"/>
<path d="M51.8035 66.7734H40.8262V68.6254H51.8035V66.7734Z" fill="#E0E0E0"/>
<path d="M39.4665 67.6985C39.4668 67.8188 39.4313 67.9365 39.3647 68.0366C39.298 68.1368 39.2032 68.2149 39.0921 68.2611C38.981 68.3074 38.8587 68.3196 38.7407 68.2963C38.6227 68.273 38.5142 68.2152 38.429 68.1302C38.3439 68.0452 38.2858 67.9369 38.2623 67.8189C38.2387 67.7009 38.2507 67.5786 38.2966 67.4674C38.3426 67.3563 38.4205 67.2612 38.5206 67.1944C38.6206 67.1275 38.7382 67.0918 38.8585 67.0918C39.0195 67.0918 39.174 67.1557 39.2879 67.2694C39.4019 67.3831 39.4661 67.5374 39.4665 67.6985Z" fill="#E0E0E0"/>
<path d="M51.8035 71.1543H40.8262V73.0063H51.8035V71.1543Z" fill="#E0E0E0"/>
<path d="M39.4665 72.0807C39.4665 72.2009 39.4308 72.3185 39.364 72.4184C39.2972 72.5184 39.2023 72.5964 39.0912 72.6424C38.9801 72.6884 38.8578 72.7004 38.7399 72.677C38.6219 72.6535 38.5136 72.5956 38.4286 72.5106C38.3435 72.4255 38.2856 72.3172 38.2622 72.1993C38.2387 72.0813 38.2508 71.9591 38.2968 71.848C38.3428 71.7369 38.4207 71.6419 38.5207 71.5751C38.6207 71.5083 38.7382 71.4727 38.8585 71.4727C39.0197 71.4727 39.1744 71.5367 39.2884 71.6507C39.4024 71.7648 39.4665 71.9194 39.4665 72.0807Z" fill="#E0E0E0"/>
<path d="M51.8035 75.5352H40.8262V77.3872H51.8035V75.5352Z" fill="#E0E0E0"/>
<path d="M39.4665 76.4693C39.4665 76.5896 39.4308 76.7071 39.364 76.8071C39.2972 76.9071 39.2023 76.985 39.0912 77.031C38.9801 77.0771 38.8578 77.0891 38.7399 77.0656C38.6219 77.0422 38.5136 76.9843 38.4286 76.8992C38.3435 76.8142 38.2856 76.7059 38.2622 76.5879C38.2387 76.47 38.2508 76.3478 38.2968 76.2367C38.3428 76.1256 38.4207 76.0306 38.5207 75.9638C38.6207 75.897 38.7382 75.8613 38.8585 75.8613C39.0197 75.8613 39.1744 75.9254 39.2884 76.0394C39.4024 76.1534 39.4665 76.3081 39.4665 76.4693Z" fill="#536DFE"/>
<path d="M82.7103 72.3856C82.7103 72.3856 82.7103 72.3696 82.7103 72.3402C82.7103 72.3109 82.7103 72.2642 82.7103 72.2069C82.7103 72.0896 82.7103 71.9189 82.7103 71.6989C82.7103 71.2536 82.7103 70.6056 82.7023 69.7829C82.7023 68.1389 82.693 65.8002 82.6877 63.0149L82.7183 63.0456H74.7903L74.825 63.0109C74.825 66.4776 74.825 69.6922 74.8183 72.3802L74.7903 72.3509L80.5357 72.3656L82.145 72.3736H82.5703H82.7183H82.577H82.157L80.557 72.3802L74.793 72.3962H74.7637V72.3669C74.7637 69.6789 74.7637 66.4576 74.7637 62.9976V62.9629H74.7983H82.7263H82.757V62.9936C82.7503 65.7936 82.745 68.1322 82.741 69.7816C82.741 70.6002 82.7343 71.2482 82.733 71.6909C82.733 71.9082 82.733 72.0762 82.733 72.1922C82.733 72.2469 82.733 72.2896 82.733 72.3256C82.733 72.3616 82.7103 72.3856 82.7103 72.3856Z" fill="#263238"/>
<path d="M82.7102 74.4492H74.7822V82.3772H82.7102V74.4492Z" fill="#EBEBEB"/>
<path d="M96.9049 74.8145H84.6636V82.7425H96.9049V74.8145Z" fill="#EBEBEB"/>
<path d="M72.6677 63.0156H60.5063V72.385H72.6677V63.0156Z" fill="#EBEBEB"/>
<path d="M72.3692 82.3764C72.3692 82.3764 72.3692 82.3244 72.3692 82.2244C72.3692 82.1244 72.3692 81.9777 72.3692 81.787C72.3692 81.4017 72.3692 80.839 72.3625 80.119C72.3625 78.679 72.3545 76.6137 72.3479 74.0964L72.3759 74.1244L60.2159 74.131L60.2505 74.0964C60.2505 77.051 60.2505 79.8577 60.2505 82.3764L60.2185 82.3457L68.9785 82.3604L71.4812 82.3697H72.1479H72.3799H72.3239H72.1559H71.4959L68.9999 82.3777L60.2185 82.3937H60.1865V82.3617C60.1865 79.843 60.1865 77.0364 60.1865 74.0817V74.0684H60.2225L72.3825 74.075H72.3999V74.103C72.3932 76.627 72.3892 78.699 72.3852 80.143C72.3852 80.8604 72.3852 81.4204 72.3785 81.8044C72.3785 81.9924 72.3785 82.1377 72.3785 82.2377C72.3785 82.3377 72.3692 82.3764 72.3692 82.3764Z" fill="#263238"/>
<path d="M70.2022 65.0085C70.2612 65.0089 70.3196 65.0208 70.3739 65.0437C70.4283 65.0667 70.4777 65.1 70.5191 65.142C70.5606 65.184 70.5934 65.2337 70.6157 65.2884C70.6379 65.343 70.6492 65.4015 70.6489 65.4605V65.8419L70.6235 69.2792C70.6232 69.3578 70.5917 69.4331 70.536 69.4886C70.4802 69.5441 70.4048 69.5752 70.3262 69.5752L62.4595 69.5179C62.384 69.5169 62.3116 69.4871 62.2574 69.4346C62.2031 69.382 62.1709 69.3107 62.1675 69.2352L61.9302 64.8192C61.9278 64.7789 61.9337 64.7385 61.9475 64.7006C61.9614 64.6627 61.9828 64.6279 62.0105 64.5986C62.0382 64.5692 62.0717 64.5459 62.1088 64.5299C62.1459 64.514 62.1858 64.5058 62.2262 64.5059L64.0062 64.5179C64.1748 64.5194 64.3374 64.5808 64.4649 64.6912L64.8289 65.0059L70.2022 65.0085Z" fill="#536DFE"/>
<g opacity="0.3">
<path d="M70.2022 65.0105C70.2612 65.0108 70.3196 65.0228 70.3739 65.0457C70.4283 65.0686 70.4777 65.102 70.5191 65.144C70.5606 65.1859 70.5934 65.2357 70.6157 65.2903C70.6379 65.345 70.6492 65.4035 70.6489 65.4625V65.8438L70.6235 69.2811C70.6232 69.3598 70.5917 69.4351 70.536 69.4905C70.4802 69.546 70.4048 69.5771 70.3262 69.5771L62.4595 69.5198C62.384 69.5189 62.3116 69.4891 62.2574 69.4365C62.2031 69.384 62.1709 69.3126 62.1675 69.2371L61.9302 64.8211C61.9278 64.7808 61.9337 64.7405 61.9475 64.7025C61.9614 64.6646 61.9828 64.6299 62.0105 64.6005C62.0382 64.5712 62.0717 64.5478 62.1088 64.5319C62.1459 64.5159 62.1858 64.5077 62.2262 64.5078L64.0062 64.5198C64.1748 64.5213 64.3374 64.5828 64.4649 64.6931L64.8289 65.0078L70.2022 65.0105Z" fill="black"/>
</g>
<path d="M70.7847 65.4751L62.189 65.4121L62.1509 70.6L70.7467 70.663L70.7847 65.4751Z" fill="#F5F5F5"/>
<path d="M61.5012 65.8742L62.1185 71.2889C62.1234 71.3351 62.1452 71.3779 62.1796 71.4091C62.214 71.4403 62.2587 71.4578 62.3052 71.4582L70.6839 71.5195C70.7317 71.52 70.778 71.5022 70.8132 71.4697C70.8483 71.4373 70.8698 71.3926 70.8732 71.3449L71.3332 65.9355C71.3356 65.9093 71.3325 65.8829 71.3242 65.8579C71.3159 65.8329 71.3024 65.8099 71.2848 65.7903C71.2671 65.7708 71.2456 65.7551 71.2216 65.7443C71.1975 65.7335 71.1715 65.7278 71.1452 65.7275L61.6892 65.6582C61.6621 65.6583 61.6354 65.6643 61.6107 65.6755C61.5861 65.6868 61.5641 65.7033 61.5464 65.7237C61.5286 65.7441 61.5153 65.7681 61.5076 65.7941C61.4998 65.82 61.4976 65.8473 61.5012 65.8742Z" fill="#536DFE"/>
<path d="M86.5265 63.9895L86.5171 73.0215L97.8144 73.0333L97.8239 64.0013L86.5265 63.9895Z" fill="#EBEBEB"/>
<path d="M97.8292 64.004H97.7745H97.6158H97.0025H94.6892H86.5318L86.5612 63.9746C86.5612 66.6626 86.5612 69.744 86.5612 73.0053L86.5292 72.972L97.8265 72.9906L97.7985 73.0173C97.8078 70.2986 97.8159 68.044 97.8199 66.4666C97.8199 65.6786 97.8278 65.06 97.8292 64.636C97.8292 64.4266 97.8292 64.264 97.8292 64.1533C97.8292 64.0426 97.8292 63.9853 97.8292 63.9853C97.8292 63.9853 97.8292 64.04 97.8292 64.148C97.8292 64.256 97.8292 64.4146 97.8292 64.6253C97.8292 65.048 97.8292 65.664 97.8292 66.4506C97.8292 68.0306 97.8292 70.2906 97.8359 73.0173V73.0453H97.8092L86.5118 73.0373H86.4785V73.0053C86.4785 69.744 86.4878 66.6626 86.4918 63.9746V63.9453H86.5332L94.7105 63.9693L97.0158 63.98H97.6238H97.8305L97.8292 64.004Z" fill="#263238"/>
<path d="M86.9155 64.5585L86.9072 72.4531L97.4112 72.4641L97.4195 64.5695L86.9155 64.5585Z" fill="#536DFE"/>
<path d="M86.9131 72.4548L90.5864 67.5508L92.8557 70.6241L94.3984 68.9841L97.4158 72.4668L86.9131 72.4548Z" fill="#536DFE"/>
<path d="M93.8237 66.953C93.8235 67.1165 93.7747 67.2762 93.6837 67.412C93.5926 67.5478 93.4633 67.6536 93.3122 67.7159C93.161 67.7782 92.9948 67.7943 92.8345 67.7622C92.6742 67.73 92.527 67.6511 92.4116 67.5353C92.2962 67.4195 92.2177 67.272 92.186 67.1116C92.1544 66.9512 92.171 66.785 92.2338 66.6341C92.2967 66.4831 92.4028 66.3542 92.5389 66.2636C92.675 66.173 92.8349 66.1247 92.9984 66.125C93.107 66.1252 93.2144 66.1467 93.3147 66.1884C93.4149 66.2301 93.5059 66.2912 93.5826 66.3681C93.6592 66.445 93.7199 66.5362 93.7613 66.6365C93.8027 66.7369 93.8239 66.8444 93.8237 66.953Z" fill="#536DFE"/>
<g opacity="0.2">
<path d="M86.9126 72.4548L90.5859 67.5508L92.8553 70.6241L94.3979 68.9841L97.4153 72.4668L86.9126 72.4548Z" fill="black"/>
</g>
<g opacity="0.2">
<path d="M93.8237 66.953C93.8235 67.1165 93.7747 67.2762 93.6837 67.412C93.5926 67.5478 93.4633 67.6536 93.3122 67.7159C93.161 67.7782 92.9948 67.7943 92.8345 67.7622C92.6742 67.73 92.527 67.6511 92.4116 67.5353C92.2962 67.4195 92.2177 67.272 92.186 67.1116C92.1544 66.9512 92.171 66.785 92.2338 66.6341C92.2967 66.4831 92.4028 66.3542 92.5389 66.2636C92.675 66.173 92.8349 66.1247 92.9984 66.125C93.107 66.1252 93.2144 66.1467 93.3147 66.1884C93.4149 66.2301 93.5059 66.2912 93.5826 66.3681C93.6592 66.445 93.7199 66.5362 93.7613 66.6365C93.8027 66.7369 93.8239 66.8444 93.8237 66.953Z" fill="black"/>
</g>
<path d="M59.5718 50.4844L59.5615 60.2871L71.8228 60.2999L71.8331 50.4973L59.5718 50.4844Z" fill="#EBEBEB"/>
<path d="M71.835 50.5003H71.6004H70.9337H68.423H59.571L59.603 50.4683C59.603 53.387 59.603 56.735 59.595 60.2697L59.559 60.2337L71.8257 60.2537L71.7964 60.283C71.8057 57.3323 71.8137 54.8857 71.819 53.1737C71.819 52.319 71.827 51.647 71.8297 51.187C71.8297 50.9585 71.8297 50.7839 71.8297 50.663C71.8297 50.5443 71.8297 50.4817 71.8297 50.4817C71.8297 50.4817 71.8297 50.5403 71.8297 50.6563C71.8297 50.7723 71.8297 50.9497 71.8297 51.175C71.8297 51.6337 71.8297 52.303 71.8297 53.1563C71.8297 54.871 71.8297 57.3243 71.8297 60.283V60.335H71.8004L59.5337 60.327H59.499V60.291C59.499 56.7523 59.5097 53.4083 59.5137 50.4897V50.459H59.5457L68.419 50.4843L70.9217 50.495H71.5817H71.7497L71.835 50.5003Z" fill="#263238"/>
<path d="M59.9938 51.1039L59.9849 59.6719L71.3849 59.6838L71.3938 51.1158L59.9938 51.1039Z" fill="#536DFE"/>
<path d="M59.9868 59.6729L63.9748 54.3516L66.4361 57.6862L68.1121 55.9062L71.3855 59.6849L59.9868 59.6729Z" fill="#536DFE"/>
<path d="M67.4885 53.7014C67.4882 53.8789 67.4354 54.0523 67.3365 54.1997C67.2377 54.3471 67.0974 54.4619 66.9333 54.5296C66.7693 54.5973 66.5888 54.6148 66.4148 54.5799C66.2408 54.545 66.081 54.4593 65.9557 54.3336C65.8304 54.208 65.7452 54.0479 65.7108 53.8738C65.6765 53.6997 65.6945 53.5193 65.7627 53.3554C65.8308 53.1916 65.946 53.0516 66.0938 52.9532C66.2415 52.8548 66.415 52.8025 66.5925 52.8027C66.7104 52.8029 66.827 52.8263 66.9358 52.8716C67.0446 52.9168 67.1434 52.9831 67.2266 53.0665C67.3098 53.1499 67.3758 53.249 67.4207 53.3579C67.4657 53.4668 67.4887 53.5836 67.4885 53.7014Z" fill="#536DFE"/>
<g opacity="0.2">
<path d="M59.9868 59.6729L63.9748 54.3516L66.4361 57.6862L68.1121 55.9062L71.3855 59.6849L59.9868 59.6729Z" fill="black"/>
</g>
<g opacity="0.2">
<path d="M67.4885 53.7014C67.4882 53.8789 67.4354 54.0523 67.3365 54.1997C67.2377 54.3471 67.0974 54.4619 66.9333 54.5296C66.7693 54.5973 66.5888 54.6148 66.4148 54.5799C66.2408 54.545 66.081 54.4593 65.9557 54.3336C65.8304 54.208 65.7452 54.0479 65.7108 53.8738C65.6765 53.6997 65.6945 53.5193 65.7627 53.3554C65.8308 53.1916 65.946 53.0516 66.0938 52.9532C66.2415 52.8548 66.415 52.8025 66.5925 52.8027C66.7104 52.8029 66.827 52.8263 66.9358 52.8716C67.0446 52.9168 67.1434 52.9831 67.2266 53.0665C67.3098 53.1499 67.3758 53.249 67.4207 53.3579C67.4657 53.4668 67.4887 53.5836 67.4885 53.7014Z" fill="black"/>
</g>
<path d="M70.9415 60.3353H71.6895L71.7588 59.3233L71.8775 58.4326L71.8481 57.002L72.5681 57.774C72.6334 57.8705 72.6733 57.9819 72.6841 58.098L72.8081 60.8326L72.8415 62.002L71.5281 62.8566V61.4646L71.2201 61.1353C71.0287 60.9139 70.929 60.6277 70.9415 60.3353Z" fill="#BD8C83"/>
<path d="M72.5498 59.3223C72.3718 59.0217 72.167 58.7379 71.9378 58.4743C71.8678 58.3841 71.7797 58.3096 71.6791 58.2556C71.6282 58.2297 71.5711 58.2187 71.5142 58.2239C71.4574 58.2291 71.4031 58.2503 71.3578 58.285C71.3139 58.3329 71.2858 58.393 71.2772 58.4574C71.2686 58.5218 71.28 58.5873 71.3098 58.645C71.3721 58.7588 71.4522 58.8619 71.5471 58.9503C71.6425 59.0395 71.7081 59.1559 71.7351 59.2836C71.7363 59.4058 71.716 59.5272 71.6751 59.6423C71.6321 59.8372 71.6394 60.0398 71.6964 60.2311C71.7533 60.4223 71.8579 60.596 72.0005 60.7356" fill="#BD8C83"/>
<path d="M72.0003 60.7348C72.0003 60.7348 71.959 60.6868 71.895 60.6015C71.8046 60.473 71.7402 60.3281 71.7057 60.1748C71.6805 60.0702 71.6706 59.9624 71.6763 59.8548C71.6861 59.7311 71.7103 59.609 71.7483 59.4908C71.7677 59.421 71.7736 59.3482 71.7657 59.2762C71.7534 59.2008 71.7242 59.1293 71.6803 59.0668C71.5963 58.9402 71.4763 58.8455 71.3923 58.7242C71.3499 58.6674 71.3224 58.601 71.3123 58.5308C71.3025 58.4832 71.3077 58.4336 71.3272 58.389C71.3466 58.3444 71.3794 58.3068 71.421 58.2816C71.4626 58.2563 71.5111 58.2445 71.5596 58.2479C71.6082 58.2512 71.6545 58.2695 71.6923 58.3002C71.7947 58.3665 71.8849 58.45 71.959 58.5468C72.0363 58.6362 72.1057 58.7215 72.167 58.8002C72.291 58.9588 72.383 59.0922 72.447 59.1855C72.4768 59.2354 72.5107 59.2826 72.5483 59.3268C72.5277 59.272 72.5009 59.2196 72.4683 59.1708C72.3864 59.033 72.2974 58.8995 72.2017 58.7708C72.1417 58.6895 72.0683 58.6015 71.9977 58.5042C71.9208 58.399 71.8255 58.3086 71.7163 58.2375C71.6514 58.2009 71.5774 58.1838 71.503 58.1882C71.4626 58.1896 71.4231 58.2 71.3871 58.2184C71.3512 58.2368 71.3197 58.2629 71.295 58.2948C71.2535 58.3657 71.2349 58.4476 71.2416 58.5294C71.2482 58.6112 71.2799 58.689 71.3323 58.7522C71.4243 58.8855 71.5443 58.9788 71.6217 59.0948C71.6603 59.1488 71.6863 59.2108 71.6977 59.2762C71.7054 59.3401 71.7004 59.4049 71.683 59.4668C71.6457 59.5895 71.6234 59.7162 71.6163 59.8442C71.6074 60.1204 71.6972 60.3908 71.8697 60.6068C71.8969 60.6411 71.9268 60.6732 71.959 60.7028C71.9843 60.7268 72.0003 60.7348 72.0003 60.7348Z" fill="#896360"/>
<path d="M77.3776 94.1627L77.9216 96.8293C77.9216 96.8293 75.3962 98.2773 75.4496 98.78L80.6496 97.9093L79.9722 93.7227L77.3776 94.1627Z" fill="#536DFE"/>
<g opacity="0.3">
<path d="M77.3776 94.1627L77.9216 96.8293C77.9216 96.8293 75.3962 98.2773 75.4496 98.78L80.6496 97.9093L79.9722 93.7227L77.3776 94.1627Z" fill="black"/>
</g>
<path d="M79.4937 96.3354C79.5463 96.342 79.5947 96.3678 79.6294 96.4079C79.6641 96.4481 79.6828 96.4997 79.6817 96.5527C79.6757 96.6047 79.6502 96.6524 79.6103 96.6863C79.5705 96.7202 79.5193 96.7377 79.467 96.7354C79.4111 96.7284 79.3598 96.7007 79.3232 96.6578C79.2867 96.6148 79.2676 96.5597 79.2697 96.5034C79.2807 96.4488 79.3124 96.4006 79.3581 96.3688C79.4038 96.337 79.46 96.324 79.515 96.3327" fill="#E0E0E0"/>
<path d="M80.6539 97.9069L80.5699 97.4883L75.6113 98.4789C75.6113 98.4789 75.3966 98.6189 75.4499 98.7776L80.6539 97.9069Z" fill="#263238"/>
<path d="M77.8339 96.815C77.8339 96.8404 77.9673 96.8297 78.1006 96.891C78.2339 96.9524 78.3246 97.047 78.3459 97.0337C78.3673 97.0204 78.3059 96.879 78.1366 96.8084C77.9673 96.7377 77.8246 96.7924 77.8339 96.815Z" fill="#263238"/>
<path d="M77.3258 97.1342C77.3258 97.1608 77.4404 97.1848 77.5458 97.2781C77.6511 97.3715 77.6938 97.4808 77.7191 97.4755C77.7444 97.4702 77.7364 97.3235 77.6044 97.2088C77.4724 97.0942 77.3218 97.1062 77.3258 97.1342Z" fill="#263238"/>
<path d="M77.1243 97.8358C77.1483 97.8358 77.163 97.7025 77.0736 97.5772C76.9843 97.4518 76.8576 97.4132 76.8496 97.4358C76.8416 97.4585 76.9296 97.5212 77.0003 97.6278C77.071 97.7345 77.099 97.8385 77.1243 97.8358Z" fill="#263238"/>
<path d="M77.7765 96.1931C77.7912 96.2145 77.9019 96.1598 78.0432 96.1451C78.1845 96.1305 78.3099 96.1571 78.3179 96.1331C78.3259 96.1091 78.2045 96.0371 78.0339 96.0558C77.8632 96.0745 77.7605 96.1745 77.7765 96.1931Z" fill="#263238"/>
<path d="M79.0922 94.7722L79.1855 97.4909C79.1855 97.4909 76.4549 98.4989 76.4229 99.0029L81.7002 99.0109L81.7282 94.7695L79.0922 94.7722Z" fill="#536DFE"/>
<path d="M80.8178 97.2677C80.8689 97.283 80.9125 97.3167 80.9401 97.3623C80.9677 97.4079 80.9773 97.4621 80.9671 97.5144C80.9536 97.5657 80.9208 97.6098 80.8757 97.6376C80.8305 97.6654 80.7764 97.6747 80.7245 97.6637C80.6696 97.6473 80.623 97.6106 80.594 97.5611C80.5651 97.5116 80.5559 97.453 80.5685 97.3971C80.587 97.3446 80.6251 97.3014 80.6749 97.2766C80.7246 97.2517 80.7821 97.2471 80.8351 97.2637" fill="#E0E0E0"/>
<path d="M81.7003 99.01L81.687 98.582L76.6323 98.734C76.6323 98.734 76.3963 98.8354 76.423 99.0007L81.7003 99.01Z" fill="#263238"/>
<path d="M79.1002 97.4645C79.1002 97.4898 79.2336 97.5018 79.3562 97.5845C79.4789 97.6671 79.5509 97.7765 79.5749 97.7658C79.5989 97.7551 79.5602 97.6071 79.4056 97.5098C79.2509 97.4125 79.0949 97.4405 79.1002 97.4645Z" fill="#263238"/>
<path d="M78.5472 97.6916C78.5405 97.7169 78.6525 97.7609 78.7405 97.8689C78.8285 97.9769 78.8525 98.0942 78.8738 98.0929C78.8952 98.0916 78.9165 97.9462 78.8058 97.8129C78.6952 97.6796 78.5472 97.6676 78.5472 97.6916Z" fill="#263238"/>
<path d="M78.2311 98.3534C78.2551 98.3601 78.2911 98.2308 78.2311 98.0868C78.1711 97.9428 78.0444 97.8894 78.0338 97.9108C78.0231 97.9321 78.0964 98.0081 78.1484 98.1241C78.2004 98.2401 78.2058 98.3508 78.2311 98.3534Z" fill="#263238"/>
<path d="M79.1485 96.8421C79.1592 96.8661 79.2818 96.8301 79.4232 96.8421C79.5645 96.8541 79.6818 96.8981 79.6898 96.8767C79.6978 96.8554 79.5938 96.7621 79.4232 96.7527C79.2525 96.7434 79.1352 96.8221 79.1485 96.8421Z" fill="#263238"/>
<path d="M82.4576 73.5977L82.4323 76.2883L81.7789 84.6537C81.7789 84.6537 82.1003 88.7177 82.3003 91.011C82.4736 93.0017 82.1336 96.4683 82.1336 96.4683L78.7749 96.4377L77.6736 84.8683L76.9949 77.6523L75.7949 73.8937L82.4576 73.5977Z" fill="#263238"/>
<path d="M74.1698 74.348L74.1431 85.2746C74.1411 85.8316 74.241 86.3842 74.4378 86.9053L77.4578 94.892L77.6098 95.4253L79.6204 94.9573L78.2804 73.668L74.1698 74.348Z" fill="#263238"/>
<path d="M77.0162 76.2305C77.0148 76.2482 77.0148 76.2661 77.0162 76.2838C77.0162 76.3211 77.0162 76.3718 77.0162 76.4371C77.0162 76.5705 77.0229 76.7745 77.0269 77.0291C77.0362 77.5425 77.0629 78.2851 77.1029 79.2038C77.1882 81.0385 77.3536 83.5718 77.6229 86.3598C77.8922 89.1478 78.1856 91.6678 78.4002 93.4905C78.5109 94.3985 78.6002 95.1345 78.6669 95.6465C78.6989 95.8985 78.7242 96.0945 78.7416 96.2331C78.7496 96.2971 78.7576 96.3478 78.7616 96.3851C78.7656 96.4225 78.7709 96.4371 78.7709 96.4371C78.7724 96.4194 78.7724 96.4015 78.7709 96.3838C78.7709 96.3465 78.7629 96.2958 78.7562 96.2305C78.7416 96.0971 78.7202 95.8958 78.6936 95.6438C78.6362 95.1305 78.5536 94.3931 78.4509 93.4838C78.2442 91.6598 77.9536 89.1425 77.6896 86.3531C77.4256 83.5638 77.2469 81.0345 77.1562 79.2011C77.1096 78.2838 77.0762 77.5411 77.0602 77.0278C77.0496 76.7745 77.0416 76.5758 77.0362 76.4371C77.0362 76.3718 77.0362 76.3211 77.0282 76.2825C77.026 76.2648 77.022 76.2473 77.0162 76.2305Z" fill="#455A64"/>
<path d="M79.915 74.3342C79.913 74.376 79.9175 74.4179 79.9284 74.4582C79.9488 74.5693 79.9796 74.6782 80.0204 74.7836C80.1534 75.1362 80.377 75.4476 80.6687 75.6864C80.9603 75.9251 81.3097 76.0828 81.6817 76.1436C81.7931 76.1625 81.9061 76.171 82.019 76.1689C82.0603 76.1719 82.1018 76.1678 82.1417 76.1569C82.1417 76.1462 81.9657 76.1569 81.6897 76.0996C81.3294 76.029 80.9921 75.8703 80.708 75.6376C80.424 75.405 80.2019 75.1056 80.0617 74.7662C79.9524 74.5022 79.927 74.3262 79.915 74.3342Z" fill="#455A64"/>
<path d="M76.8164 74.8107C76.8161 74.845 76.8261 74.8785 76.8449 74.9072C76.8637 74.9358 76.8906 74.9583 76.9222 74.9716C76.9538 74.985 76.9886 74.9887 77.0223 74.9823C77.0559 74.9758 77.0869 74.9596 77.1114 74.9355C77.1358 74.9115 77.1525 74.8807 77.1595 74.8471C77.1664 74.8136 77.1633 74.7787 77.1504 74.7469C77.1375 74.7151 77.1155 74.6879 77.0871 74.6686C77.0588 74.6494 77.0254 74.6389 76.9911 74.6387C76.9683 74.6385 76.9457 74.6428 76.9246 74.6514C76.9035 74.6599 76.8843 74.6725 76.8681 74.6885C76.8519 74.7045 76.839 74.7235 76.8301 74.7444C76.8212 74.7654 76.8166 74.7879 76.8164 74.8107Z" fill="#455A64"/>
<path d="M74.1136 76.148C74.2035 76.0868 74.284 76.0127 74.3523 75.928C74.5272 75.7314 74.6719 75.5099 74.7816 75.2707C74.891 75.0316 74.9646 74.7778 75.0003 74.5174C75.02 74.4105 75.0236 74.3013 75.011 74.1934C75.0003 74.1934 74.9923 74.316 74.9563 74.5107C74.8625 75.0191 74.6434 75.4962 74.319 75.8987C74.195 76.0534 74.107 76.14 74.1136 76.148Z" fill="#455A64"/>
<path d="M76.1336 60.5293C76.1336 60.5293 75.2003 61.28 74.839 62.1186C74.5215 62.8015 74.1622 63.4641 73.763 64.1026L73.0416 61.66L71.2163 62.568C71.2163 62.568 71.847 66.4013 71.991 66.8493C72.1883 67.4693 72.6456 68.0213 73.3456 67.944C74.0456 67.8666 74.455 67.544 74.9043 66.8773L75.507 65.7453L76.1336 60.5293Z" fill="#536DFE"/>
<path d="M80.6804 58.8477C80.6804 58.8477 83.331 60.101 83.8937 60.861C84.5764 61.7837 82.7804 64.797 82.6524 65.5397C82.5897 65.8957 82.195 68.5743 82.4377 70.677C82.5958 72.0758 82.672 73.4826 82.6657 74.8903L74.1697 74.349C74.1444 72.869 74.5084 71.721 74.731 69.8383L75.2644 63.697L76.1337 60.5303L77.435 59.9543L80.6804 58.8477Z" fill="#536DFE"/>
<path d="M75.403 62.6582C75.3953 62.6787 75.3908 62.7003 75.3897 62.7222C75.3817 62.7729 75.3737 62.8355 75.363 62.9102C75.3403 63.0729 75.3123 63.3102 75.279 63.6022C75.2123 64.1862 75.1283 64.9955 75.0497 65.8902C74.971 66.7849 74.9163 67.5955 74.8763 68.1822C74.8577 68.4755 74.8457 68.7155 74.839 68.8782C74.839 68.9542 74.839 69.0115 74.8323 69.0675C74.83 69.0897 74.83 69.112 74.8323 69.1342C74.8395 69.1131 74.8436 69.0911 74.8443 69.0689C74.8443 69.0182 74.855 68.9555 74.863 68.8795C74.8777 68.7062 74.8977 68.4715 74.9217 68.1862C74.9723 67.5902 75.0403 66.7862 75.115 65.8955C75.1897 65.0049 75.2697 64.2022 75.3243 63.6075C75.3497 63.3209 75.371 63.0862 75.387 62.9129C75.387 62.8369 75.3977 62.7795 75.4017 62.7235C75.4056 62.702 75.4061 62.6799 75.403 62.6582Z" fill="#263238"/>
<path d="M81.8046 63.1758C81.8166 63.1758 81.8046 62.9998 81.8552 62.7238C81.92 62.3652 82.0721 62.0281 82.2981 61.7423C82.5242 61.4565 82.8172 61.2308 83.1512 61.0852C83.4072 60.9732 83.5819 60.9438 83.5792 60.9318C83.5378 60.9306 83.4965 60.9356 83.4566 60.9465C83.3462 60.9684 83.2382 61.0005 83.1339 61.0425C82.7849 61.18 82.4785 61.4073 82.2458 61.7014C82.013 61.9955 81.8622 62.3459 81.8086 62.7172C81.7918 62.8283 81.7856 62.9408 81.7899 63.0532C81.7888 63.0945 81.7937 63.1359 81.8046 63.1758Z" fill="#263238"/>
<path d="M76.2164 70.4023C76.2722 70.3987 76.3275 70.3897 76.3817 70.3756C76.5305 70.345 76.6774 70.3058 76.8217 70.2583C77.0369 70.188 77.2476 70.1042 77.4524 70.0076C77.7018 69.8874 77.9424 69.7498 78.1724 69.5956C78.4006 69.4382 78.6172 69.2644 78.8204 69.0756C78.9856 68.9215 79.1406 68.7567 79.2844 68.5823C79.3799 68.4646 79.469 68.3418 79.551 68.2143C79.5848 68.1697 79.6134 68.1214 79.6364 68.0703C79.6257 68.0703 79.4937 68.2623 79.243 68.5516C79.0961 68.7207 78.9394 68.881 78.7737 69.0316C78.3689 69.4018 77.9131 69.712 77.4204 69.953C77.2192 70.0532 77.0127 70.1422 76.8017 70.2196C76.4457 70.3356 76.2124 70.3903 76.2164 70.4023Z" fill="#263238"/>
<g opacity="0.3">
<path d="M82.2324 64.9473C82.8337 68.1913 82.6137 71.6326 81.8324 74.8366L81.6151 74.8219C81.3791 71.5353 81.6484 68.1926 82.2324 64.9473Z" fill="black"/>
</g>
<path d="M82.1003 75.4785L82.0496 76.2198C82.0496 76.2198 81.4856 76.5265 81.2856 76.7372C81.0856 76.9478 80.5083 78.0638 80.5083 78.0638C80.5619 78.1138 80.6313 78.1433 80.7044 78.1472C80.7776 78.1511 80.8497 78.1291 80.9083 78.0852C81.0598 77.8977 81.1966 77.6989 81.3176 77.4905C81.3697 77.4793 81.4238 77.4813 81.4749 77.4964C81.5259 77.5114 81.5725 77.539 81.6101 77.5767C81.6478 77.6144 81.6754 77.6609 81.6905 77.712C81.7055 77.7631 81.7075 77.8171 81.6963 77.8692C81.6256 78.2012 81.5443 78.5878 81.543 78.6398C81.5416 78.6918 81.2176 79.0145 80.9723 79.2465C80.9398 79.2777 80.918 79.3184 80.9102 79.3628C80.9023 79.4072 80.9089 79.4529 80.9288 79.4933C80.9487 79.5337 80.981 79.5667 81.0209 79.5876C81.0609 79.6084 81.1064 79.616 81.151 79.6092C81.1696 79.6052 81.1868 79.596 81.2003 79.5825C81.2003 79.5825 81.1776 79.9358 81.6576 79.6465C81.6576 79.6465 82.0883 79.7438 82.295 79.4958C82.295 79.4958 82.8283 79.4132 83.0096 79.2572C83.191 79.1012 83.5883 77.4958 83.5883 77.4958L83.8056 75.7892L82.1003 75.4785Z" fill="#BD8C83"/>
<path d="M82.1871 78.041C82.2009 78.1374 82.2009 78.2353 82.1871 78.3317C82.1734 78.5663 82.1054 78.7945 81.9885 78.9984C81.8527 79.1913 81.6689 79.3452 81.4551 79.445C81.3723 79.4947 81.2824 79.5316 81.1885 79.5543C81.2614 79.4935 81.341 79.4412 81.4258 79.3984C81.6213 79.2896 81.7902 79.1389 81.9205 78.957C82.0314 78.7594 82.1025 78.542 82.1298 78.317C82.1388 78.2232 82.158 78.1307 82.1871 78.041Z" fill="#896360"/>
<path d="M82.5552 78.2305C82.5807 78.3171 82.5849 78.4086 82.5672 78.4971C82.5579 78.5929 82.5414 78.6878 82.5179 78.7811C82.4917 78.8986 82.4423 79.0097 82.3726 79.1078C82.293 79.1964 82.2035 79.2756 82.1059 79.3438L81.8806 79.5091C81.8146 79.5646 81.7403 79.6096 81.6606 79.6425C81.6539 79.6345 81.7259 79.5665 81.8472 79.4625C81.9072 79.4105 81.9806 79.3478 82.0632 79.2825C82.1523 79.2147 82.2345 79.1384 82.3086 79.0545C82.3713 78.9641 82.4166 78.8628 82.4419 78.7558C82.4712 78.6545 82.4912 78.5611 82.5059 78.4825C82.5446 78.3358 82.5446 78.2318 82.5552 78.2305Z" fill="#896360"/>
<path d="M82.9615 78.4824C82.9908 78.4824 82.9215 78.7758 82.8162 79.1131C82.8006 79.1595 82.7735 79.2012 82.7375 79.2344C82.7085 79.2642 82.6778 79.2923 82.6455 79.3184C82.5918 79.3622 82.5342 79.401 82.4735 79.4344C82.3695 79.4918 82.2962 79.5051 82.2922 79.4958C82.2882 79.4864 82.3535 79.4558 82.4455 79.3891C82.4994 79.3507 82.551 79.3093 82.6002 79.2651C82.6282 79.2398 82.6575 79.2131 82.6842 79.1838C82.7115 79.1577 82.7325 79.1258 82.7455 79.0904C82.7975 78.9184 82.8508 78.7678 82.8895 78.6571C82.9061 78.5961 82.9303 78.5374 82.9615 78.4824Z" fill="#896360"/>
<path d="M83.8938 60.8594C83.8938 60.8594 84.9378 62.1127 84.9605 63.1487C84.9831 64.1847 85.3125 70.882 85.3125 70.882L83.9791 76.482L81.6885 75.9487L82.4005 70.0487L82.2351 64.946L83.8938 60.8594Z" fill="#536DFE"/>
<path d="M83.9778 76.4794C83.9655 76.4735 83.9525 76.469 83.9392 76.4661L83.8205 76.4354L83.3645 76.3208L81.6925 75.9208L81.7112 75.9488L82.2845 71.4941C82.3352 71.0874 82.3858 70.6941 82.4338 70.3074C82.3792 68.7074 82.3312 67.2941 82.3005 66.2794C82.2805 65.7794 82.2645 65.3754 82.2538 65.0914C82.2472 64.9581 82.2418 64.8501 82.2378 64.7728C82.2378 64.7394 82.2378 64.7114 82.2378 64.6901C82.2395 64.6809 82.2395 64.6714 82.2378 64.6621C82.2367 64.6714 82.2367 64.6808 82.2378 64.6901V64.7728C82.2378 64.8501 82.2378 64.9568 82.2378 65.0928C82.2445 65.3768 82.2552 65.7794 82.2658 66.2808C82.2952 67.2968 82.3365 68.7061 82.3818 70.3088C82.3325 70.6914 82.2818 71.0901 82.2298 71.4968C82.0165 73.2088 81.8218 74.7728 81.6738 75.9528V75.9754H81.6952L83.3738 76.3594L83.8312 76.4594L83.9512 76.4848C83.9601 76.4835 83.969 76.4817 83.9778 76.4794Z" fill="#263238"/>
<g opacity="0.3">
<path d="M78.5338 70.5664C77.6515 70.948 76.7042 71.1571 75.7432 71.1824C75.8925 71.3997 76.1698 71.4491 76.4325 71.4624C76.6921 71.4807 76.9528 71.4513 77.2018 71.3757C77.6832 71.2197 78.2485 70.9757 78.5352 70.5664" fill="black"/>
</g>
<g opacity="0.3">
<path d="M73.7643 64.1074C73.8886 64.7248 73.9133 65.3582 73.8376 65.9834C73.8352 66.0617 73.8092 66.1375 73.7629 66.2008C73.7515 66.2163 73.7369 66.2293 73.7199 66.2386C73.703 66.248 73.6843 66.2536 73.665 66.255C73.6457 66.2563 73.6264 66.2535 73.6083 66.2467C73.5902 66.2399 73.5738 66.2292 73.5603 66.2154C73.5447 66.1867 73.536 66.1548 73.5348 66.1222C73.5336 66.0896 73.5401 66.0571 73.5536 66.0274C73.7353 65.4046 73.8066 64.7548 73.7643 64.1074Z" fill="black"/>
</g>
<path d="M75.151 53.8513C75.271 53.5633 75.6084 53.346 75.6297 53.2553C75.687 53.0167 75.4764 52.7633 75.5484 52.53C75.719 51.9807 76.1657 52.0447 76.1657 52.0447C76.3644 51.7953 76.6337 51.466 77.0764 51.3433C77.5577 51.21 78.267 51.106 78.7004 51.3513C79.1337 51.5967 79.4537 51.7607 79.6004 52.238L76.647 57.642C76.2964 57.486 76.0724 57.1327 75.9377 56.7727C75.803 56.4127 75.7377 56.03 75.5897 55.6753C75.479 55.4087 75.5897 54.986 75.347 54.8327C75.0457 54.6393 75.0404 54.1153 75.151 53.8513Z" fill="#263238"/>
<path d="M76.151 54.3141C76.1782 53.7246 76.4266 53.167 76.8468 52.7526C77.2669 52.3381 77.8278 52.0973 78.4177 52.0781H78.539C79.851 52.1101 80.5577 53.2421 80.4883 54.5528L80.675 58.8501L78.4857 60.3768C77.7457 60.9515 77.439 60.5101 77.4297 59.9568L77.4083 58.7288C77.4083 58.7288 76.143 58.5755 76.0843 57.3181C76.0537 56.7061 76.0977 55.4501 76.151 54.3141Z" fill="#BD8C83"/>
<path d="M76.5576 55.3889C76.559 55.4358 76.5785 55.4804 76.6121 55.5132C76.6457 55.546 76.6907 55.5646 76.7376 55.5649C76.7605 55.5658 76.7834 55.5621 76.8049 55.554C76.8263 55.5459 76.846 55.5336 76.8626 55.5179C76.8793 55.5021 76.8926 55.4831 76.9018 55.4621C76.911 55.4411 76.9159 55.4185 76.9163 55.3956C76.9152 55.3489 76.896 55.3044 76.8626 55.2718C76.8292 55.2392 76.7843 55.2209 76.7376 55.2209C76.7147 55.2198 76.6918 55.2233 76.6703 55.2313C76.6487 55.2392 76.629 55.2513 76.6122 55.267C76.5954 55.2826 76.582 55.3015 76.5726 55.3224C76.5632 55.3433 76.5581 55.366 76.5576 55.3889Z" fill="#263238"/>
<path d="M76.4233 54.9876C76.4473 55.0103 76.5793 54.905 76.7726 54.8996C76.9659 54.8943 77.1113 54.985 77.1313 54.961C77.1513 54.937 77.1166 54.909 77.0539 54.865C76.9683 54.8099 76.8676 54.7829 76.7659 54.7876C76.6651 54.7903 76.5679 54.8254 76.4886 54.8876C76.4313 54.9343 76.4126 54.9783 76.4233 54.9876Z" fill="#263238"/>
<path d="M78.2979 55.3889C78.2992 55.4358 78.3188 55.4804 78.3523 55.5132C78.3859 55.546 78.4309 55.5646 78.4778 55.5649C78.5008 55.5658 78.5236 55.5621 78.5451 55.554C78.5666 55.5459 78.5862 55.5336 78.6029 55.5179C78.6195 55.5021 78.6328 55.4831 78.642 55.4621C78.6513 55.4411 78.6562 55.4185 78.6565 55.3956C78.6558 55.3488 78.6366 55.3041 78.6032 55.2714C78.5697 55.2387 78.5247 55.2205 78.4778 55.2209C78.4549 55.2198 78.432 55.2233 78.4105 55.2313C78.389 55.2392 78.3692 55.2513 78.3524 55.267C78.3357 55.2826 78.3222 55.3015 78.3128 55.3224C78.3035 55.3433 78.2984 55.366 78.2979 55.3889Z" fill="#263238"/>
<path d="M78.2962 54.9851C78.3189 55.0077 78.4549 54.9064 78.6482 54.9051C78.8415 54.9037 78.9842 54.9997 79.0055 54.9757C79.0269 54.9517 78.9922 54.9237 78.9309 54.8797C78.8468 54.8215 78.7465 54.7912 78.6442 54.7931C78.5433 54.7934 78.4452 54.8261 78.3642 54.8864C78.3055 54.9317 78.2855 54.9744 78.2962 54.9851Z" fill="#263238"/>
<path d="M77.6909 56.3511C77.588 56.3226 77.4818 56.3074 77.3749 56.3058C77.3256 56.3058 77.2789 56.2938 77.2696 56.2604C77.2631 56.2094 77.2729 56.1576 77.2976 56.1124C77.3389 55.9911 77.3843 55.8644 77.4309 55.7311C77.6149 55.1898 77.7469 54.7444 77.7256 54.7364C77.7043 54.7284 77.5363 55.1631 77.3509 55.7058L77.2243 56.0884C77.1952 56.149 77.1881 56.2179 77.2043 56.2831C77.2118 56.3005 77.2234 56.3158 77.238 56.3278C77.2526 56.3399 77.2698 56.3483 77.2883 56.3524C77.3157 56.3597 77.344 56.3629 77.3723 56.3618C77.4785 56.3717 77.5856 56.3682 77.6909 56.3511Z" fill="#263238"/>
<path d="M78.2842 54.3046C78.3109 54.354 78.4989 54.3046 78.7269 54.294C78.9549 54.2833 79.1469 54.3206 79.1695 54.27C79.1789 54.2446 79.1402 54.2006 79.0602 54.162C78.9538 54.1132 78.8371 54.0907 78.7202 54.0966C78.6029 54.1003 78.4882 54.1319 78.3855 54.1886C78.3082 54.234 78.2669 54.2806 78.2842 54.3046Z" fill="#263238"/>
<path d="M76.4006 54.3413C76.4406 54.384 76.5899 54.3333 76.7712 54.324C76.9526 54.3146 77.1072 54.3426 77.1406 54.296C77.1552 54.2733 77.1299 54.2293 77.0619 54.1906C76.968 54.1433 76.8633 54.1217 76.7584 54.128C76.6535 54.1344 76.5521 54.1684 76.4646 54.2266C76.4006 54.2746 76.3792 54.32 76.4006 54.3413Z" fill="#263238"/>
<path d="M79.5044 52.1479C79.5077 52.2879 79.48 52.4269 79.4233 52.555C79.3666 52.6831 79.2824 52.7971 79.1765 52.8888C79.0706 52.9806 78.9458 53.0478 78.8109 53.0856C78.6761 53.1235 78.5345 53.1311 78.3964 53.1079C78.183 53.0732 77.947 52.9745 77.7657 53.0865C77.5844 53.1985 77.5697 53.5012 77.4004 53.6532C77.159 53.8705 76.7644 53.6772 76.455 53.7745C76.215 53.8505 76.0684 54.0825 75.911 54.2799C75.7537 54.4772 75.5177 54.6639 75.2764 54.5959C75.2803 54.3787 75.3084 54.1627 75.3604 53.9519C75.4142 53.7381 75.5405 53.5496 75.7177 53.4185C75.815 53.3519 75.931 53.3105 76.0217 53.2345C76.219 53.0692 76.2604 52.7879 76.3804 52.5599C76.4592 52.4138 76.5717 52.2885 76.7085 52.1944C76.8452 52.1003 77.0024 52.04 77.167 52.0185C77.4417 51.9865 77.7244 52.0639 77.991 51.9919C78.187 51.9385 78.3577 51.8079 78.5577 51.7665C78.9457 51.6852 79.3124 51.9585 79.6004 52.2332" fill="#263238"/>
<path d="M78.2668 52.7243C78.4401 52.6709 78.8001 52.5523 78.8868 52.3989C78.9781 52.2344 79.1112 52.0968 79.2728 52.0004C79.4344 51.9039 79.6186 51.8519 79.8068 51.8496C79.9959 51.8621 80.1759 51.9353 80.32 52.0583C80.4641 52.1813 80.5647 52.3475 80.6068 52.5323C80.8348 52.5367 81.0573 52.6024 81.2511 52.7225C81.4449 52.8426 81.6028 53.0127 81.7081 53.2149C81.8169 53.4271 81.8722 53.6626 81.8694 53.9009C81.8666 54.1393 81.8058 54.3734 81.6921 54.5829C81.6195 54.6826 81.5736 54.7992 81.5588 54.9216C81.5588 55.0763 81.6761 55.1976 81.7601 55.3216C81.9868 55.6683 81.9775 56.1483 81.8135 56.5323C81.6495 56.9163 81.5308 57.0523 81.2895 57.1323C80.8175 57.2896 80.7641 57.9536 80.5828 58.1403L80.3068 55.4203C80.2842 55.4339 80.2594 55.4434 80.2335 55.4483C79.7668 55.5629 79.6908 54.6483 79.7908 54.3816C79.6111 54.241 79.4503 54.0779 79.3121 53.8963C79.1578 53.6062 79.0781 53.2822 79.0801 52.9536C78.9135 52.9723 78.1908 52.7469 78.2668 52.7243Z" fill="#263238"/>
<path d="M80.2431 55.4425C80.2645 55.4318 81.0991 55.1572 81.1018 56.0185C81.1045 56.8798 80.2378 56.7038 80.2365 56.6852C80.2351 56.6665 80.2431 55.4425 80.2431 55.4425Z" fill="#BD8C83"/>
<path d="M80.4992 56.3521C80.4992 56.3521 80.5139 56.3628 80.5392 56.3748C80.5752 56.3891 80.6153 56.3891 80.6512 56.3748C80.707 56.3396 80.7523 56.2901 80.7825 56.2315C80.8128 56.1729 80.8268 56.1073 80.8232 56.0415C80.8247 55.9677 80.8101 55.8944 80.7806 55.8268C80.7723 55.8 80.7577 55.7756 80.7379 55.7556C80.7182 55.7357 80.694 55.7208 80.6672 55.7121C80.6501 55.7074 80.6317 55.7089 80.6156 55.7165C80.5995 55.7241 80.5866 55.7372 80.5792 55.7535C80.5672 55.7775 80.5792 55.7948 80.5686 55.7961C80.5579 55.7975 80.5499 55.7815 80.5566 55.7468C80.5615 55.7255 80.5732 55.7063 80.5899 55.6921C80.612 55.6751 80.6394 55.6666 80.6672 55.6681C80.7026 55.6754 80.7355 55.6914 80.763 55.7147C80.7905 55.738 80.8117 55.7678 80.8246 55.8015C80.8614 55.876 80.8797 55.9584 80.8779 56.0415C80.8823 56.1183 80.8639 56.1948 80.825 56.2612C80.7861 56.3276 80.7284 56.3811 80.6592 56.4148C80.6367 56.4208 80.6131 56.4219 80.5901 56.418C80.5671 56.4141 80.5452 56.4053 80.5259 56.3921C80.5006 56.3735 80.4966 56.3535 80.4992 56.3521Z" fill="#896360"/>
<path d="M77.4058 58.7258C77.4058 58.7258 78.5498 58.5311 79.2098 58.0098C79.2098 58.0098 78.8751 59.0658 77.4138 59.1204L77.4058 58.7258Z" fill="#896360"/>
<path d="M78.1936 56.4688C78.1616 56.4688 78.1683 56.6808 77.9923 56.8381C77.8163 56.9954 77.5923 56.9794 77.5923 57.0101C77.5923 57.0407 77.6443 57.0488 77.7403 57.0488C77.8653 57.0454 77.9852 56.9982 78.079 56.9154C78.1686 56.8362 78.224 56.7253 78.2336 56.6061C78.2336 56.5141 78.2083 56.4688 78.1936 56.4688Z" fill="#263238"/>
<path d="M77.3258 55.2407C77.3192 55.2407 77.3258 55.1727 77.2885 55.0567C77.2422 54.8963 77.1443 54.7556 77.0098 54.6567C76.9007 54.5749 76.7709 54.5251 76.635 54.5129C76.4992 54.5008 76.3626 54.5266 76.2406 54.5877C76.1186 54.6487 76.0161 54.7425 75.9444 54.8585C75.8727 54.9746 75.8347 55.1083 75.8347 55.2447C75.8347 55.3811 75.8727 55.5148 75.9444 55.6308C76.0161 55.7468 76.1186 55.8406 76.2406 55.9017C76.3626 55.9627 76.4992 55.9886 76.635 55.9764C76.7709 55.9642 76.9007 55.9144 77.0098 55.8327C77.1444 55.7338 77.2424 55.5932 77.2885 55.4327C77.3205 55.318 77.3192 55.25 77.3258 55.25C77.3325 55.25 77.3258 55.266 77.3258 55.2993C77.3263 55.3465 77.3209 55.3935 77.3098 55.4393C77.272 55.613 77.1743 55.7678 77.0338 55.8767C76.9507 55.9414 76.8554 55.9888 76.7536 56.016C76.6518 56.0433 76.5456 56.05 76.4412 56.0355C76.3368 56.0211 76.2364 55.986 76.1458 55.9321C76.0552 55.8783 75.9764 55.8068 75.9138 55.722C75.8125 55.5855 75.7578 55.42 75.7578 55.25C75.7578 55.08 75.8125 54.9145 75.9138 54.778C75.9764 54.6932 76.0552 54.6217 76.1458 54.5679C76.2364 54.514 76.3368 54.4789 76.4412 54.4645C76.5456 54.45 76.6518 54.4567 76.7536 54.484C76.8554 54.5112 76.9507 54.5586 77.0338 54.6233C77.1739 54.732 77.2716 54.8862 77.3098 55.0593C77.3209 55.1056 77.3263 55.1531 77.3258 55.2007C77.3338 55.2233 77.3338 55.2407 77.3258 55.2407Z" fill="#455A64"/>
<path d="M79.3228 55.2551C79.3148 55.2551 79.3228 55.1831 79.2842 55.0631C79.237 54.8934 79.1341 54.7446 78.9922 54.6404C78.8781 54.5547 78.7424 54.5025 78.6003 54.4896C78.4582 54.4766 78.3153 54.5036 78.1877 54.5673C78.06 54.6311 77.9526 54.7291 77.8776 54.8505C77.8026 54.9719 77.7628 55.1117 77.7628 55.2544C77.7628 55.3971 77.8026 55.5369 77.8776 55.6583C77.9526 55.7797 78.06 55.8777 78.1877 55.9415C78.3153 56.0052 78.4582 56.0322 78.6003 56.0193C78.7424 56.0063 78.8781 55.9541 78.9922 55.8684C79.1341 55.7642 79.237 55.6154 79.2842 55.4457C79.3175 55.3257 79.3148 55.2537 79.3228 55.2551C79.3308 55.2564 79.3228 55.2724 79.3228 55.3057C79.3233 55.3551 79.3179 55.4043 79.3068 55.4524C79.2665 55.6332 79.1647 55.7943 79.0188 55.9084C78.8966 56.0029 78.7502 56.0613 78.5965 56.0769C78.4427 56.0924 78.2877 56.0646 78.1489 55.9965C78.0102 55.9284 77.8933 55.8227 77.8116 55.6916C77.7298 55.5604 77.6865 55.409 77.6865 55.2544C77.6865 55.0999 77.7298 54.9484 77.8116 54.8172C77.8933 54.6861 78.0102 54.5804 78.1489 54.5123C78.2877 54.4442 78.4427 54.4164 78.5965 54.4319C78.7502 54.4475 78.8966 54.5059 79.0188 54.6004C79.1647 54.7145 79.2665 54.8756 79.3068 55.0564C79.3179 55.1045 79.3233 55.1537 79.3228 55.2031C79.3335 55.2364 79.3255 55.2551 79.3228 55.2551Z" fill="#455A64"/>
<path d="M77.7241 55.2837C77.7108 55.2984 77.6308 55.2424 77.5174 55.2464C77.4041 55.2504 77.3254 55.3037 77.3121 55.2904C77.2988 55.277 77.3121 55.2584 77.3534 55.2304C77.4018 55.1974 77.4589 55.1797 77.5174 55.1797C77.576 55.1797 77.6331 55.1974 77.6814 55.2304C77.7174 55.2517 77.7334 55.277 77.7241 55.2837Z" fill="#455A64"/>
<path d="M80.1886 55.4528C80.0386 55.4578 79.889 55.4352 79.7472 55.3862C79.6011 55.359 79.4587 55.3142 79.3232 55.2528C79.4731 55.2471 79.6228 55.2693 79.7646 55.3182C79.911 55.3452 80.0534 55.3905 80.1886 55.4528Z" fill="#455A64"/>
<path d="M81.9352 64.4872C81.9352 64.5059 80.4459 64.6126 78.6019 64.7232C76.7579 64.8339 75.2686 64.9086 75.2686 64.8899C75.2686 64.8712 76.7592 64.7646 78.6019 64.6539C80.4446 64.5432 81.9339 64.4686 81.9352 64.4872Z" fill="white"/>
<path d="M84.8924 63.823C84.4465 63.8879 83.9974 63.9293 83.5471 63.947C82.8031 63.995 82.1991 64.019 82.1978 64.0003C82.6438 63.9363 83.0928 63.8954 83.5431 63.8776C83.9916 63.8366 84.442 63.8183 84.8924 63.823Z" fill="white"/>
<path d="M75.2685 64.1383C74.8532 64.0587 74.448 63.933 74.0605 63.7637C74.2704 63.793 74.4765 63.8448 74.6752 63.9183C74.8805 63.9695 75.0795 64.0433 75.2685 64.1383Z" fill="white"/>
<path d="M45.6003 80.7157C44.3336 78.7784 44.3816 75.9464 45.895 74.1944C46.3643 73.6517 47.0203 73.1784 47.7363 73.2397C48.4523 73.3011 49.059 73.9304 49.283 74.6317C49.507 75.3331 49.4283 76.0917 49.2976 76.8157C49.1136 77.8291 48.807 78.8664 48.0976 79.6157C47.3883 80.3651 46.4976 81.2051 45.595 80.7117" fill="#536DFE"/>
<path d="M46.1671 89.9752C45.9397 89.4118 45.8952 88.7912 46.04 88.2011C46.1847 87.611 46.5114 87.0814 46.9738 86.6872C47.2658 86.4499 47.6405 86.2659 48.0098 86.3619C48.3791 86.4579 48.6285 86.8379 48.6765 87.2192C48.705 87.6047 48.6396 87.9913 48.4858 88.3459C48.2991 88.8526 48.0471 89.3579 47.6165 89.6792C47.1858 90.0006 46.5845 90.3086 46.1631 89.9726" fill="#536DFE"/>
<path d="M43.1122 89.3109C43.4602 87.5936 42.5562 85.6989 41.0016 84.8896C40.5189 84.6389 39.9242 84.4896 39.4376 84.7336C38.9509 84.9776 38.7016 85.5909 38.7402 86.1469C38.7789 86.7029 39.0469 87.2136 39.3416 87.6869C39.7549 88.3536 40.2616 88.9923 40.9669 89.3243C41.6722 89.6563 42.6149 89.9123 43.1122 89.3109Z" fill="#536DFE"/>
<path d="M43.3337 84.6658C43.9403 82.7098 42.9123 80.3365 41.2003 79.2138C40.667 78.8658 40.0003 78.6232 39.4017 78.8498C38.803 79.0765 38.443 79.7592 38.4243 80.4112C38.4057 81.0632 38.655 81.6885 38.943 82.2778C39.343 83.0965 39.859 83.9032 40.6417 84.3738C41.4243 84.8445 42.687 85.3072 43.3363 84.6712" fill="#536DFE"/>
<path d="M44.5496 94.2307C44.5399 94.1999 44.5332 94.1682 44.5296 94.1361L44.4896 93.8694C44.4816 93.8094 44.4723 93.7361 44.4616 93.6721C44.4509 93.6081 44.4336 93.5214 44.4176 93.4387C44.3856 93.2721 44.3523 93.0814 44.2976 92.8747C44.2723 92.7707 44.2456 92.6614 44.2189 92.5481C44.1923 92.4347 44.1523 92.3201 44.1163 92.1987C44.0509 91.9561 43.9549 91.7054 43.8643 91.4374C43.4396 90.2836 42.8571 89.1941 42.1336 88.2001C41.9603 87.9774 41.8043 87.7574 41.6376 87.5694L41.4029 87.2907L41.1749 87.0441C41.0323 86.8841 40.8923 86.7521 40.7749 86.6334L40.5989 86.4667L40.4496 86.3334L40.2443 86.1494C40.2192 86.1288 40.1964 86.1056 40.1763 86.0801C40.2049 86.0952 40.2313 86.114 40.2549 86.1361L40.4709 86.3094L40.6256 86.4361C40.6789 86.4867 40.7376 86.5401 40.8003 86.5974C40.9243 86.7134 41.0669 86.8441 41.2149 86.9974L41.4483 87.2414L41.6869 87.5174C41.8576 87.7054 42.0163 87.9241 42.1923 88.1481C42.9274 89.1423 43.5149 90.2376 43.9363 91.4001C44.0256 91.6667 44.1189 91.9241 44.1829 92.1694C44.2163 92.2907 44.2496 92.4081 44.2803 92.5214C44.3109 92.6347 44.3309 92.7454 44.3549 92.8507C44.4056 93.0601 44.4349 93.2507 44.4629 93.4201C44.4763 93.5041 44.4896 93.5827 44.5016 93.6547C44.5136 93.7267 44.5149 93.7881 44.5216 93.8547C44.5323 93.9667 44.5403 94.0574 44.5469 94.1294C44.5513 94.163 44.5522 94.197 44.5496 94.2307Z" fill="#263238"/>
<path d="M44.5059 94.5816C44.5041 94.5688 44.5041 94.5558 44.5059 94.543C44.5059 94.5123 44.5059 94.475 44.5139 94.4297C44.5232 94.323 44.5366 94.1776 44.5539 93.995C44.5632 93.9003 44.5739 93.795 44.5846 93.6816C44.5952 93.5683 44.5966 93.4403 44.6032 93.307C44.6139 93.0403 44.6392 92.7323 44.6299 92.3937C44.6299 92.2243 44.6299 92.047 44.6299 91.8603C44.6299 91.6737 44.6112 91.4843 44.6019 91.2857C44.5886 90.8857 44.5339 90.4656 44.4859 90.0203C44.2372 88.0926 43.6799 86.2175 42.8352 84.467C42.6326 84.067 42.4486 83.6843 42.2419 83.343C42.1419 83.171 42.0512 83.0016 41.9526 82.8456L41.6646 82.3977C41.4886 82.1083 41.3006 81.8643 41.1446 81.647C41.0659 81.5377 40.9952 81.435 40.9246 81.343L40.7286 81.0963L40.4619 80.755L40.3926 80.6643C40.3779 80.643 40.3699 80.6323 40.3712 80.631C40.3726 80.6297 40.3819 80.639 40.3992 80.6576L40.4739 80.743L40.7579 81.0763C40.8192 81.1497 40.8912 81.231 40.9606 81.319C41.0299 81.407 41.1046 81.511 41.1859 81.619C41.3459 81.8377 41.5379 82.0776 41.7192 82.3656L42.0126 82.811C42.1126 82.967 42.2046 83.1376 42.3072 83.3083C42.5166 83.6496 42.7072 84.0337 42.9086 84.4337C43.3305 85.313 43.6849 86.2232 43.9686 87.1563C44.2389 88.0933 44.4382 89.0493 44.5646 90.0163C44.6112 90.463 44.6619 90.887 44.6726 91.287C44.6806 91.487 44.6966 91.679 44.6966 91.8643C44.6966 92.0497 44.6966 92.227 44.6966 92.3977C44.6966 92.7377 44.6726 93.0443 44.6579 93.3137C44.6486 93.447 44.6432 93.5737 44.6326 93.6883C44.6219 93.803 44.6059 93.907 44.5939 94.0017C44.5712 94.1857 44.5526 94.3296 44.5379 94.4363C44.5312 94.4816 44.5259 94.5176 44.5219 94.5483C44.5183 94.5602 44.5129 94.5714 44.5059 94.5816Z" fill="#263238"/>
<path d="M47.803 75.5802C47.7982 75.5926 47.7924 75.6047 47.7856 75.6162L47.7323 75.7175L47.515 76.1042C47.4683 76.1882 47.4123 76.2789 47.359 76.3829L47.1896 76.7242C47.1283 76.8469 47.063 76.9762 46.995 77.1149C46.927 77.2535 46.8616 77.4069 46.7963 77.5629C46.731 77.7189 46.6523 77.8842 46.5816 78.0575C46.511 78.2309 46.4483 78.4149 46.371 78.6029L46.2603 78.8909C46.227 78.9895 46.1936 79.0909 46.159 79.1922C46.0896 79.3957 46.019 79.6055 45.947 79.8215C45.6803 80.6895 45.4243 81.6562 45.2096 82.6829C44.995 83.7095 44.855 84.7002 44.747 85.6029C44.639 86.5055 44.587 87.3229 44.5683 88.0109C44.551 88.3549 44.547 88.6655 44.5456 88.9442C44.5443 89.2229 44.5456 89.4522 44.5456 89.6442C44.5456 89.8362 44.5456 89.9789 44.5523 90.0869C44.5523 90.1335 44.5523 90.1722 44.5523 90.2029C44.5543 90.2161 44.5543 90.2296 44.5523 90.2429C44.5509 90.2296 44.5509 90.2162 44.5523 90.2029C44.5523 90.1722 44.5523 90.1349 44.5443 90.0882C44.5443 89.9802 44.5323 89.8322 44.523 89.6455C44.5136 89.4589 44.5083 89.2175 44.5083 88.9442C44.5083 88.6709 44.5083 88.3589 44.5176 88.0109C44.5283 87.3215 44.591 86.5029 44.679 85.5962C44.767 84.6895 44.927 83.6989 45.1363 82.6629C45.3456 81.6269 45.6083 80.6629 45.8816 79.7949C45.9563 79.5802 46.0283 79.3695 46.0976 79.1655C46.1336 79.0642 46.1683 78.9629 46.2016 78.8642L46.315 78.5762L46.531 78.0309C46.603 77.8575 46.6803 77.6935 46.7496 77.5362C46.819 77.3789 46.883 77.2295 46.955 77.0895L47.1563 76.7002L47.3323 76.3615C47.3883 76.2589 47.447 76.1682 47.495 76.0855L47.7256 75.7055L47.787 75.6082C47.7936 75.5895 47.8016 75.5789 47.803 75.5802Z" fill="#263238"/>
<path d="M47.3726 87.4668C47.3336 87.5484 47.289 87.6273 47.2392 87.7028C47.1459 87.8508 47.0192 88.0695 46.8699 88.3441C46.7206 88.6188 46.5566 88.9508 46.3899 89.3281C46.2232 89.7055 46.0672 90.1281 45.9246 90.5841C45.7819 91.0401 45.6806 91.4815 45.6006 91.8855C45.5206 92.2895 45.4672 92.6588 45.4406 92.9695C45.4139 93.2801 45.3912 93.5321 45.3846 93.7055C45.3836 93.7948 45.376 93.8839 45.3619 93.9721C45.3516 93.8836 45.348 93.7945 45.3512 93.7055C45.3512 93.5295 45.3512 93.2761 45.3832 92.9641C45.4121 92.5976 45.4592 92.2327 45.5246 91.8708C45.608 91.4284 45.7153 90.9909 45.8459 90.5601C45.9807 90.1308 46.1392 89.7093 46.3206 89.2975C46.4701 88.9617 46.6366 88.6337 46.8192 88.3148C46.9752 88.0481 47.1112 87.8281 47.2112 87.6855C47.2585 87.608 47.3125 87.5348 47.3726 87.4668Z" fill="#263238"/>
<path d="M42.063 93.3594H47.6257L46.9523 99.0407H42.755L42.063 93.3594Z" fill="#455A64"/>
<path d="M42.2656 98.4277L42.7376 99.0411H46.9523L47.439 98.4477L42.2656 98.4277Z" fill="#263238"/>
<path d="M47.4098 95.0296C47.4098 95.0523 46.2551 95.0709 44.8311 95.0709C43.4071 95.0709 42.2524 95.0523 42.2524 95.0296C42.2524 95.0069 43.4071 94.9883 44.8311 94.9883C46.2551 94.9883 47.4098 95.0069 47.4098 95.0296Z" fill="#FAFAFA"/>
<path d="M47.4098 95.4085C47.4098 95.4312 46.2551 95.4499 44.8311 95.4499C43.4071 95.4499 42.2524 95.4312 42.2524 95.4085C42.2524 95.3859 43.4071 95.3672 44.8311 95.3672C46.2551 95.3672 47.4098 95.3859 47.4098 95.4085Z" fill="#FAFAFA"/>
<path d="M47.3401 95.7738C47.3401 95.7978 46.2255 95.8164 44.8508 95.8164C43.4761 95.8164 42.3628 95.7978 42.3628 95.7738C42.3628 95.7498 43.4775 95.7324 44.8508 95.7324C46.2241 95.7324 47.3401 95.7511 47.3401 95.7738Z" fill="#FAFAFA"/>
<path d="M42.9125 81.1133C42.9152 81.131 42.9152 81.1489 42.9125 81.1666C42.9125 81.2093 42.9045 81.2599 42.8992 81.3213C42.8845 81.4639 42.8659 81.6546 42.8419 81.8879C42.7912 82.3653 42.7179 83.0253 42.6325 83.7546C42.6325 83.7826 42.6259 83.8106 42.6232 83.8359V83.8599H42.5992C41.8845 83.8719 41.2405 83.8786 40.7765 83.8813H40.2272H40.0779C40.0606 83.883 40.0432 83.883 40.0259 83.8813C40.0259 83.8813 40.0432 83.8813 40.0779 83.8813L40.2272 83.8733L40.7752 83.8559C41.2405 83.8439 41.8832 83.8306 42.5979 83.8186L42.5712 83.8439C42.5712 83.8186 42.5712 83.7906 42.5805 83.7626C42.6659 83.0346 42.7459 82.3759 42.8072 81.8959C42.8379 81.6653 42.8632 81.4746 42.8819 81.3319C42.8912 81.2706 42.8979 81.2213 42.9045 81.1786C42.9046 81.1566 42.9073 81.1347 42.9125 81.1133Z" fill="#263238"/>
<path d="M41.6471 79.4121C41.6501 79.4307 41.6501 79.4496 41.6471 79.4681C41.6471 79.5108 41.6471 79.5641 41.6471 79.6281C41.6471 79.7748 41.6471 79.9734 41.6471 80.2148C41.6391 80.7094 41.6258 81.3934 41.6071 82.1481C41.6071 82.1788 41.6071 82.2094 41.6071 82.2374V82.2668H41.5778C40.9567 82.2196 40.3336 82.2058 39.7111 82.2254C39.4724 82.2321 39.2804 82.2428 39.1471 82.2494H38.9938C38.976 82.2512 38.9582 82.2512 38.9404 82.2494C38.9404 82.2494 38.9578 82.2494 38.9924 82.2388L39.1458 82.2214C39.2791 82.2081 39.4711 82.1921 39.7098 82.1788C40.335 82.1479 40.9616 82.1563 41.5858 82.2041L41.5564 82.2321C41.5564 82.2041 41.5564 82.1734 41.5564 82.1428C41.5751 81.3881 41.5951 80.7041 41.6124 80.2094C41.6218 79.9681 41.6298 79.7708 41.6351 79.6228C41.6351 79.5601 41.6418 79.5068 41.6444 79.4641C41.6437 79.4467 41.6446 79.4293 41.6471 79.4121Z" fill="#263238"/>
<path d="M40.167 78.834C40.1835 78.8875 40.1951 78.9424 40.2017 78.998L40.2844 79.4446C40.3564 79.822 40.4684 80.3433 40.6284 80.9113L40.6444 80.9713L40.5884 80.9433L40.5217 80.9113C40.0542 80.6875 39.5534 80.5412 39.039 80.478C38.8417 80.454 38.6804 80.4446 38.5684 80.4406C38.5104 80.4414 38.4525 80.4383 38.395 80.4313C38.395 80.4313 38.411 80.4313 38.4404 80.4246C38.4697 80.418 38.5137 80.4246 38.5737 80.4246C38.7321 80.4218 38.8906 80.428 39.0484 80.4433C39.5683 80.4965 40.075 80.64 40.5457 80.8673L40.6137 80.9007L40.5737 80.9326C40.4387 80.4467 40.3293 79.954 40.2457 79.4567C40.2137 79.2673 40.1924 79.1127 40.1804 79.006C40.1707 78.9492 40.1663 78.8916 40.167 78.834Z" fill="#263238"/>
<path d="M48.0231 89.1935C48.0231 89.2015 47.8617 89.1855 47.6031 89.1748C47.2654 89.1619 46.9272 89.173 46.5911 89.2082C46.5111 89.2162 46.4324 89.2268 46.3577 89.2361H46.3311V89.2095C46.2711 88.8735 46.2204 88.5775 46.1871 88.3642C46.1635 88.2512 46.1488 88.1367 46.1431 88.0215C46.1776 88.1315 46.2044 88.2437 46.2231 88.3575C46.2657 88.5681 46.3231 88.8642 46.3857 89.2002L46.3537 89.1775C46.4297 89.1668 46.5084 89.1561 46.5884 89.1481C46.9246 89.1133 47.2633 89.1084 47.6004 89.1335C47.7337 89.1442 47.8364 89.1575 47.9084 89.1682C47.9477 89.1704 47.9865 89.1789 48.0231 89.1935Z" fill="#263238"/>
<path d="M48.5485 88.1484C48.5485 88.1577 48.3938 88.1217 48.1418 88.091C47.8139 88.0511 47.4825 88.0475 47.1538 88.0804L46.9791 88.103H46.9511V88.0737C46.9151 87.7284 46.8871 87.4217 46.8698 87.2017C46.8548 87.0837 46.8486 86.9647 46.8511 86.8457C46.8782 86.9615 46.8964 87.0792 46.9058 87.1977C46.9338 87.4164 46.9698 87.7217 47.0058 88.0684L46.9738 88.043L47.1511 88.0204C47.4838 87.9856 47.8195 87.9946 48.1498 88.047C48.2831 88.0684 48.3765 88.091 48.4458 88.1097C48.4815 88.1184 48.5159 88.1314 48.5485 88.1484Z" fill="#263238"/>
<path d="M48.9258 78.258C48.9085 78.2689 48.8902 78.2783 48.8711 78.286L48.7085 78.358L48.1058 78.6153L46.1138 79.4406L46.0058 79.4846L45.9805 79.4953L45.9698 79.47L45.1271 77.5686L44.8791 76.9926L44.8151 76.8366C44.8005 76.7993 44.7938 76.7806 44.7965 76.7793C44.8071 76.7959 44.8165 76.8133 44.8245 76.8313C44.8445 76.8713 44.8698 76.922 44.8991 76.9846L45.1658 77.5526C45.3871 78.0406 45.6885 78.706 46.0231 79.4473L45.9871 79.4326L46.0951 79.3886L48.0951 78.578L48.7031 78.338L48.8698 78.2753C48.8875 78.2668 48.9064 78.261 48.9258 78.258Z" fill="#263238"/>
<path d="M49.4136 75.8545C49.399 75.8688 49.3824 75.8809 49.3643 75.8905L49.2176 75.9852L48.675 76.3238L46.863 77.4292L46.8336 77.4465L46.8216 77.4145L46.7896 77.3265C46.4936 76.5265 46.227 75.8092 46.0296 75.2785C45.9376 75.0198 45.8616 74.8092 45.8056 74.6545L45.747 74.4838C45.7389 74.4646 45.7336 74.4445 45.731 74.4238C45.7418 74.4415 45.7508 74.4602 45.7576 74.4798C45.7763 74.5243 45.799 74.5803 45.8256 74.6478L46.067 75.2678C46.2683 75.8012 46.5403 76.5172 46.8416 77.3118L46.875 77.3985L46.8336 77.3852L48.655 76.2945L49.207 75.9705L49.359 75.8852C49.376 75.873 49.3943 75.8627 49.4136 75.8545Z" fill="#263238"/>
<path d="M49.2539 74.5729C49.2157 74.599 49.1756 74.6222 49.1339 74.6422C49.0566 74.6862 48.9432 74.7502 48.8059 74.8342C48.4419 75.0595 48.1039 75.3242 47.7979 75.6236L47.7273 75.6916L47.7513 75.5969C47.7753 75.4969 47.7979 75.3929 47.8153 75.2849C47.891 74.7899 47.8633 74.2846 47.7339 73.8009C47.6942 73.6544 47.6466 73.5102 47.5912 73.3689C47.5676 73.3184 47.5475 73.2663 47.5312 73.2129C47.5632 73.2592 47.59 73.3088 47.6113 73.3609C47.675 73.5001 47.7289 73.6435 47.7726 73.7902C47.9132 74.2778 47.946 74.7901 47.8686 75.2916C47.8499 75.4022 47.8272 75.5089 47.8019 75.6089L47.7553 75.5822C48.0655 75.2815 48.4111 75.0196 48.7846 74.8022C48.9179 74.7209 49.0406 74.6609 49.1219 74.6236C49.1637 74.6014 49.208 74.5844 49.2539 74.5729Z" fill="#263238"/>
<path d="M42.9056 87.0469C42.9004 87.0955 42.8915 87.1436 42.8789 87.1909C42.8603 87.2829 42.8323 87.4162 42.8016 87.5815C42.7218 88.0172 42.6719 88.4578 42.6523 88.9002V88.9255H42.6269L42.5029 88.9322C41.9509 88.9655 41.4509 88.9935 41.0896 89.0095L40.6616 89.0269C40.6088 89.0317 40.5557 89.0317 40.5029 89.0269C40.5547 89.0153 40.6073 89.0082 40.6603 89.0055L41.0869 88.9709C41.4483 88.9442 41.9469 88.9109 42.4989 88.8775L42.6243 88.8709L42.5976 88.8975C42.6167 88.4527 42.6728 88.0103 42.7656 87.5749C42.8003 87.4095 42.8349 87.2762 42.8603 87.1855C42.87 87.1377 42.8852 87.0912 42.9056 87.0469Z" fill="#263238"/>
<path d="M41.8122 85.4805C41.813 85.5291 41.8099 85.5777 41.8029 85.6258C41.7909 85.7285 41.7762 85.8605 41.7576 86.0258C41.7176 86.3605 41.6576 86.8258 41.5869 87.3471V87.3698H41.5629L41.3842 87.3818C40.8189 87.4191 40.3096 87.4778 39.9416 87.5258L39.5056 87.5845C39.4523 87.5944 39.3984 87.5997 39.3442 87.6005C39.3954 87.5831 39.4481 87.5706 39.5016 87.5631C39.6042 87.5418 39.7522 87.5151 39.9349 87.4858C40.3029 87.4285 40.8136 87.3631 41.3802 87.3245L41.5602 87.3138L41.5336 87.3378C41.6056 86.8165 41.6669 86.3525 41.7229 86.0191C41.7469 85.8605 41.7682 85.7285 41.7842 85.6191C41.7886 85.5721 41.798 85.5256 41.8122 85.4805Z" fill="#263238"/>
<path d="M40.5243 84.8047C40.5337 84.8047 40.499 84.9567 40.459 85.2047C40.4069 85.5307 40.377 85.8599 40.3697 86.19V86.2207H40.3377L40.2443 86.2087C39.8956 86.1675 39.5448 86.147 39.1937 86.1474H38.875C38.8356 86.1519 38.7958 86.1519 38.7563 86.1474C38.7945 86.1361 38.8339 86.1298 38.8737 86.1287C38.9483 86.1207 39.0577 86.1127 39.1937 86.1074C39.5472 86.0946 39.9012 86.1097 40.2523 86.1527L40.3457 86.166L40.3137 86.1927C40.321 85.86 40.3572 85.5285 40.4217 85.202C40.447 85.078 40.471 84.9794 40.4897 84.9114C40.4965 84.8744 40.5081 84.8386 40.5243 84.8047Z" fill="#263238"/>
<path d="M47.855 86.3711C47.7839 86.564 47.701 86.7523 47.607 86.9351C47.5298 87.1258 47.4407 87.3115 47.3403 87.4911C47.4557 87.0942 47.6296 86.7167 47.8563 86.3711H47.855Z" fill="#263238"/>
<path d="M48.5538 87.1133C48.3407 87.1452 48.1297 87.1898 47.9218 87.2466C47.719 87.3193 47.5205 87.4035 47.3271 87.4986C47.6731 87.221 48.1115 87.0852 48.5538 87.1186V87.1133Z" fill="#263238"/>
<path d="M112.169 99.0249C112.169 99.0436 93.2879 99.0596 70.0026 99.0596C46.7172 99.0596 27.8306 99.0436 27.8306 99.0249C27.8306 99.0062 46.7079 98.9902 70.0026 98.9902C93.2972 98.9902 112.169 98.9996 112.169 99.0249Z" fill="#263238"/>
</svg>
