<svg width="140" height="140" viewBox="0 0 140 140" fill="none" xmlns="http://www.w3.org/2000/svg">
<rect width="140" height="140" rx="70" fill="white"/>
<g clip-path="url(#clip0_481_2102)">
<path d="M120 96.4785H20V96.5285H120V96.4785Z" fill="#EBEBEB"/>
<path d="M109.98 99.6973H103.356V99.7473H109.98V99.6973Z" fill="#EBEBEB"/>
<path d="M86.2439 100.24H84.5059V100.29H86.2439V100.24Z" fill="#EBEBEB"/>
<path d="M103.156 97.8418H99.3179V97.8918H103.156V97.8418Z" fill="#EBEBEB"/>
<path d="M39.1302 98.1777H30.4922V98.2277H39.1302V98.1777Z" fill="#EBEBEB"/>
<path d="M42.1781 98.1777H40.9121V98.2277H42.1781V98.1777Z" fill="#EBEBEB"/>
<path d="M65.0299 99.0215H46.2939V99.0715H65.0299V99.0215Z" fill="#EBEBEB"/>
<path d="M67.4001 87.558H28.7821C28.4796 87.5575 28.1896 87.437 27.9759 87.2229C27.7621 87.0088 27.6421 86.7186 27.6421 86.416V32.13C27.6447 31.8293 27.7659 31.5416 27.9794 31.3297C28.1928 31.1177 28.4813 30.9986 28.7821 30.998H67.4001C67.703 30.998 67.9934 31.1184 68.2076 31.3325C68.4218 31.5467 68.5421 31.8372 68.5421 32.14V86.416C68.5421 86.7189 68.4218 87.0094 68.2076 87.2236C67.9934 87.4377 67.703 87.558 67.4001 87.558ZM28.7821 31.038C28.4928 31.0386 28.2156 31.1539 28.0112 31.3586C27.8069 31.5633 27.6921 31.8408 27.6921 32.13V86.416C27.6921 86.7053 27.8069 86.9828 28.0112 87.1875C28.2156 87.3922 28.4928 87.5075 28.7821 87.508H67.4001C67.6895 87.5075 67.967 87.3923 68.1717 87.1876C68.3763 86.9829 68.4916 86.7055 68.4921 86.416V32.13C68.4916 31.8406 68.3763 31.5631 68.1717 31.3585C67.967 31.1538 67.6895 31.0386 67.4001 31.038H28.7821Z" fill="#EBEBEB"/>
<path d="M110.662 87.558H72.0419C71.7392 87.5575 71.449 87.437 71.235 87.223C71.0209 87.0089 70.9004 86.7188 70.8999 86.416V32.13C70.9031 31.8291 71.0247 31.5415 71.2385 31.3296C71.4522 31.1177 71.7409 30.9986 72.0419 30.998H110.662C110.962 30.9991 111.25 31.1185 111.463 31.3304C111.676 31.5423 111.797 31.8296 111.8 32.13V86.416C111.8 86.7182 111.68 87.0081 111.467 87.2221C111.254 87.4362 110.964 87.557 110.662 87.558ZM72.0419 31.038C71.7524 31.0386 71.475 31.1538 71.2703 31.3585C71.0656 31.5631 70.9504 31.8406 70.9499 32.13V86.416C70.9504 86.7055 71.0656 86.9829 71.2703 87.1876C71.475 87.3923 71.7524 87.5075 72.0419 87.508H110.662C110.951 87.5075 111.229 87.3923 111.433 87.1876C111.638 86.9829 111.753 86.7055 111.754 86.416V32.13C111.753 31.8406 111.638 31.5631 111.433 31.3585C111.229 31.1538 110.951 31.0386 110.662 31.038H72.0419Z" fill="#EBEBEB"/>
<path d="M75.5461 52.1363L75.4561 49.5083L77.0701 48.9823C77.1375 48.0916 77.2814 47.2083 77.5001 46.3423L76.1321 45.3423L77.0601 42.8723L78.7521 43.0103C79.1528 42.2149 79.6212 41.4554 80.1521 40.7403L79.2761 39.2763L81.0761 37.3543L82.6001 38.1203C83.2798 37.5412 84.0047 37.0176 84.7681 36.5543L84.5241 34.8763L86.9241 33.7863L88.0241 35.0743C88.8729 34.8038 89.7425 34.6031 90.6241 34.4743L91.0241 32.8303L93.6601 32.7383L94.1801 34.3523C95.0696 34.4242 95.9518 34.568 96.8181 34.7823L97.8341 33.4223L100.304 34.3443L100.166 36.0363C100.961 36.4438 101.72 36.9168 102.436 37.4503L103.892 36.5743L105.822 38.3743L105.048 39.8923C105.629 40.5691 106.151 41.2945 106.608 42.0603L108.286 41.8083L109.4 44.1983L108.104 45.2983C108.378 46.1463 108.578 47.0161 108.704 47.8983L110.356 48.3123L110.446 50.9403L108.826 51.4683C108.759 52.359 108.615 53.2423 108.396 54.1083L109.764 55.1083L108.834 57.5763L107.144 57.4403C106.74 58.2362 106.269 58.9957 105.734 59.7103L106.612 61.1723L104.812 63.0963L103.3 62.3203C102.622 62.902 101.897 63.4264 101.132 63.8883L101.384 65.5663L98.9841 66.6543L97.8781 65.3663C97.0297 65.6411 96.1601 65.8452 95.2781 65.9763L94.8781 67.6223L92.2421 67.7123L91.7221 66.0983C90.8316 66.0285 89.9486 65.8847 89.0821 65.6683L88.0821 67.0283L85.6001 66.1143L85.7301 64.4243C84.9358 64.0154 84.1766 63.5418 83.4601 63.0083L82.0001 63.8843L80.0701 62.0843L80.8441 60.5643C80.2614 59.8886 79.7382 59.1639 79.2801 58.3983L77.6001 58.6543L76.5041 56.2543L77.8001 55.1543C77.5224 54.3067 77.3183 53.4369 77.1901 52.5543L75.5461 52.1363ZM93.3041 60.6503C95.3665 60.5806 97.362 59.9007 99.0381 58.6967C100.714 57.4927 101.995 55.8187 102.72 53.8864C103.444 51.954 103.579 49.8502 103.108 47.8411C102.636 45.832 101.58 44.0079 100.071 42.5995C98.5631 41.191 96.6709 40.2616 94.6342 39.9288C92.5976 39.596 90.508 39.8747 88.6298 40.7297C86.7515 41.5847 85.1691 42.9775 84.0826 44.732C82.9961 46.4865 82.4544 48.5239 82.5261 50.5863C82.621 53.35 83.8098 55.9629 85.831 57.8502C87.8522 59.7375 90.5403 60.7447 93.3041 60.6503Z" fill="#EBEBEB"/>
<path d="M43.9541 83.285L43.9141 82.101L44.6421 81.863C44.675 81.4614 44.7419 81.0633 44.8421 80.673L44.2261 80.219L44.6441 79.105L45.4061 79.167C45.5882 78.808 45.801 78.4654 46.0421 78.143L45.6421 77.483L46.4561 76.617L47.1361 76.967C47.4427 76.7053 47.7697 76.4685 48.1141 76.259L48.0041 75.503L49.0861 75.011L49.5801 75.599C49.9633 75.4756 50.3559 75.3833 50.7541 75.323L50.9381 74.581L52.1261 74.541L52.3601 75.269C52.7616 75.3025 53.1597 75.3694 53.5501 75.469L54.0081 74.855L55.1221 75.271L55.0601 76.033C55.4178 76.2181 55.7603 76.4314 56.0841 76.671L56.7401 76.271L57.6101 77.071L57.2601 77.757C57.5231 78.0616 57.7587 78.3889 57.9641 78.735L58.7221 78.621L59.2161 79.703L58.6321 80.199C58.7562 80.582 58.8479 80.9747 58.9061 81.373L59.6521 81.559L59.6921 82.745L58.9621 82.983C58.9294 83.3847 58.8625 83.7828 58.7621 84.173L59.3781 84.627L58.9601 85.741L58.1961 85.679C58.0138 86.0375 57.8018 86.3801 57.5621 86.703L57.9621 87.361L57.1501 88.229L56.4681 87.879C56.1626 88.1421 55.8354 88.379 55.4901 88.587L55.6041 89.343L54.5221 89.833L54.0241 89.253C53.6407 89.3762 53.2481 89.4685 52.8501 89.529L52.6661 90.271L51.4781 90.311L51.2421 89.583C50.8372 89.55 50.4358 89.4831 50.0421 89.383L49.6001 89.999L48.4841 89.599L48.5441 88.837C48.1863 88.6519 47.8439 88.4386 47.5201 88.199L46.8641 88.599L45.9941 87.799L46.3421 87.113C46.0796 86.8079 45.8441 86.4807 45.6381 86.135L44.8821 86.249L44.3881 85.167L44.9721 84.671C44.8468 84.2883 44.7544 83.8955 44.6961 83.497L43.9541 83.285ZM51.9541 87.125C52.8841 87.0936 53.7839 86.787 54.5397 86.2441C55.2954 85.7012 55.8732 84.9464 56.1999 84.075C56.5265 83.2037 56.5874 82.255 56.3748 81.3491C56.1623 80.4431 55.6858 79.6206 55.0056 78.9855C54.3255 78.3504 53.4722 77.9313 52.5539 77.7813C51.6355 77.6312 50.6932 77.7569 49.8463 78.1424C48.9994 78.528 48.2858 79.156 47.7959 79.9472C47.306 80.7383 47.0618 81.657 47.0941 82.587C47.1155 83.2047 47.2584 83.8121 47.5147 84.3745C47.771 84.9369 48.1356 85.4433 48.5877 85.8648C49.0398 86.2862 49.5705 86.6144 50.1495 86.8307C50.7285 87.0469 51.3444 87.1469 51.9621 87.125H51.9541Z" fill="#F5F5F5"/>
<path d="M43.538 39.1988L42.876 38.5988L43.14 38.0768C42.9385 37.8395 42.7578 37.5852 42.6 37.3168L42.02 37.4048L41.646 36.5768L42.09 36.1968C41.9978 35.9045 41.9308 35.6047 41.89 35.3008L41.32 35.1568L41.292 34.2488L41.848 34.0688C41.8724 33.762 41.9219 33.4576 41.996 33.1588L41.526 32.8088L41.846 31.9588L42.428 32.0048C42.5684 31.7307 42.7309 31.4685 42.914 31.2208L42.6 30.7208L43.22 30.0548L43.742 30.3228C43.9762 30.1228 44.2264 29.9422 44.49 29.7828L44.41 29.1988L45.236 28.8208L45.616 29.2668C45.9093 29.1755 46.2097 29.1086 46.514 29.0668L46.656 28.4988L47.564 28.4648L47.746 29.0248C48.0524 29.0473 48.3563 29.0968 48.654 29.1728L49 28.7008L49.852 29.0168L49.8 29.5988C50.0805 29.7376 50.3482 29.9009 50.6 30.0868L51.104 29.7868L51.758 30.3988L51.49 30.9228C51.6918 31.1557 51.8725 31.406 52.03 31.6708L52.6 31.5988L52.976 32.4288L52.538 32.7988C52.6336 33.0916 52.7039 33.392 52.748 33.6968L53.32 33.8388L53.348 34.7468L52.79 34.9268C52.7671 35.2344 52.7182 35.5395 52.644 35.8388L53.116 36.1848L52.8 37.0348L52.212 36.9988C52.0716 37.2723 51.9091 37.5339 51.726 37.7808L52.028 38.2828L51.4 38.9388L50.88 38.6728C50.6457 38.8722 50.3956 39.0522 50.132 39.2108L50.218 39.7888L49.4 40.1668L49.02 39.7228C48.7264 39.8132 48.4262 39.8801 48.122 39.9228L47.98 40.4908L47.072 40.5228L46.89 39.9648C46.5837 39.9416 46.2799 39.892 45.982 39.8168L45.634 40.2868L44.782 39.9688L44.828 39.3848C44.5538 39.2457 44.2922 39.0831 44.046 38.8988L43.538 39.1988ZM48.262 35.3728C48.4366 35.1858 48.5518 34.9512 48.5931 34.6987C48.6344 34.4462 48.5999 34.1871 48.4939 33.9542C48.388 33.7213 48.2154 33.525 47.9979 33.3902C47.7805 33.2553 47.5279 33.188 47.2722 33.1966C47.0165 33.2053 46.7691 33.2896 46.5613 33.4388C46.3534 33.5881 46.1945 33.7956 46.1046 34.0351C46.0147 34.2747 45.9978 34.5355 46.056 34.7846C46.1143 35.0338 46.2451 35.26 46.432 35.4348C46.5555 35.5518 46.7009 35.6431 46.8599 35.7037C47.0188 35.7643 47.1882 35.7929 47.3582 35.7879C47.5282 35.7829 47.6956 35.7444 47.8507 35.6745C48.0058 35.6046 48.1456 35.5049 48.262 35.3808V35.3728Z" fill="#EBEBEB"/>
<path d="M61.876 82.1979L63.388 81.1539C63.5335 80.6101 63.7346 80.0826 63.988 79.5799L63.6 78.0579L65.8 75.7079L67.344 75.9919C67.8276 75.7024 68.3396 75.4631 68.872 75.2779L69.812 73.6979L73.024 73.5879L74.068 75.0999C74.6119 75.2451 75.1394 75.4462 75.642 75.6999L77.162 75.3139L79.512 77.5139L79.23 79.0539C79.5212 79.5387 79.7605 80.0529 79.944 80.5879L81.526 81.5259L81.636 84.7399L80.122 85.7839C79.9774 86.3312 79.7763 86.8621 79.522 87.3679L79.908 88.8839L77.708 91.2339L76.172 90.9519C75.6833 91.2417 75.1667 91.4816 74.63 91.6679L73.692 93.2459L70.48 93.3559L69.436 91.8459C68.8879 91.6995 68.3559 91.4985 67.848 91.2459L66.336 91.6299L63.986 89.4299L64.268 87.8879C63.9767 87.4024 63.7374 86.8875 63.554 86.3519L61.972 85.4139L61.876 82.1979ZM71.888 87.0819C72.6025 87.0573 73.2937 86.8214 73.874 86.4039C74.4544 85.9864 74.898 85.4062 75.1485 84.7366C75.3991 84.067 75.4454 83.3381 75.2816 82.6422C75.1179 81.9463 74.7514 81.3146 74.2285 80.827C73.7056 80.3394 73.0499 80.0178 72.3443 79.903C71.6386 79.7881 70.9147 79.8851 70.2643 80.1818C69.6138 80.4784 69.0659 80.9613 68.6899 81.5694C68.3139 82.1775 68.1267 82.8834 68.152 83.5979C68.1854 84.5557 68.5976 85.4611 69.2981 86.1151C69.9986 86.7691 70.9301 87.1183 71.888 87.0859V87.0819Z" fill="#EBEBEB"/>
<path d="M34.8199 44.1997C34.7832 44.1998 34.7471 44.1909 34.7147 44.1739C34.6823 44.1568 34.6545 44.132 34.6339 44.1017L34.0759 43.3017C33.8012 43.2212 33.5337 43.1181 33.2759 42.9937L32.4759 43.1937C32.4389 43.2037 32.3999 43.2041 32.3628 43.1946C32.3256 43.1851 32.2916 43.1662 32.2639 43.1397L30.9039 41.8697C30.8765 41.8448 30.8557 41.8135 30.8435 41.7786C30.8313 41.7436 30.828 41.7062 30.8339 41.6697L30.9839 40.8697C30.8405 40.6216 30.7193 40.3612 30.6219 40.0917L29.7759 39.5877C29.7434 39.5683 29.7161 39.5412 29.6966 39.5087C29.677 39.4763 29.6658 39.4395 29.6639 39.4017L29.5999 37.5077C29.598 37.4688 29.6059 37.43 29.6231 37.395C29.6402 37.36 29.666 37.33 29.6979 37.3077L30.4979 36.7497C30.5764 36.4743 30.6794 36.2066 30.8059 35.9497L30.6059 35.1497C30.5969 35.1126 30.5972 35.0739 30.6066 35.037C30.616 35 30.6343 34.9659 30.6599 34.9377L31.9319 33.5777C31.9572 33.5509 31.9886 33.5307 32.0235 33.5189C32.0583 33.507 32.0955 33.5039 32.1319 33.5097L32.9439 33.6577C33.1919 33.5153 33.4515 33.3942 33.7199 33.2957L34.2219 32.4497C34.2414 32.417 34.2689 32.3898 34.3018 32.3705C34.3346 32.3513 34.3718 32.3407 34.4099 32.3397L36.2699 32.2757C36.3088 32.2737 36.3476 32.2817 36.3825 32.2989C36.4175 32.316 36.4476 32.3417 36.4699 32.3737L37.0279 33.1737C37.3028 33.2536 37.5704 33.3567 37.8279 33.4817L38.6279 33.2817C38.6631 33.2744 38.6996 33.2755 38.7343 33.2849C38.7691 33.2943 38.8011 33.3117 38.8279 33.3357L40.1999 34.6177C40.2267 34.643 40.2469 34.6744 40.2587 34.7092C40.2706 34.7441 40.2737 34.7813 40.2679 34.8177L40.1199 35.6177C40.2622 35.8671 40.3833 36.128 40.4819 36.3977L41.3279 36.8997C41.3604 36.9189 41.3876 36.946 41.4068 36.9785C41.426 37.0111 41.4367 37.0479 41.4379 37.0857L41.5019 38.9477C41.504 38.9866 41.4961 39.0254 41.479 39.0605C41.4618 39.0955 41.436 39.1255 41.4039 39.1477L40.6039 39.7077C40.525 39.9826 40.4226 40.2503 40.2979 40.5077L40.4979 41.3077C40.5074 41.3447 40.5074 41.3835 40.498 41.4206C40.4885 41.4576 40.4699 41.4917 40.4439 41.5197L39.1739 42.8797C39.1483 42.906 39.1169 42.9259 39.0821 42.9378C39.0473 42.9496 39.0102 42.953 38.9739 42.9477L38.1739 42.7997C37.9244 42.9436 37.6627 43.0654 37.3919 43.1637L36.8899 44.0077C36.8704 44.0404 36.8429 44.0676 36.81 44.0868C36.7772 44.106 36.74 44.1167 36.7019 44.1177L34.8419 44.1817L34.8199 44.1997ZM33.2959 42.5177C33.3313 42.5178 33.3662 42.526 33.3979 42.5417C33.6773 42.6841 33.9709 42.7968 34.2739 42.8777C34.3259 42.8915 34.3713 42.9234 34.4019 42.9677L34.9359 43.7417L36.5499 43.6877L37.0279 42.8877C37.0572 42.8396 37.1025 42.8035 37.1559 42.7857C37.4507 42.6814 37.7342 42.5473 38.0019 42.3857C38.0495 42.3577 38.1056 42.3477 38.1599 42.3577L38.9259 42.4977L40.0279 41.3177L39.8279 40.5597C39.8148 40.5059 39.8212 40.4492 39.8459 40.3997C39.9877 40.1216 40.0996 39.8293 40.1799 39.5277C40.1937 39.4751 40.2265 39.4295 40.2719 39.3997L41.0459 38.8657L40.9999 37.2417L40.1999 36.7617C40.1534 36.7344 40.1185 36.691 40.1019 36.6397C39.998 36.3466 39.864 36.065 39.7019 35.7997C39.6716 35.7507 39.6602 35.6924 39.6699 35.6357L39.7999 34.8637L38.6199 33.7637L37.8599 33.9637C37.8061 33.9758 37.7497 33.9695 37.6999 33.9457C37.4257 33.8016 37.1375 33.6856 36.8399 33.5997C36.7874 33.5858 36.7414 33.554 36.7099 33.5097L36.1739 32.7397L34.5619 32.7997L34.0799 33.5997C34.0595 33.6357 34.0289 33.665 33.9919 33.6837L33.9459 33.7037C33.6556 33.8039 33.3767 33.9347 33.1139 34.0937C33.0664 34.1218 33.0102 34.1318 32.9559 34.1217L32.1839 33.9797L31.0819 35.1597L31.2819 35.9197C31.2958 35.9732 31.2901 36.03 31.2659 36.0797C31.1242 36.3566 31.0116 36.6475 30.9299 36.9477C30.9154 37.0004 30.8828 37.0464 30.8379 37.0777L30.0639 37.6117L30.1199 39.2257L30.9199 39.7057C30.9659 39.7335 31.0006 39.7767 31.0179 39.8277C31.1214 40.1228 31.2554 40.4064 31.4179 40.6737C31.4459 40.7213 31.4558 40.7774 31.4459 40.8317L31.3059 41.6017L32.4859 42.7037L33.2419 42.5037C33.26 42.5021 33.2782 42.5035 33.2959 42.5077V42.5177ZM35.5519 41.6377C34.6555 41.6219 33.8016 41.2526 33.1761 40.6103C32.5506 39.9681 32.2041 39.1047 32.212 38.2082C32.2199 37.3117 32.5816 36.4546 33.2184 35.8235C33.8551 35.1923 34.7154 34.8382 35.6119 34.8382C36.5084 34.8382 37.3687 35.1923 38.0054 35.8235C38.6422 36.4546 39.0039 37.3117 39.0118 38.2082C39.0197 39.1047 38.6732 39.9681 38.0477 40.6103C37.4222 41.2526 36.5683 41.6219 35.6719 41.6377H35.5519ZM35.5519 35.2877H35.4479C34.6663 35.3142 33.9273 35.6501 33.3933 36.2215C32.8594 36.793 32.5744 37.5531 32.6009 38.3347C32.6274 39.1163 32.9633 39.8553 33.5348 40.3892C34.1062 40.9231 34.8663 41.2082 35.6479 41.1817C36.4298 41.1687 37.1744 40.8456 37.7181 40.2836C38.2618 39.7215 38.5599 38.9665 38.5469 38.1847C38.5339 37.4028 38.2108 36.6581 37.6488 36.1145C37.0868 35.5708 36.3318 35.2727 35.5499 35.2857L35.5519 35.2877Z" fill="#EBEBEB"/>
<path d="M69.9997 105.512C91.4162 105.512 108.778 104.499 108.778 103.248C108.778 101.998 91.4162 100.984 69.9997 100.984C48.5832 100.984 31.2217 101.998 31.2217 103.248C31.2217 104.499 48.5832 105.512 69.9997 105.512Z" fill="#F5F5F5"/>
<path d="M103.282 36.4902H36.7179C35.082 36.4902 33.7559 37.8164 33.7559 39.4522V82.0102C33.7559 83.6461 35.082 84.9722 36.7179 84.9722H103.282C104.918 84.9722 106.244 83.6461 106.244 82.0102V39.4522C106.244 37.8164 104.918 36.4902 103.282 36.4902Z" fill="white"/>
<path d="M107.052 69.5282H106.852V67.7282H107.052V69.5282ZM107.052 66.3082H106.852V62.5762H107.052V66.3082Z" fill="#536DFE"/>
<path d="M103.282 85.0808H36.7179C35.9041 85.0798 35.1238 84.756 34.5483 84.1805C33.9728 83.605 33.649 82.8247 33.6479 82.0108V39.4528C33.6485 38.6388 33.9721 37.8582 34.5477 37.2826C35.1233 36.707 35.9039 36.3833 36.7179 36.3828H103.282C104.096 36.3833 104.877 36.707 105.452 37.2826C106.028 37.8582 106.351 38.6388 106.352 39.4528V82.0108C106.351 82.8247 106.027 83.605 105.452 84.1805C104.876 84.756 104.096 85.0798 103.282 85.0808ZM36.7179 36.5988C35.9612 36.5993 35.2356 36.9002 34.7005 37.4353C34.1653 37.9704 33.8645 38.696 33.8639 39.4528V82.0108C33.8645 82.7676 34.1653 83.4932 34.7005 84.0283C35.2356 84.5634 35.9612 84.8643 36.7179 84.8648H103.282C104.039 84.8643 104.764 84.5634 105.299 84.0283C105.835 83.4932 106.135 82.7676 106.136 82.0108V39.4528C106.135 38.696 105.835 37.9704 105.299 37.4353C104.764 36.9002 104.039 36.5993 103.282 36.5988H36.7179Z" fill="#536DFE"/>
<path opacity="0.5" d="M57.96 74.948H56.96V74.732H57.96L57.978 74.948H57.96ZM55.944 74.948H54.934V74.732H55.944V74.948ZM53.926 74.948H52.926V74.732H53.926V74.948ZM51.91 74.948H50.9V74.732H51.91V74.948ZM49.892 74.948H48.892V74.732H49.892V74.948ZM47.874 74.948H46.874V74.732H47.874V74.948ZM45.858 74.948H44.858V74.732H45.858V74.948ZM43.84 74.948H42.84V74.732H43.84V74.948ZM41.824 74.948H40.824V74.732H41.824V74.948ZM39.806 74.948H39.43C39.2014 74.9486 38.976 74.8952 38.772 74.792L38.868 74.592C39.0422 74.6801 39.2348 74.726 39.43 74.726H39.8L39.806 74.948ZM58.964 74.548L58.818 74.39C59.0493 74.1772 59.1921 73.8852 59.218 73.572L59.434 73.59C59.4037 73.9583 59.2359 74.3017 58.964 74.552V74.548ZM38.056 73.998C37.9916 73.8287 37.9584 73.6491 37.958 73.468V72.96H38.174V73.468C38.1736 73.6226 38.2021 73.7758 38.258 73.92L38.056 73.998ZM59.432 72.568H59.216V71.568H59.432V72.568ZM38.174 71.96H37.958V70.96H38.174V71.96ZM59.432 70.56H59.216V69.56H59.432V70.56ZM38.174 69.944H37.958V68.944H38.174V69.944ZM59.432 68.544H59.216V67.544H59.432V68.544ZM38.174 67.926H37.958V66.926H38.174V67.926ZM59.432 66.526H59.216V65.526H59.432V66.526ZM38.174 65.91H37.958V64.9H38.174V65.91ZM59.432 64.51H59.216V63.51H59.432V64.51ZM38.174 63.892H37.958V62.892H38.174V63.892ZM59.432 62.492H59.216V61.482H59.432V62.492ZM38.174 61.874H37.958V60.874H38.174V61.874ZM59.432 60.474H59.216V59.474H59.432V60.474ZM38.174 59.858H37.958V58.858H38.174V59.858ZM59.432 58.458H59.216V57.448H59.432V58.458ZM38.174 57.84H37.958V56.84H38.174V57.84ZM59.432 56.44H59.216V55.44H59.432V56.44ZM38.174 55.824H37.958V54.824H38.174V55.824ZM59.432 54.424H59.216V53.424H59.432V54.424ZM38.174 53.798H37.958V52.798H38.174V53.798ZM59.432 52.398H59.216V51.398H59.432V52.398ZM38.174 51.798H37.958V50.788H38.174V51.798ZM59.432 50.398H59.216V49.9C59.2167 49.7432 59.1875 49.5878 59.13 49.442L59.33 49.362C59.3978 49.5332 59.4324 49.7158 59.432 49.9V50.398ZM38.18 49.798L37.964 49.78C37.9957 49.4142 38.1625 49.0733 38.432 48.824L38.58 48.984C38.3522 49.1911 38.2097 49.4755 38.18 49.782V49.798ZM58.516 48.78C58.3433 48.694 58.1529 48.6495 57.96 48.65H57.576V48.418H57.96C58.1861 48.4179 58.4092 48.4699 58.612 48.57L58.516 48.78ZM56.568 48.65H55.568V48.418H56.568V48.65ZM54.55 48.65H53.55V48.418H54.55V48.65ZM52.534 48.65H51.534V48.418H52.534V48.65ZM50.516 48.65H49.516V48.418H50.516V48.65ZM48.5 48.65H47.49V48.418H48.5V48.65ZM46.482 48.65H45.482V48.418H46.482V48.65ZM44.466 48.65H43.466V48.418H44.466V48.65ZM42.448 48.65H41.448V48.418H42.448V48.65ZM40.43 48.65H39.43V48.434H40.43V48.65Z" fill="#536DFE"/>
<path d="M39.4838 39.6103C39.4838 39.7995 39.4277 39.9844 39.3225 40.1416C39.2174 40.2989 39.068 40.4214 38.8932 40.4937C38.7184 40.566 38.526 40.5848 38.3405 40.5478C38.155 40.5107 37.9847 40.4195 37.8511 40.2856C37.7175 40.1517 37.6266 39.9812 37.5899 39.7956C37.5532 39.61 37.5725 39.4177 37.6451 39.2431C37.7178 39.0684 37.8406 38.9192 37.9981 38.8144C38.1556 38.7096 38.3406 38.6539 38.5298 38.6543C38.783 38.6548 39.0256 38.7558 39.2045 38.935C39.3833 39.1142 39.4838 39.3571 39.4838 39.6103Z" fill="#536DFE"/>
<path opacity="0.2" d="M45.7518 40.1688H41.0698C40.9218 40.1683 40.7799 40.1094 40.6751 40.0049C40.5702 39.9004 40.5108 39.7588 40.5098 39.6108C40.5103 39.4624 40.5695 39.3203 40.6744 39.2154C40.7793 39.1105 40.9214 39.0513 41.0698 39.0508H45.7518C45.9001 39.0513 46.0423 39.1105 46.1472 39.2154C46.2521 39.3203 46.3112 39.4624 46.3118 39.6108C46.3107 39.7588 46.2513 39.9004 46.1465 40.0049C46.0416 40.1094 45.8998 40.1683 45.7518 40.1688Z" fill="#536DFE"/>
<path opacity="0.2" d="M68.3318 39.9167H65.0458C64.9646 39.9167 64.8868 39.8845 64.8294 39.8271C64.772 39.7697 64.7398 39.6919 64.7398 39.6107C64.7395 39.5704 64.7472 39.5305 64.7625 39.4933C64.7778 39.456 64.8003 39.4222 64.8288 39.3937C64.8573 39.3653 64.8911 39.3427 64.9283 39.3274C64.9656 39.3122 65.0055 39.3044 65.0458 39.3047H68.3318C68.372 39.3044 68.4119 39.3122 68.4492 39.3274C68.4864 39.3427 68.5203 39.3653 68.5487 39.3937C68.5772 39.4222 68.5997 39.456 68.615 39.4933C68.6303 39.5305 68.638 39.5704 68.6378 39.6107C68.6378 39.6919 68.6055 39.7697 68.5481 39.8271C68.4907 39.8845 68.4129 39.9167 68.3318 39.9167Z" fill="#536DFE"/>
<path opacity="0.2" d="M75.7058 39.9167H72.4198C72.3388 39.9162 72.2612 39.8838 72.204 39.8265C72.1467 39.7692 72.1143 39.6917 72.1138 39.6107C72.1138 39.5295 72.146 39.4517 72.2034 39.3943C72.2608 39.3369 72.3386 39.3047 72.4198 39.3047H75.7058C75.746 39.3044 75.7859 39.3122 75.8232 39.3274C75.8604 39.3427 75.8943 39.3653 75.9227 39.3937C75.9512 39.4222 75.9737 39.456 75.989 39.4933C76.0043 39.5305 76.012 39.5704 76.0118 39.6107C76.0118 39.6919 75.9795 39.7697 75.9221 39.8271C75.8648 39.8845 75.7869 39.9167 75.7058 39.9167Z" fill="#536DFE"/>
<path opacity="0.2" d="M83.0801 39.9167H79.8001C79.7191 39.9162 79.6416 39.8838 79.5843 39.8265C79.5271 39.7692 79.4947 39.6917 79.4941 39.6107C79.4941 39.5295 79.5264 39.4517 79.5838 39.3943C79.6412 39.3369 79.719 39.3047 79.8001 39.3047H83.0801C83.1205 39.3044 83.1605 39.3122 83.1979 39.3274C83.2352 39.3427 83.2692 39.3652 83.2978 39.3936C83.3264 39.4221 83.3492 39.4559 83.3647 39.4931C83.3802 39.5304 83.3881 39.5703 83.3881 39.6107C83.3876 39.692 83.3549 39.7699 83.2972 39.8272C83.2395 39.8845 83.1615 39.9167 83.0801 39.9167Z" fill="#536DFE"/>
<path opacity="0.2" d="M90.4558 39.9167H87.1678C87.0868 39.9162 87.0093 39.8838 86.952 39.8265C86.8947 39.7692 86.8623 39.6917 86.8618 39.6107C86.8618 39.5295 86.8941 39.4517 86.9514 39.3943C87.0088 39.3369 87.0867 39.3047 87.1678 39.3047H90.4558C90.537 39.3047 90.6148 39.3369 90.6722 39.3943C90.7296 39.4517 90.7618 39.5295 90.7618 39.6107C90.7613 39.6917 90.7289 39.7692 90.6716 39.8265C90.6143 39.8838 90.5368 39.9162 90.4558 39.9167Z" fill="#536DFE"/>
<path opacity="0.7" d="M99.8919 40.1504H94.9199C94.7767 40.1504 94.6393 40.0935 94.5381 39.9922C94.4368 39.8909 94.3799 39.7536 94.3799 39.6104C94.3796 39.5393 94.3934 39.4688 94.4204 39.4031C94.4474 39.3373 94.4872 39.2776 94.5373 39.2272C94.5875 39.1769 94.6471 39.1369 94.7128 39.1097C94.7784 39.0824 94.8488 39.0684 94.9199 39.0684H99.8919C99.963 39.0684 100.033 39.0824 100.099 39.1097C100.165 39.1369 100.224 39.1769 100.274 39.2272C100.325 39.2776 100.364 39.3373 100.391 39.4031C100.418 39.4688 100.432 39.5393 100.432 39.6104C100.432 39.7536 100.375 39.8909 100.274 39.9922C100.172 40.0935 100.035 40.1504 99.8919 40.1504Z" fill="#536DFE"/>
<path opacity="0.7" d="M75.2037 74.1465H65.8917C65.2555 74.1465 64.7397 74.6623 64.7397 75.2985V75.5485C64.7397 76.1847 65.2555 76.7005 65.8917 76.7005H75.2037C75.84 76.7005 76.3557 76.1847 76.3557 75.5485V75.2985C76.3557 74.6623 75.84 74.1465 75.2037 74.1465Z" fill="#536DFE"/>
<path opacity="0.2" d="M99.8198 62.737V53.013C99.8196 52.9728 99.8273 52.9329 99.8426 52.8956C99.8579 52.8584 99.8804 52.8245 99.9089 52.7961C99.9373 52.7676 99.9712 52.7451 100.008 52.7298C100.046 52.7145 100.086 52.7068 100.126 52.707C100.207 52.707 100.285 52.7393 100.342 52.7967C100.4 52.8541 100.432 52.9319 100.432 53.013V62.737C100.432 62.8182 100.4 62.896 100.342 62.9534C100.285 63.0108 100.207 63.043 100.126 63.043C100.086 63.0433 100.046 63.0356 100.008 63.0203C99.9712 63.005 99.9373 62.9825 99.9089 62.954C99.8804 62.9255 99.8579 62.8917 99.8426 62.8545C99.8273 62.8172 99.8196 62.7773 99.8198 62.737Z" fill="#536DFE"/>
<path opacity="0.2" d="M100.126 65.8171C100.295 65.8171 100.432 65.6801 100.432 65.5111C100.432 65.3421 100.295 65.2051 100.126 65.2051C99.9568 65.2051 99.8198 65.3421 99.8198 65.5111C99.8198 65.6801 99.9568 65.8171 100.126 65.8171Z" fill="#536DFE"/>
<path opacity="0.2" d="M100.126 70.1413C100.295 70.1413 100.432 70.0043 100.432 69.8353C100.432 69.6663 100.295 69.5293 100.126 69.5293C99.9568 69.5293 99.8198 69.6663 99.8198 69.8353C99.8198 70.0043 99.9568 70.1413 100.126 70.1413Z" fill="#536DFE"/>
<path opacity="0.2" d="M100.126 74.4655C100.295 74.4655 100.432 74.3285 100.432 74.1595C100.432 73.9905 100.295 73.8535 100.126 73.8535C99.9568 73.8535 99.8198 73.9905 99.8198 74.1595C99.8198 74.3285 99.9568 74.4655 100.126 74.4655Z" fill="#536DFE"/>
<path opacity="0.2" d="M90.8877 48.5273H67.1957C65.8393 48.5273 64.7397 49.6265 64.7397 50.9823C64.7397 52.3382 65.8393 53.4373 67.1957 53.4373H90.8877C92.2442 53.4373 93.3437 52.3382 93.3437 50.9823C93.3437 49.6265 92.2442 48.5273 90.8877 48.5273Z" fill="#536DFE"/>
<path opacity="0.2" d="M82.2001 60.5663H67.2001C66.5493 60.5647 65.9255 60.3054 65.4652 59.8452C65.005 59.385 64.7457 58.7612 64.7441 58.1103C64.7457 57.4594 65.005 56.8356 65.4652 56.3754C65.9255 55.9151 66.5493 55.6559 67.2001 55.6543H82.2001C82.8507 55.6564 83.4739 55.9159 83.9338 56.3761C84.3936 56.8363 84.6526 57.4598 84.6541 58.1103C84.6526 58.7608 84.3936 59.3843 83.9338 59.8445C83.4739 60.3047 82.8507 60.5642 82.2001 60.5663Z" fill="#536DFE"/>
<path d="M86.5997 66.3082H65.3137C65.1617 66.3076 65.016 66.247 64.9085 66.1395C64.8009 66.0319 64.7403 65.8862 64.7397 65.7342C64.7403 65.5821 64.8009 65.4364 64.9085 65.3289C65.016 65.2213 65.1617 65.1607 65.3137 65.1602H86.5997C86.7518 65.1607 86.8975 65.2213 87.005 65.3289C87.1126 65.4364 87.1732 65.5821 87.1737 65.7342C87.1732 65.8862 87.1126 66.0319 87.005 66.1395C86.8975 66.247 86.7518 66.3076 86.5997 66.3082Z" fill="#EBEBEB"/>
<path d="M91.6099 66.3082H89.4319C89.2798 66.3076 89.1341 66.247 89.0266 66.1395C88.9191 66.0319 88.8584 65.8862 88.8579 65.7342C88.8584 65.5821 88.9191 65.4364 89.0266 65.3289C89.1341 65.2213 89.2798 65.1607 89.4319 65.1602H91.6099C91.762 65.1607 91.9077 65.2213 92.0152 65.3289C92.1227 65.4364 92.1834 65.5821 92.1839 65.7342C92.1834 65.8862 92.1227 66.0319 92.0152 66.1395C91.9077 66.247 91.762 66.3076 91.6099 66.3082Z" fill="#EBEBEB"/>
<path d="M74.6941 67.5371H83.8481C84.0002 67.5376 84.1459 67.5983 84.2534 67.7058C84.3609 67.8133 84.4216 67.959 84.4221 68.1111C84.4216 68.2632 84.3609 68.4089 84.2534 68.5164C84.1459 68.6239 84.0002 68.6846 83.8481 68.6851H74.6941C74.542 68.6846 74.3964 68.6239 74.2888 68.5164C74.1813 68.4089 74.1206 68.2632 74.1201 68.1111C74.1206 67.959 74.1813 67.8133 74.2888 67.7058C74.3964 67.5983 74.542 67.5376 74.6941 67.5371Z" fill="#EBEBEB"/>
<path d="M65.3137 67.5371H71.8677C72.0198 67.5376 72.1655 67.5983 72.273 67.7058C72.3806 67.8133 72.4412 67.959 72.4417 68.1111C72.4412 68.2632 72.3806 68.4089 72.273 68.5164C72.1655 68.6239 72.0198 68.6846 71.8677 68.6851H65.3137C65.1617 68.6846 65.016 68.6239 64.9085 68.5164C64.8009 68.4089 64.7403 68.2632 64.7397 68.1111C64.7403 67.959 64.8009 67.8133 64.9085 67.7058C65.016 67.5983 65.1617 67.5376 65.3137 67.5371Z" fill="#EBEBEB"/>
<path d="M78.2117 71.0601H65.3137C65.1617 71.0596 65.016 70.9989 64.9085 70.8914C64.8009 70.7839 64.7403 70.6382 64.7397 70.4861C64.7403 70.334 64.8009 70.1883 64.9085 70.0808C65.016 69.9733 65.1617 69.9126 65.3137 69.9121H78.2117C78.3638 69.9126 78.5095 69.9733 78.617 70.0808C78.7246 70.1883 78.7852 70.334 78.7857 70.4861C78.7852 70.6382 78.7246 70.7839 78.617 70.8914C78.5095 70.9989 78.3638 71.0596 78.2117 71.0601Z" fill="#EBEBEB"/>
<path d="M87.5999 71.0601H81.0359C80.8838 71.0596 80.7381 70.9989 80.6306 70.8914C80.5231 70.7839 80.4624 70.6382 80.4619 70.4861C80.4624 70.334 80.5231 70.1883 80.6306 70.0808C80.7381 69.9733 80.8838 69.9126 81.0359 69.9121H87.5999C87.752 69.9126 87.8977 69.9733 88.0052 70.0808C88.1127 70.1883 88.1734 70.334 88.1739 70.4861C88.1734 70.6382 88.1127 70.7839 88.0052 70.8914C87.8977 70.9989 87.752 71.0596 87.5999 71.0601Z" fill="#EBEBEB"/>
<path d="M59.0528 45.3781L40.8027 48.8529C40.0757 48.9913 39.5985 49.6929 39.737 50.4199L44.1571 73.6348C44.2955 74.3618 44.997 74.839 45.724 74.7005L63.9742 71.2257C64.7012 71.0873 65.1783 70.3858 65.0399 69.6588L60.6198 46.4438C60.4814 45.7168 59.7798 45.2397 59.0528 45.3781Z" fill="#536DFE"/>
<g opacity="0.2">
<path d="M45.0239 73.8979C45.0072 73.8977 44.9908 73.8936 44.9759 73.8859C44.9529 73.8728 44.9359 73.8513 44.9285 73.826C44.921 73.8006 44.9237 73.7733 44.9359 73.7499L59.6599 46.2339C59.6663 46.2223 59.6748 46.2121 59.685 46.2039C59.6953 46.1956 59.707 46.1894 59.7197 46.1857C59.7323 46.182 59.7455 46.1808 59.7586 46.1822C59.7717 46.1836 59.7844 46.1876 59.7959 46.1939C59.8075 46.2002 59.8177 46.2087 59.826 46.2189C59.8342 46.2292 59.8404 46.241 59.8441 46.2536C59.8478 46.2662 59.849 46.2795 59.8476 46.2926C59.8462 46.3056 59.8422 46.3183 59.8359 46.3299L45.1119 73.8439C45.1034 73.8599 45.0908 73.8733 45.0753 73.8828C45.0598 73.8923 45.0421 73.8975 45.0239 73.8979Z" fill="white"/>
<path d="M64.2881 70.2308C64.2647 70.2304 64.242 70.222 64.2241 70.2068L40.4241 50.0268C40.414 50.0185 40.4056 50.0083 40.3995 49.9967C40.3934 49.9851 40.3897 49.9724 40.3885 49.9594C40.3874 49.9463 40.3889 49.9332 40.393 49.9207C40.397 49.9083 40.4035 49.8967 40.4121 49.8868C40.4295 49.8667 40.4541 49.8542 40.4807 49.8519C40.5072 49.8497 40.5336 49.8579 40.5541 49.8748L64.3541 70.0528C64.3738 70.0705 64.386 70.0951 64.3883 70.1215C64.3905 70.1478 64.3826 70.1741 64.3661 70.1948C64.3566 70.2063 64.3447 70.2154 64.3312 70.2216C64.3177 70.2279 64.303 70.231 64.2881 70.2308Z" fill="white"/>
</g>
<path d="M61.9541 72.8145C61.9541 72.8145 64.5541 81.8805 65.6221 86.3325C66.7341 91.0085 70.0401 98.0765 70.3161 101.176C70.6021 101.29 71.5281 101.162 72.0221 100.922C72.0221 100.922 71.5701 91.0405 68.8821 86.5405C69.4821 75.4625 66.4821 72.8145 66.4821 72.8145H61.9541Z" fill="#536DFE"/>
<path opacity="0.1" d="M65.3342 77.3691L63.8662 79.6231C64.3322 81.3231 64.8082 83.0951 65.1962 84.6231C65.6002 81.9811 65.3342 77.3691 65.3342 77.3691Z" fill="black"/>
<path d="M67.3383 65.0018C67.3803 65.1258 67.4103 65.2138 67.4403 65.3178C67.4703 65.4218 67.4963 65.5178 67.5243 65.6138C67.5783 65.8138 67.6203 66.0138 67.6623 66.2138C67.7432 66.6104 67.8033 67.011 67.8423 67.4138C67.8857 67.8216 67.9031 68.2318 67.8943 68.6418C67.8898 69.0583 67.8564 69.474 67.7943 69.8858V69.9538C67.7873 70.0001 67.7759 70.0457 67.7603 70.0898C67.669 70.3321 67.5333 70.5552 67.3603 70.7478C67.2162 70.9065 67.0538 71.0475 66.8763 71.1678C66.577 71.3633 66.2519 71.5161 65.9103 71.6218C65.6044 71.7144 65.2914 71.7813 64.9743 71.8218C64.6642 71.8642 64.3513 71.8823 64.0383 71.8758C63.9158 71.8718 63.7981 71.8266 63.7044 71.7476C63.6106 71.6686 63.5462 71.5603 63.5215 71.4402C63.4967 71.3201 63.5132 71.1951 63.5681 71.0855C63.6231 70.9759 63.7133 70.8879 63.8243 70.8358L63.8703 70.8138C64.0983 70.7098 64.3563 70.5998 64.5883 70.4858C64.8164 70.3759 65.0387 70.2544 65.2543 70.1218C65.4378 70.0093 65.607 69.875 65.7583 69.7218C65.8823 69.5938 65.9163 69.4778 65.8963 69.4698L65.8523 69.6698C65.8523 69.3378 65.8523 69.0078 65.8323 68.6698C65.8123 68.3318 65.7703 67.9978 65.7163 67.6698C65.6623 67.3418 65.6043 66.9918 65.5283 66.6578C65.4923 66.4898 65.4503 66.3218 65.4103 66.1558L65.3483 65.9118L65.2883 65.6898L65.2723 65.6318C65.2159 65.3665 65.261 65.0896 65.3987 64.8558C65.5365 64.6221 65.7569 64.4485 66.0164 64.3694C66.2759 64.2903 66.5557 64.3113 66.8004 64.4284C67.0452 64.5455 67.2371 64.7501 67.3383 65.0018Z" fill="#FF8B7B"/>
<path d="M64.7163 70.8493L63.4103 70.4773C63.2232 70.4227 63.0227 70.4384 62.8463 70.5213L62.3583 70.7433C62.3014 70.7692 62.2502 70.8063 62.2078 70.8524C62.1654 70.8984 62.1326 70.9524 62.1114 71.0113C62.0901 71.0702 62.0809 71.1327 62.0841 71.1952C62.0874 71.2577 62.1031 71.3189 62.1303 71.3753L62.3583 71.8473C62.4037 71.9425 62.48 72.0197 62.5747 72.0661C62.6695 72.1126 62.7772 72.1257 62.8803 72.1033L63.7563 71.9133C63.7563 71.9133 64.7403 71.9773 65.0883 71.3933L64.7163 70.8493Z" fill="#FF8B7B"/>
<path d="M65.8981 63.1699C65.1981 63.8959 64.8241 64.9899 65.3921 67.0799C66.1401 67.4499 67.9521 66.9699 67.9521 66.9699C67.9521 66.9699 67.9781 63.8299 65.8981 63.1699Z" fill="#536DFE"/>
<path opacity="0.7" d="M65.8981 63.1699C65.1981 63.8959 64.8241 64.9899 65.3921 67.0799C66.1401 67.4499 67.9521 66.9699 67.9521 66.9699C67.9521 66.9699 67.9781 63.8299 65.8981 63.1699Z" fill="white"/>
<path d="M67.1681 64.6272C67.1594 64.6272 67.1507 64.6289 67.1427 64.6324C67.1346 64.6359 67.1274 64.641 67.1214 64.6473C67.1154 64.6537 67.1108 64.6612 67.1078 64.6695C67.1048 64.6777 67.1036 64.6865 67.1041 64.6952C67.1051 64.712 67.1125 64.7278 67.1248 64.7393C67.1371 64.7508 67.1533 64.7572 67.1701 64.7572L67.4961 64.7452C67.4781 64.7032 67.4581 64.6592 67.4381 64.6172L67.1681 64.6272Z" fill="#263238"/>
<path d="M67.0921 65.9191C67.0798 65.9071 67.0633 65.9004 67.0461 65.9004C67.029 65.9004 67.0125 65.9071 67.0001 65.9191C66.9939 65.9252 66.989 65.9325 66.9856 65.9406C66.9822 65.9487 66.9805 65.9573 66.9805 65.9661C66.9805 65.9748 66.9822 65.9835 66.9856 65.9915C66.989 65.9996 66.9939 66.0069 67.0001 66.0131L67.9401 66.8131C67.9401 66.7631 67.9401 66.7031 67.9301 66.6331L67.0921 65.9191Z" fill="#263238"/>
<path d="M65.2005 66.1513L66.2585 65.4873C66.2734 65.478 66.2839 65.4632 66.2879 65.4461C66.2918 65.4291 66.2888 65.4111 66.2795 65.3963C66.2702 65.3814 66.2554 65.3709 66.2384 65.3669C66.2213 65.363 66.2034 65.366 66.1885 65.3753L65.1765 66.0113C65.1745 66.0573 65.1845 66.1053 65.2005 66.1513Z" fill="#536DFE"/>
<path d="M64.1062 60.0391C63.9742 60.9571 63.8802 62.6231 64.5302 63.1451C64.5302 63.1451 63.6723 63.1231 62.0203 64.4491C61.4203 63.7691 61.7662 63.4851 61.7662 63.4851C62.7462 63.1251 62.6862 62.3851 62.4802 61.7091L64.1062 60.0391Z" fill="#FF8B7B"/>
<path d="M61.5121 58.9178C61.4821 59.0378 61.3941 59.1178 61.3121 59.1178C61.2301 59.1178 61.1961 58.9958 61.2261 58.8758C61.2561 58.7558 61.3421 58.6758 61.4261 58.6758C61.5101 58.6758 61.5421 58.8018 61.5121 58.9178Z" fill="#263238"/>
<path d="M61.4583 58.6887L61.1963 58.5547C61.1963 58.5547 61.2843 58.8007 61.4583 58.6887Z" fill="#263238"/>
<path d="M61.4602 59.1445C61.2858 59.3998 61.0794 59.6316 60.8462 59.8345C60.8967 59.8891 60.959 59.9314 61.0283 59.9585C61.0976 59.9855 61.1721 59.9964 61.2462 59.9905L61.4602 59.1445Z" fill="#FF5652"/>
<path d="M61.4101 57.9276C61.4066 57.9194 61.4048 57.9106 61.4048 57.9016C61.4048 57.8927 61.4066 57.8838 61.4101 57.8756C61.4176 57.8582 61.4317 57.8444 61.4493 57.8373C61.4669 57.8302 61.4866 57.8303 61.5041 57.8376C61.6143 57.8747 61.7145 57.9368 61.7967 58.0191C61.8789 58.1013 61.941 58.2014 61.9781 58.3116C61.9805 58.3206 61.9809 58.3299 61.9794 58.3391C61.9779 58.3482 61.9745 58.3569 61.9694 58.3647C61.9643 58.3724 61.9576 58.379 61.9498 58.384C61.942 58.389 61.9333 58.3923 61.9241 58.3936C61.9052 58.3964 61.8859 58.3922 61.8697 58.3819C61.8536 58.3717 61.8417 58.3559 61.8361 58.3376C61.8056 58.2506 61.7555 58.1718 61.6896 58.1072C61.6237 58.0427 61.5438 57.9943 61.4561 57.9656C61.446 57.9634 61.4366 57.9587 61.4286 57.9521C61.4206 57.9455 61.4143 57.9371 61.4101 57.9276Z" fill="#263238"/>
<path d="M65.5264 59.1812C65.1064 60.5812 64.9584 61.1972 64.0664 61.8012C62.7224 62.7112 61.0844 61.9852 61.0664 60.5012C61.0664 59.1652 61.7464 57.0832 63.2784 56.7612C63.6057 56.6795 63.9489 56.6871 64.2723 56.7832C64.5956 56.8793 64.8873 57.0603 65.1169 57.3075C65.3465 57.5546 65.5056 57.8588 65.5776 58.1884C65.6496 58.518 65.632 58.8608 65.5264 59.1812Z" fill="#FF8B7B"/>
<path d="M62.2624 59.2682C61.4264 58.6682 61.8344 57.5843 62.6004 57.5503C61.6004 56.8503 62.1224 55.5843 63.3444 55.6343C64.5664 55.6843 64.7444 56.4343 64.7444 56.4343C64.7444 56.4343 66.7164 56.5343 66.9924 57.9663C67.3184 59.6543 66.2884 60.7343 65.0204 61.2343C65.8824 61.9403 63.8504 62.4343 62.8384 61.8663C61.8264 61.2983 61.4404 60.0202 62.2624 59.2682Z" fill="#263238"/>
<path d="M66.9004 57.3757C65.8264 57.1757 65.2864 58.6637 65.9864 59.5317C66.0891 59.6621 66.2104 59.7766 66.3464 59.8717C66.4483 59.9376 66.5655 59.9758 66.6866 59.9827C66.8077 59.9897 66.9285 59.965 67.0372 59.9111C67.1459 59.8573 67.2387 59.7761 67.3066 59.6756C67.3745 59.5751 67.4151 59.4586 67.4244 59.3377C67.4824 58.6237 67.4804 57.4817 66.9004 57.3757Z" fill="white"/>
<path d="M69.8182 58.1347C69.8567 58.109 69.8893 58.0753 69.9138 58.036C69.9382 57.9967 69.9541 57.9526 69.9602 57.9067C70.0062 57.4867 69.6882 57.2127 69.3062 57.1527C69.0762 56.4227 68.1062 56.4087 67.5602 56.9327C67.1122 56.7047 66.6162 57.2067 66.6762 57.7327C66.2062 57.9327 66.0762 58.7327 66.5122 59.1767C66.5883 59.2561 66.676 59.3235 66.7722 59.3767C66.7926 59.3874 66.8141 59.3961 66.8362 59.4027C66.8595 59.5668 66.9326 59.7198 67.0456 59.8411C67.1586 59.9623 67.3061 60.0459 67.4682 60.0807C67.5569 60.0993 67.6479 60.1047 67.7382 60.0967C67.8034 60.0898 67.8657 60.0656 67.9184 60.0266C67.9712 59.9875 68.0125 59.9351 68.0382 59.8747C68.3502 60.1307 68.6842 60.2987 68.9222 60.1327C69.0334 60.0586 69.1234 59.9566 69.183 59.837C69.2427 59.7174 69.27 59.5842 69.2622 59.4507C69.332 59.4865 69.4098 59.5038 69.4883 59.501C69.5667 59.4982 69.6431 59.4754 69.7102 59.4347C70.1702 59.1207 70.1302 58.5487 69.8182 58.1347Z" fill="#263238"/>
<path d="M62.7204 59.4802C62.6503 59.6022 62.5553 59.7079 62.4416 59.7906C62.3279 59.8733 62.198 59.9311 62.0604 59.9602C61.7164 60.0182 61.6064 59.6222 61.7524 59.2482C61.8844 58.9122 62.2224 58.4762 62.5524 58.5882C62.8824 58.7002 62.9204 59.1582 62.7204 59.4802Z" fill="#FF8B7B"/>
<path d="M62.2622 58.4341C62.5562 57.8721 64.1662 56.3381 65.2382 56.3941C65.458 56.455 65.6706 56.5395 65.8722 56.6461C65.8803 56.65 65.8868 56.6564 65.8907 56.6645C65.8947 56.6725 65.8958 56.6816 65.894 56.6903C65.8921 56.6991 65.8874 56.707 65.8806 56.7127C65.8737 56.7185 65.8651 56.7218 65.8562 56.7221C65.4362 56.7721 64.0722 57.0881 62.7922 59.1001C62.5709 58.9176 62.3904 58.6907 62.2622 58.4341Z" fill="#536DFE"/>
<path d="M62.9041 59.5776C62.6461 60.1516 62.1281 60.4796 61.7461 60.3076C61.3641 60.1356 61.2641 59.5316 61.5221 58.9556C61.7801 58.3796 62.3001 58.0536 62.6821 58.2256C63.0641 58.3976 63.1621 59.0016 62.9041 59.5776Z" fill="white"/>
<path d="M62.5885 59.4342C62.3565 59.9522 61.9085 60.2582 61.5885 60.1142C61.2685 59.9702 61.2005 59.4342 61.4345 58.9142C61.6685 58.3942 62.1145 58.0902 62.4345 58.2322C62.7545 58.3742 62.8225 58.9142 62.5885 59.4342Z" fill="#536DFE"/>
<path d="M69.4544 103.244C70.5764 103.076 70.5984 102.89 71.2004 102.678C71.7164 102.496 71.8624 102.524 72.2784 102.382C72.6264 102.266 72.5084 101.934 72.2784 101.582C72.173 101.371 72.0867 101.15 72.0204 100.924L70.3144 101.178C70.1484 101.654 70.0884 102.264 69.1144 102.612C68.5364 102.82 69.0004 103.31 69.4544 103.244Z" fill="#263238"/>
<path d="M59.0463 103.247C60.1623 103.247 60.3763 103.173 61.0043 103.151C61.5423 103.133 61.6303 103.247 62.1763 103.247C62.5363 103.247 62.5863 102.847 62.4543 102.535C62.3676 102.264 62.3007 101.986 62.2543 101.705H60.7163C60.4383 102.193 59.6803 102.553 58.8343 102.615C58.2363 102.659 58.6003 103.247 59.0463 103.247Z" fill="#263238"/>
<path d="M60.3505 72.8145C60.3505 72.8145 60.1285 80.8464 60.6045 85.9485C60.5745 90.7365 60.7225 101.704 60.7225 101.704C60.7585 101.948 62.0445 101.85 62.2605 101.704C62.2605 101.704 64.6605 93.7164 63.5985 85.9485C66.2725 77.8465 65.6965 72.8145 65.6965 72.8145H60.3505Z" fill="#536DFE"/>
<path d="M70.0924 100.555C70.1193 100.767 70.1306 100.981 70.1264 101.195C70.1256 101.213 70.1285 101.231 70.1349 101.248C70.1412 101.265 70.151 101.281 70.1635 101.294C70.176 101.307 70.1911 101.317 70.2077 101.324C70.2244 101.332 70.2423 101.335 70.2604 101.335C70.9004 101.335 71.7824 101.063 72.0604 100.969C72.0861 100.96 72.1083 100.943 72.1241 100.921C72.1398 100.899 72.1483 100.872 72.1484 100.845V100.245C72.1487 100.226 72.1447 100.207 72.1368 100.189C72.1288 100.171 72.117 100.156 72.1024 100.143C72.0877 100.131 72.0704 100.121 72.0517 100.116C72.0331 100.111 72.0135 100.11 71.9944 100.113L70.1944 100.415C70.1632 100.422 70.1355 100.44 70.1167 100.466C70.0979 100.492 70.0893 100.523 70.0924 100.555Z" fill="#536DFE"/>
<path opacity="0.5" d="M70.0924 100.555C70.1193 100.767 70.1306 100.981 70.1264 101.195C70.1256 101.213 70.1285 101.231 70.1349 101.248C70.1412 101.265 70.151 101.281 70.1635 101.294C70.176 101.307 70.1911 101.317 70.2077 101.324C70.2244 101.332 70.2423 101.335 70.2604 101.335C70.9004 101.335 71.7824 101.063 72.0604 100.969C72.0861 100.96 72.1083 100.943 72.1241 100.921C72.1398 100.899 72.1483 100.872 72.1484 100.845V100.245C72.1487 100.226 72.1447 100.207 72.1368 100.189C72.1288 100.171 72.117 100.156 72.1024 100.143C72.0877 100.131 72.0704 100.121 72.0517 100.116C72.0331 100.111 72.0135 100.11 71.9944 100.113L70.1944 100.415C70.1632 100.422 70.1355 100.44 70.1167 100.466C70.0979 100.492 70.0893 100.523 70.0924 100.555Z" fill="white"/>
<path d="M60.5464 101.029C60.5464 101.197 60.5304 101.493 60.5164 101.711C60.5141 101.746 60.5255 101.781 60.5482 101.808C60.5709 101.835 60.6032 101.853 60.6384 101.857C61.2037 101.904 61.7722 101.898 62.3364 101.839C62.3635 101.836 62.389 101.824 62.4091 101.806C62.4293 101.788 62.443 101.763 62.4484 101.737L62.5624 101.137C62.5658 101.117 62.565 101.097 62.5601 101.077C62.5551 101.058 62.5461 101.04 62.5336 101.025C62.5211 101.009 62.5054 100.996 62.4876 100.987C62.4698 100.978 62.4503 100.973 62.4304 100.973L60.6784 100.905C60.6615 100.903 60.6445 100.906 60.6285 100.912C60.6125 100.917 60.5979 100.926 60.5855 100.938C60.5731 100.95 60.5633 100.964 60.5565 100.979C60.5498 100.995 60.5464 101.012 60.5464 101.029Z" fill="#536DFE"/>
<path opacity="0.5" d="M60.5464 101.029C60.5464 101.197 60.5304 101.493 60.5164 101.711C60.5141 101.746 60.5255 101.781 60.5482 101.808C60.5709 101.835 60.6032 101.853 60.6384 101.857C61.2037 101.904 61.7722 101.898 62.3364 101.839C62.3635 101.836 62.389 101.824 62.4091 101.806C62.4293 101.788 62.443 101.763 62.4484 101.737L62.5624 101.137C62.5658 101.117 62.565 101.097 62.5601 101.077C62.5551 101.058 62.5461 101.04 62.5336 101.025C62.5211 101.009 62.5054 100.996 62.4876 100.987C62.4698 100.978 62.4503 100.973 62.4304 100.973L60.6784 100.905C60.6615 100.903 60.6445 100.906 60.6285 100.912C60.6125 100.917 60.5979 100.926 60.5855 100.938C60.5731 100.95 60.5633 100.964 60.5565 100.979C60.5498 100.995 60.5464 101.012 60.5464 101.029Z" fill="white"/>
<path d="M59.3342 66.0821C59.4142 67.014 59.5417 67.9412 59.7162 68.8601C59.9162 70.0601 60.0562 71.2381 60.3402 73.2221C63.0982 73.5121 66.3402 73.2781 66.4822 72.8221C66.2662 71.1041 66.2822 68.7841 66.8822 64.7941C66.9216 64.5844 66.9136 64.3685 66.8589 64.1623C66.8042 63.956 66.704 63.7646 66.5658 63.6021C66.4276 63.4395 66.2548 63.3099 66.06 63.2227C65.8653 63.1355 65.6535 63.0929 65.4402 63.0981C65.1962 63.0981 64.9382 63.1141 64.6742 63.1341C63.7459 63.1813 62.8222 63.295 61.9102 63.4741C61.6142 63.5381 61.3102 63.6141 61.0142 63.6921C60.5015 63.8355 60.0541 64.1519 59.7479 64.5874C59.4418 65.023 59.2956 65.5511 59.3342 66.0821Z" fill="#536DFE"/>
<path opacity="0.8" d="M59.3342 66.0821C59.4142 67.014 59.5417 67.9412 59.7162 68.8601C59.9162 70.0601 60.0562 71.2381 60.3402 73.2221C63.0982 73.5121 66.3402 73.2781 66.4822 72.8221C66.2662 71.1041 66.2822 68.7841 66.8822 64.7941C66.9216 64.5844 66.9136 64.3685 66.8589 64.1623C66.8042 63.956 66.704 63.7646 66.5658 63.6021C66.4276 63.4395 66.2548 63.3099 66.06 63.2227C65.8653 63.1355 65.6535 63.0929 65.4402 63.0981C65.1962 63.0981 64.9382 63.1141 64.6742 63.1341C63.7459 63.1813 62.8222 63.295 61.9102 63.4741C61.6142 63.5381 61.3102 63.6141 61.0142 63.6921C60.5015 63.8355 60.0541 64.1519 59.7479 64.5874C59.4418 65.023 59.2956 65.5511 59.3342 66.0821Z" fill="white"/>
<path d="M59.8262 64.479L60.1482 64.879C60.1542 64.8865 60.1618 64.8925 60.1704 64.8967C60.1791 64.9009 60.1886 64.903 60.1982 64.903C60.2134 64.9037 60.2284 64.8987 60.2402 64.889C60.2536 64.878 60.2621 64.8623 60.264 64.845C60.2659 64.8278 60.2609 64.8106 60.2502 64.797L59.9142 64.375C59.8842 64.401 59.8542 64.443 59.8262 64.479Z" fill="#263238"/>
<path d="M61.2942 64.2421C61.3108 64.2417 61.3268 64.2351 61.339 64.2237C61.3511 64.2122 61.3587 64.1967 61.3602 64.1801L61.3962 63.5801L61.2622 63.6141L61.2282 64.1641C61.2264 64.1737 61.2268 64.1836 61.2293 64.193C61.2318 64.2025 61.2364 64.2113 61.2427 64.2187C61.249 64.2262 61.2569 64.2322 61.2658 64.2362C61.2747 64.2402 61.2844 64.2422 61.2942 64.2421Z" fill="#536DFE"/>
<path d="M64.1682 64.7739C64.1806 64.7777 64.1938 64.7777 64.2062 64.7739C64.22 64.7735 64.2334 64.7687 64.2444 64.7603C64.2554 64.7518 64.2635 64.7401 64.2675 64.7268C64.2715 64.7136 64.2712 64.6994 64.2666 64.6863C64.2621 64.6732 64.2535 64.6618 64.2422 64.6539L62.5602 63.5439C62.5455 63.5345 62.5277 63.5311 62.5106 63.5345C62.4935 63.5378 62.4783 63.5476 62.4682 63.5619C62.4634 63.569 62.4602 63.5771 62.4586 63.5855C62.457 63.594 62.4572 63.6027 62.459 63.6111C62.4609 63.6195 62.4645 63.6274 62.4695 63.6345C62.4745 63.6415 62.4808 63.6474 62.4882 63.6519L64.1682 64.7739Z" fill="#536DFE"/>
<path d="M61.3005 65.1451C61.2973 65.1533 61.2957 65.162 61.2959 65.1707C61.2961 65.1794 61.298 65.1881 61.3015 65.1961C61.3051 65.2041 61.3102 65.2113 61.3165 65.2173C61.3229 65.2233 61.3303 65.228 61.3385 65.2311L63.2145 65.9651H63.2385C63.2518 65.965 63.2648 65.9609 63.2758 65.9534C63.2868 65.946 63.2954 65.9354 63.3005 65.9231C63.3064 65.9069 63.3057 65.8891 63.2986 65.8734C63.2915 65.8577 63.2786 65.8454 63.2625 65.8391L61.3845 65.1031C61.3763 65.1003 61.3675 65.0992 61.3588 65.0998C61.3501 65.1004 61.3416 65.1027 61.3337 65.1066C61.3259 65.1105 61.319 65.1159 61.3133 65.1225C61.3076 65.1291 61.3032 65.1368 61.3005 65.1451Z" fill="#263238"/>
<path d="M60.2162 68.4865C60.2309 68.4956 60.2485 68.4986 60.2653 68.4949C60.2821 68.4911 60.2968 68.481 60.3062 68.4665L61.4002 66.7725C61.4093 66.7579 61.4123 66.7403 61.4085 66.7235C61.4048 66.7066 61.3946 66.692 61.3802 66.6825C61.373 66.6778 61.365 66.6745 61.3565 66.6729C61.3481 66.6714 61.3394 66.6715 61.331 66.6734C61.3226 66.6753 61.3146 66.6788 61.3076 66.6838C61.3006 66.6888 61.2947 66.6952 61.2902 66.7025L60.2002 68.4005C60.1923 68.4145 60.1896 68.4307 60.1926 68.4464C60.1955 68.4622 60.2039 68.4764 60.2162 68.4865Z" fill="#536DFE"/>
<path d="M59.6801 67.0011C59.6928 67.0125 59.7091 67.0189 59.7261 67.0191C59.7392 67.0189 59.752 67.0147 59.7627 67.0072C59.7734 66.9997 59.7817 66.9891 59.7864 66.9769C59.7911 66.9647 59.7921 66.9513 59.7892 66.9385C59.7863 66.9257 59.7797 66.9141 59.7701 66.9051L59.3701 66.5371C59.3701 66.6011 59.3821 66.6691 59.3901 66.7371L59.6801 67.0011Z" fill="#536DFE"/>
<path d="M65.6141 68.1266C65.5976 68.1329 65.5841 68.1455 65.5767 68.1615C65.5692 68.1776 65.5683 68.1959 65.5741 68.2126C65.579 68.2251 65.5875 68.2358 65.5986 68.2433C65.6097 68.2508 65.6228 68.2547 65.6361 68.2546C65.6433 68.2565 65.6509 68.2565 65.6581 68.2546L66.4901 67.9506C66.4901 67.9026 66.5001 67.8546 66.5041 67.8066L65.6141 68.1266Z" fill="#536DFE"/>
<path d="M65.2583 66.7735C65.2703 66.7732 65.282 66.7698 65.2923 66.7635L66.7343 65.8575L66.7583 65.6875L65.2223 66.6515C65.2079 66.6609 65.1977 66.6756 65.194 66.6924C65.1902 66.7092 65.1932 66.7269 65.2023 66.7415C65.2081 66.7512 65.2163 66.7592 65.2261 66.7648C65.2359 66.7704 65.247 66.7734 65.2583 66.7735Z" fill="#536DFE"/>
<path d="M64.2743 67.0242C64.2645 67.0096 64.2495 66.9994 64.2324 66.9957C64.2152 66.992 64.1973 66.995 64.1823 67.0042L62.4763 68.0762C62.4618 68.086 62.4516 68.101 62.4478 68.1182C62.4441 68.1353 62.4472 68.1532 62.4563 68.1682C62.4626 68.1773 62.471 68.1847 62.4807 68.1899C62.4905 68.1951 62.5013 68.198 62.5123 68.1982C62.5244 68.1979 62.5361 68.1945 62.5463 68.1882L64.2523 67.1162C64.2672 67.1067 64.2779 67.0918 64.282 67.0746C64.2861 67.0575 64.2833 67.0394 64.2743 67.0242Z" fill="#536DFE"/>
<path d="M65.7121 64.7555H65.7361C65.7523 64.7488 65.7653 64.7362 65.7724 64.7201C65.7795 64.7041 65.7801 64.686 65.7741 64.6695L65.1741 63.1035H65.0361L65.6361 64.7035C65.6395 64.7204 65.6494 64.7352 65.6636 64.745C65.6778 64.7547 65.6952 64.7585 65.7121 64.7555Z" fill="#263238"/>
<path d="M64.0181 72.9488C64.0111 72.9439 64.0031 72.9405 63.9947 72.9388C63.9864 72.9371 63.9777 72.9371 63.9693 72.9387C63.9609 72.9404 63.953 72.9438 63.9459 72.9486C63.9388 72.9534 63.9328 72.9596 63.9281 72.9668C63.9188 72.9815 63.9154 72.9992 63.9187 73.0164C63.9221 73.0335 63.9319 73.0487 63.9461 73.0588L64.3201 73.3048L64.5361 73.2908L64.0181 72.9488Z" fill="#536DFE"/>
<path d="M66.4301 72.3278L64.9741 71.7578C64.9659 71.7534 64.9568 71.7508 64.9475 71.7502C64.9383 71.7495 64.9289 71.7508 64.9202 71.7541C64.9114 71.7573 64.9035 71.7623 64.8968 71.7688C64.8902 71.7753 64.8849 71.7832 64.8815 71.7918C64.8781 71.8005 64.8766 71.8098 64.877 71.8191C64.8775 71.8284 64.8799 71.8375 64.8841 71.8458C64.8883 71.8541 64.8942 71.8615 64.9014 71.8673C64.9087 71.8732 64.9171 71.8774 64.9261 71.8798L66.4441 72.4798C66.4381 72.4258 66.4341 72.3758 66.4301 72.3278Z" fill="#536DFE"/>
<path d="M60.2764 72.7617C60.2764 72.8017 60.2864 72.8417 60.2924 72.8837C60.3042 72.8791 60.3145 72.8712 60.3219 72.8609C60.3294 72.8506 60.3337 72.8384 60.3344 72.8257C60.334 72.8099 60.3279 72.7947 60.3173 72.7829C60.3066 72.7712 60.2921 72.7636 60.2764 72.7617Z" fill="#263238"/>
<path d="M60.2585 70.7482C60.2719 70.748 60.2849 70.7437 60.2958 70.7359C60.3067 70.7281 60.315 70.7172 60.3195 70.7046C60.3241 70.6921 60.3247 70.6784 60.3213 70.6655C60.3179 70.6525 60.3107 70.6409 60.3005 70.6322L59.9365 70.3262C59.9365 70.3902 59.9545 70.4542 59.9645 70.5262L60.2145 70.7382C60.2278 70.746 60.2432 70.7495 60.2585 70.7482Z" fill="#536DFE"/>
<path d="M63.3302 70.0912C63.3436 70.0911 63.3565 70.087 63.3675 70.0795C63.3786 70.0721 63.3872 70.0615 63.3922 70.0492C63.3981 70.033 63.3974 70.0152 63.3903 69.9995C63.3832 69.9838 63.3703 69.9715 63.3542 69.9652L61.4782 69.2292C61.4701 69.226 61.4614 69.2244 61.4527 69.2246C61.4439 69.2248 61.4353 69.2267 61.4273 69.2302C61.4193 69.2338 61.4121 69.2389 61.4061 69.2452C61.4 69.2516 61.3953 69.2591 61.3922 69.2672C61.3891 69.2752 61.3875 69.2838 61.3877 69.2924C61.3879 69.301 61.3898 69.3095 61.3934 69.3173C61.3969 69.3252 61.402 69.3322 61.4084 69.338C61.4147 69.3439 61.4221 69.3484 61.4302 69.3512L63.3062 70.0872L63.3302 70.0912Z" fill="#263238"/>
<path d="M62.8963 70.9591L61.1883 72.0311C61.1737 72.0409 61.1635 72.0559 61.1598 72.0731C61.156 72.0902 61.1591 72.1082 61.1683 72.1231C61.1742 72.1326 61.1824 72.1403 61.1923 72.1456C61.2021 72.1508 61.2131 72.1534 61.2243 72.1531C61.2363 72.1528 61.248 72.1494 61.2583 72.1431L62.9663 71.0711C62.9808 71.0613 62.991 71.0463 62.9948 71.0291C62.9985 71.012 62.9954 70.9941 62.9863 70.9791C62.9768 70.9647 62.9621 70.9545 62.9453 70.9508C62.9285 70.9471 62.9109 70.95 62.8963 70.9591Z" fill="#536DFE"/>
<path d="M64.4703 70.4487C64.4762 70.4583 64.4845 70.4662 64.4942 70.4718C64.504 70.4774 64.515 70.4804 64.5263 70.4807C64.5392 70.4805 64.5518 70.4763 64.5623 70.4687L66.2683 69.3967C66.2801 69.3863 66.2877 69.3721 66.2899 69.3565C66.2921 69.3409 66.2887 69.3251 66.2803 69.3118C66.2718 69.2986 66.2589 69.2887 66.2439 69.2841C66.2289 69.2795 66.2127 69.2805 66.1983 69.2867L64.4923 70.3587C64.4775 70.3678 64.4669 70.3824 64.4628 70.3992C64.4587 70.4161 64.4614 70.4338 64.4703 70.4487Z" fill="#263238"/>
<path d="M62.5382 73.0015C62.535 72.9933 62.5303 72.9859 62.5242 72.9796C62.5182 72.9732 62.511 72.9682 62.503 72.9647C62.495 72.9611 62.4864 72.9592 62.4777 72.959C62.469 72.9588 62.4603 72.9603 62.4522 72.9635C62.444 72.9666 62.4366 72.9713 62.4303 72.9774C62.4239 72.9834 62.4189 72.9906 62.4153 72.9986C62.4118 73.0066 62.4099 73.0152 62.4097 73.0239C62.4095 73.0326 62.411 73.0413 62.4142 73.0495L62.5242 73.3395H62.6642L62.5382 73.0015Z" fill="#263238"/>
<path d="M61.1481 66.1203C61.1321 66.2523 61.1201 66.3443 61.1041 66.4503C61.0881 66.5563 61.0681 66.6503 61.0501 66.7543C61.0121 66.9543 60.9681 67.1543 60.9201 67.3543C60.8237 67.7479 60.7055 68.1358 60.5661 68.5163C60.4284 68.9024 60.2674 69.2797 60.0841 69.6463C59.8999 70.02 59.6908 70.3808 59.4581 70.7263L59.4161 70.7903C59.3919 70.8267 59.3637 70.8602 59.3321 70.8903C59.0066 71.1903 58.6582 71.4645 58.2901 71.7103C57.9521 71.9463 57.6061 72.1643 57.2621 72.3763C56.9181 72.5883 56.5661 72.7883 56.2121 72.9763C55.8581 73.1643 55.5041 73.3563 55.1341 73.5283C55.0176 73.5794 54.8869 73.5881 54.7647 73.5528C54.6425 73.5175 54.5365 73.4405 54.4651 73.3352C54.3938 73.2298 54.3617 73.1028 54.3743 72.9763C54.3869 72.8497 54.4434 72.7315 54.5341 72.6423C54.8201 72.3723 55.1201 72.1103 55.4121 71.8423L56.2961 71.0583C56.5901 70.8023 56.8781 70.5403 57.1621 70.2863C57.3021 70.1583 57.4381 70.0283 57.5621 69.9003L57.7481 69.7143C57.8081 69.6523 57.8521 69.5983 57.9061 69.5403L57.7801 69.7043C57.9281 69.4103 58.0681 69.1043 58.1801 68.7963C58.2921 68.4883 58.4141 68.1603 58.5121 67.8323C58.6101 67.5043 58.7121 67.1743 58.7801 66.8323C58.8201 66.6663 58.8581 66.4983 58.8901 66.3303L58.9801 65.8563L59.0001 65.8003C59.0527 65.5251 59.2099 65.2809 59.4386 65.1191C59.6673 64.9572 59.9499 64.8902 60.2269 64.9321C60.504 64.974 60.754 65.1216 60.9247 65.3439C61.0953 65.5661 61.1732 65.8458 61.1421 66.1243L61.1481 66.1203Z" fill="#FF8B7B"/>
<path d="M55.0562 72.6014L53.9342 72.2694C53.7477 72.2147 53.5477 72.2282 53.3702 72.3074L52.8802 72.5254C52.8228 72.5507 52.7711 72.5872 52.7281 72.6328C52.6851 72.6784 52.6517 72.7322 52.6299 72.7909C52.608 72.8497 52.5982 72.9122 52.6011 72.9748C52.6039 73.0375 52.6192 73.0989 52.6462 73.1554L52.8702 73.6294C52.9149 73.7251 52.9906 73.8028 53.085 73.85C53.1794 73.8972 53.2869 73.9111 53.3902 73.8894L54.2662 73.7074C54.5484 73.7229 54.831 73.6835 55.0982 73.5914C55.1715 73.5632 55.2375 73.5187 55.2912 73.4613C55.3449 73.404 55.385 73.3353 55.4084 73.2603C55.4319 73.1853 55.4381 73.106 55.4266 73.0283C55.4152 72.9506 55.3863 72.8765 55.3422 72.8114C55.2738 72.7107 55.1729 72.6365 55.0562 72.6014Z" fill="#FF8B7B"/>
<path d="M60.6401 63.8477C59.6941 64.2017 58.8861 65.0277 58.4961 67.1577C59.0121 67.8137 60.8541 68.1577 60.8541 68.1577C60.8541 68.1577 62.2301 65.3377 60.6401 63.8477Z" fill="#536DFE"/>
<path opacity="0.8" d="M60.6401 63.8477C59.6941 64.2017 58.8861 65.0277 58.4961 67.1577C59.0121 67.8137 60.8541 68.1577 60.8541 68.1577C60.8541 68.1577 62.2301 65.3377 60.6401 63.8477Z" fill="white"/>
<path d="M60.1485 64.8808C60.1545 64.8883 60.1621 64.8943 60.1708 64.8985C60.1794 64.9026 60.1889 64.9048 60.1985 64.9048C60.2137 64.9054 60.2287 64.9005 60.2405 64.8908C60.2539 64.8798 60.2624 64.864 60.2643 64.8468C60.2662 64.8296 60.2612 64.8124 60.2505 64.7988L59.8505 64.3008C59.8165 64.3288 59.7825 64.3568 59.7505 64.3868L60.1485 64.8808Z" fill="#263238"/>
<path d="M61.3005 65.1456C61.2973 65.1537 61.2957 65.1624 61.2959 65.1711C61.2961 65.1799 61.298 65.1885 61.3015 65.1965C61.3051 65.2045 61.3102 65.2117 61.3165 65.2178C61.3229 65.2238 61.3303 65.2285 61.3385 65.2316H61.3605C61.3605 65.1876 61.3445 65.1436 61.3345 65.1016C61.3257 65.1056 61.318 65.1117 61.3121 65.1194C61.3062 65.127 61.3022 65.136 61.3005 65.1456Z" fill="#263238"/>
<path d="M60.5481 68.0937L61.2541 66.9997C61.2801 66.8957 61.3021 66.7897 61.3221 66.6797C61.3091 66.6839 61.2978 66.6924 61.2901 66.7037L60.4121 68.0617L60.5481 68.0937Z" fill="#536DFE"/>
<path d="M59.6804 67.002C59.693 67.0133 59.7094 67.0197 59.7264 67.02C59.7395 67.0197 59.7522 67.0155 59.763 67.008C59.7737 67.0005 59.782 66.99 59.7867 66.9777C59.7914 66.9655 59.7924 66.9521 59.7895 66.9394C59.7866 66.9266 59.7799 66.9149 59.7704 66.906L58.8004 66.002C58.7844 66.046 58.7684 66.092 58.7544 66.138L59.6804 67.002Z" fill="#536DFE"/>
<path d="M86.7999 85.5644C86.5219 84.4804 86.8579 84.0684 87.2519 83.6364C87.6459 83.2044 87.6019 82.4824 87.6019 82.4824C87.98 83.3155 88.1292 84.2345 88.0339 85.1444C87.8559 86.5884 86.9999 86.3564 86.7999 85.5644Z" fill="#263238"/>
<path d="M88.518 94.3032C88.104 93.6092 86.34 92.1452 85.002 92.7212C86.072 93.1652 87.2519 95.8712 88.8359 95.7572L88.518 94.3032Z" fill="#263238"/>
<path d="M89.7622 100.312C89.7207 100.309 89.6809 100.294 89.6482 100.269C89.6156 100.243 89.5918 100.208 89.5802 100.168C89.3222 99.1096 87.0363 89.6296 86.1403 82.8996C86.1364 82.8505 86.1508 82.8017 86.1807 82.7626C86.2106 82.7235 86.2539 82.6968 86.3023 82.6876C86.3269 82.6839 86.3519 82.6852 86.376 82.6914C86.4001 82.6977 86.4227 82.7087 86.4425 82.7238C86.4623 82.7389 86.4788 82.7578 86.4911 82.7794C86.5034 82.801 86.5113 82.8249 86.5143 82.8496C87.4063 89.5596 89.6883 99.0236 89.9463 100.08C89.9553 100.128 89.9462 100.178 89.9208 100.22C89.8953 100.262 89.8553 100.293 89.8083 100.308L89.7622 100.312Z" fill="#536DFE"/>
<path d="M86.5998 83.3075C86.6238 82.5075 86.2538 82.0255 85.3238 81.9395C84.3938 81.8535 84.0998 81.4655 83.9238 81.1035C84.2378 82.9315 86.4298 83.3895 86.6418 84.2915C86.5998 83.6155 86.5998 83.3075 86.5998 83.3075Z" fill="#536DFE"/>
<path d="M87.0218 86.3237C86.9458 85.4917 86.2738 85.3777 85.5078 85.2777C84.7418 85.1777 84.4898 84.6777 84.4898 84.6777C84.3977 85.0194 84.4007 85.3797 84.4983 85.7198C84.5959 86.0599 84.7845 86.3669 85.0438 86.6077C85.9458 87.4717 87.0778 86.9317 87.0218 86.3237Z" fill="#536DFE"/>
<path d="M88.2939 93.6702C88.1619 92.7402 88.7999 92.3562 88.6939 90.9902C90.5279 94.1122 88.5019 95.1282 88.2939 93.6702Z" fill="#536DFE"/>
<path d="M87.4403 89.8787C86.9243 89.0927 86.1923 89.2267 85.3643 88.1367C86.0563 91.6867 88.2483 91.1087 87.4403 89.8787Z" fill="#536DFE"/>
<path d="M91.2898 90.0646C91.3358 88.8086 90.1718 88.1466 89.2798 86.8926C89.8218 89.3886 91.2178 92.0326 91.2898 90.0646Z" fill="#263238"/>
<path d="M90.7178 99.1816H90.6998C90.6418 99.1765 90.5881 99.1486 90.5506 99.104C90.5131 99.0593 90.4948 99.0017 90.4998 98.9436C90.6998 96.3056 91.4438 84.9436 91.2378 77.5076C91.237 77.4787 91.2419 77.4499 91.2523 77.4229C91.2626 77.3959 91.2781 77.3712 91.298 77.3502C91.3179 77.3293 91.3417 77.3124 91.3681 77.3006C91.3945 77.2888 91.4229 77.2824 91.4518 77.2816C91.4809 77.28 91.5101 77.2843 91.5374 77.2943C91.5648 77.3043 91.5898 77.3198 91.611 77.3399C91.6321 77.3599 91.649 77.384 91.6605 77.4108C91.672 77.4376 91.6779 77.4664 91.6778 77.4956C91.8778 84.9476 91.1478 96.3356 90.9398 98.9776C90.9353 99.0333 90.9099 99.0852 90.8688 99.1231C90.8276 99.1609 90.7737 99.1818 90.7178 99.1816Z" fill="#536DFE"/>
<path d="M91.2879 78.1058C91.0079 76.5838 91.5779 75.5358 93.3439 75.1058C95.1099 74.6758 95.5619 73.8378 95.7899 73.0898C95.7219 76.6898 91.6379 78.2198 91.4919 80.0198C91.3779 78.6978 91.2879 78.1058 91.2879 78.1058Z" fill="#536DFE"/>
<path d="M91.4242 81.1805C91.7062 79.3565 90.3302 78.7525 88.7462 78.1265C87.1622 77.5005 86.8822 76.3145 86.8822 76.3145C86.5035 76.9969 86.3176 77.7695 86.3443 78.5495C86.3711 79.3295 86.6096 80.0876 87.0342 80.7425C88.5062 83.0585 91.2182 82.5105 91.4242 81.1805Z" fill="#536DFE"/>
<path d="M91.416 85.8366C91.718 84.3906 92.922 84.3266 94.286 84.3066C95.65 84.2866 96.196 83.4746 96.196 83.4746C96.2869 84.0932 96.2079 84.7249 95.9672 85.302C95.7266 85.8791 95.3335 86.3799 94.83 86.7506C93.072 88.0706 91.2 86.8926 91.416 85.8366Z" fill="#536DFE"/>
<path d="M91.1601 92.8624C91.4921 91.9724 93.2181 89.9064 94.8861 90.2864C93.7441 91.0264 92.9541 94.4024 91.1001 94.6084C91.1521 93.1164 91.1601 92.8624 91.1601 92.8624Z" fill="#536DFE"/>
<path d="M92.7559 97.2305H87.1999C87.1273 97.2303 87.0557 97.2472 86.9909 97.2799C86.9261 97.3126 86.8699 97.36 86.8268 97.4185C86.7838 97.4769 86.7551 97.5446 86.7432 97.6162C86.7312 97.6878 86.7362 97.7612 86.7579 97.8305L88.2639 102.92C88.2917 103.016 88.3498 103.1 88.4295 103.16C88.5092 103.22 88.6062 103.253 88.7059 103.252H91.2599C91.3596 103.253 91.4566 103.22 91.5363 103.16C91.6161 103.1 91.6742 103.016 91.7019 102.92L93.1999 97.8245C93.2205 97.7554 93.2246 97.6825 93.212 97.6115C93.1994 97.5406 93.1704 97.4736 93.1272 97.4159C93.0841 97.3582 93.028 97.3113 92.9635 97.2791C92.8991 97.2469 92.828 97.2303 92.7559 97.2305Z" fill="#536DFE"/>
<path opacity="0.2" d="M92.7559 97.2305H87.1999C87.1273 97.2303 87.0557 97.2472 86.9909 97.2799C86.9261 97.3126 86.8699 97.36 86.8268 97.4185C86.7838 97.4769 86.7551 97.5446 86.7432 97.6162C86.7312 97.6878 86.7362 97.7612 86.7579 97.8305L88.2639 102.92C88.2917 103.016 88.3498 103.1 88.4295 103.16C88.5092 103.22 88.6062 103.253 88.7059 103.252H91.2599C91.3596 103.253 91.4566 103.22 91.5363 103.16C91.6161 103.1 91.6742 103.016 91.7019 102.92L93.1999 97.8245C93.2205 97.7554 93.2246 97.6825 93.212 97.6115C93.1994 97.5406 93.1704 97.4736 93.1272 97.4159C93.0841 97.3582 93.028 97.3113 92.9635 97.2791C92.8991 97.2469 92.828 97.2303 92.7559 97.2305Z" fill="#536DFE"/>
<path opacity="0.7" d="M92.7559 97.2305H87.1999C87.1273 97.2303 87.0557 97.2472 86.9909 97.2799C86.9261 97.3126 86.8699 97.36 86.8268 97.4185C86.7838 97.4769 86.7551 97.5446 86.7432 97.6162C86.7312 97.6878 86.7362 97.7612 86.7579 97.8305L88.2639 102.92C88.2917 103.016 88.3498 103.1 88.4295 103.16C88.5092 103.22 88.6062 103.253 88.7059 103.252H91.2599C91.3596 103.253 91.4566 103.22 91.5363 103.16C91.6161 103.1 91.6742 103.016 91.7019 102.92L93.1999 97.8245C93.2205 97.7554 93.2246 97.6825 93.212 97.6115C93.1994 97.5406 93.1704 97.4736 93.1272 97.4159C93.0841 97.3582 93.028 97.3113 92.9635 97.2791C92.8991 97.2469 92.828 97.2303 92.7559 97.2305Z" fill="white"/>
</g>
<defs>
<clipPath id="clip0_481_2102">
<rect width="100" height="100" fill="white" transform="translate(20 20)"/>
</clipPath>
</defs>
</svg>
